<svg xmlns="http://www.w3.org/2000/svg" xmlns:xlink="http://www.w3.org/1999/xlink" contentStyleType="text/css" data-diagram-type="CLASS" height="1066px" preserveAspectRatio="none" style="width:1632px;height:1066px;background:#FFFFFF;" version="1.1" viewBox="0 0 1632 1066" width="1632px" zoomAndPan="magnify"><defs/><g><!--class clients--><g id="elem_clients"><rect codeLine="3" fill="#F1F1F1" height="162.0781" id="clients" rx="2.5" ry="2.5" style="stroke:#181818;stroke-width:0.5;" width="213.4824" x="257" y="517"/><ellipse cx="336.6182" cy="533" fill="#ADD1B2" rx="11" ry="11" style="stroke:#181818;stroke-width:1;"/><path d="M339.5869,538.6406 Q339.0088,538.9375 338.3682,539.0781 Q337.7275,539.2344 337.0244,539.2344 Q334.5244,539.2344 333.1963,537.5938 Q331.8838,535.9375 331.8838,532.8125 Q331.8838,529.6875 333.1963,528.0313 Q334.5244,526.375 337.0244,526.375 Q337.7275,526.375 338.3682,526.5313 Q339.0244,526.6875 339.5869,526.9844 L339.5869,529.7031 Q338.9619,529.125 338.3682,528.8594 Q337.7744,528.5781 337.1494,528.5781 Q335.8057,528.5781 335.1182,529.6563 Q334.4307,530.7188 334.4307,532.8125 Q334.4307,534.9063 335.1182,535.9844 Q335.8057,537.0469 337.1494,537.0469 Q337.7744,537.0469 338.3682,536.7813 Q338.9619,536.5 339.5869,535.9219 L339.5869,538.6406 Z " fill="#000000"/><text fill="#000000" font-family="sans-serif" font-size="14" lengthAdjust="spacing" textLength="45.7461" x="357.1182" y="537.8467">clients</text><line style="stroke:#181818;stroke-width:0.5;" x1="258" x2="469.4824" y1="549" y2="549"/><rect fill="transparent" height="6" style="stroke:#C82930;stroke-width:1;" width="6" x="265" y="559.6484"/><text fill="#000000" font-family="sans-serif" font-size="14" lengthAdjust="spacing" textLength="90.0977" x="277" y="565.9951">id_client : int</text><rect fill="transparent" height="6" style="stroke:#C82930;stroke-width:1;" width="6" x="265" y="575.9453"/><text fill="#000000" font-family="sans-serif" font-size="14" lengthAdjust="spacing" textLength="130.334" x="277" y="582.292">nom_client : string</text><rect fill="transparent" height="6" style="stroke:#C82930;stroke-width:1;" width="6" x="265" y="592.2422"/><text fill="#000000" font-family="sans-serif" font-size="14" lengthAdjust="spacing" textLength="153.5898" x="277" y="598.5889">prenom_client : string</text><rect fill="transparent" height="6" style="stroke:#C82930;stroke-width:1;" width="6" x="265" y="608.5391"/><text fill="#000000" font-family="sans-serif" font-size="14" lengthAdjust="spacing" textLength="169.6748" x="277" y="614.8857">telephone_client : string</text><rect fill="transparent" height="6" style="stroke:#C82930;stroke-width:1;" width="6" x="265" y="624.8359"/><text fill="#000000" font-family="sans-serif" font-size="14" lengthAdjust="spacing" textLength="154.5674" x="277" y="631.1826">address_client : string</text><rect fill="transparent" height="6" style="stroke:#C82930;stroke-width:1;" width="6" x="265" y="641.1328"/><text fill="#000000" font-family="sans-serif" font-size="14" lengthAdjust="spacing" textLength="187.4824" x="277" y="647.4795">chiffre_affaire_client : float</text><ellipse cx="268" cy="660.4297" fill="transparent" rx="3" ry="3" style="stroke:#038048;stroke-width:1;"/><text fill="#000000" font-family="sans-serif" font-size="14" lengthAdjust="spacing" textLength="82.1816" x="277" y="663.7764">id_user : int</text><line style="stroke:#181818;stroke-width:0.5;" x1="258" x2="469.4824" y1="671.0781" y2="671.0781"/></g><!--class users--><g id="elem_users"><rect codeLine="13" fill="#F1F1F1" height="145.7813" id="users" rx="2.5" ry="2.5" style="stroke:#181818;stroke-width:0.5;" width="146.5176" x="290" y="756"/><ellipse cx="340.0938" cy="772" fill="#ADD1B2" rx="11" ry="11" style="stroke:#181818;stroke-width:1;"/><path d="M343.0625,777.6406 Q342.4844,777.9375 341.8438,778.0781 Q341.2031,778.2344 340.5,778.2344 Q338,778.2344 336.6719,776.5938 Q335.3594,774.9375 335.3594,771.8125 Q335.3594,768.6875 336.6719,767.0313 Q338,765.375 340.5,765.375 Q341.2031,765.375 341.8438,765.5313 Q342.5,765.6875 343.0625,765.9844 L343.0625,768.7031 Q342.4375,768.125 341.8438,767.8594 Q341.25,767.5781 340.625,767.5781 Q339.2813,767.5781 338.5938,768.6563 Q337.9063,769.7188 337.9063,771.8125 Q337.9063,773.9063 338.5938,774.9844 Q339.2813,776.0469 340.625,776.0469 Q341.25,776.0469 341.8438,775.7813 Q342.4375,775.5 343.0625,774.9219 L343.0625,777.6406 Z " fill="#000000"/><text fill="#000000" font-family="sans-serif" font-size="14" lengthAdjust="spacing" textLength="37.8301" x="360.5938" y="776.8467">users</text><line style="stroke:#181818;stroke-width:0.5;" x1="291" x2="435.5176" y1="788" y2="788"/><rect fill="transparent" height="6" style="stroke:#C82930;stroke-width:1;" width="6" x="298" y="798.6484"/><text fill="#000000" font-family="sans-serif" font-size="14" lengthAdjust="spacing" textLength="82.1816" x="310" y="804.9951">id_user : int</text><rect fill="transparent" height="6" style="stroke:#C82930;stroke-width:1;" width="6" x="298" y="814.9453"/><text fill="#000000" font-family="sans-serif" font-size="14" lengthAdjust="spacing" textLength="92.415" x="310" y="821.292">email : string</text><rect fill="transparent" height="6" style="stroke:#C82930;stroke-width:1;" width="6" x="298" y="831.2422"/><text fill="#000000" font-family="sans-serif" font-size="14" lengthAdjust="spacing" textLength="120.5176" x="310" y="837.5889">password : string</text><rect fill="transparent" height="6" style="stroke:#C82930;stroke-width:1;" width="6" x="298" y="847.5391"/><text fill="#000000" font-family="sans-serif" font-size="14" lengthAdjust="spacing" textLength="108.1377" x="310" y="853.8857">prenom : string</text><rect fill="transparent" height="6" style="stroke:#C82930;stroke-width:1;" width="6" x="298" y="863.8359"/><text fill="#000000" font-family="sans-serif" font-size="14" lengthAdjust="spacing" textLength="84.8818" x="310" y="870.1826">nom : string</text><ellipse cx="301" cy="883.1328" fill="transparent" rx="3" ry="3" style="stroke:#038048;stroke-width:1;"/><text fill="#000000" font-family="sans-serif" font-size="14" lengthAdjust="spacing" textLength="78.4697" x="310" y="886.4795">id_role : int</text><line style="stroke:#181818;stroke-width:0.5;" x1="291" x2="435.5176" y1="893.7813" y2="893.7813"/></g><!--class roles--><g id="elem_roles"><rect codeLine="22" fill="#F1F1F1" height="80.5938" id="roles" rx="2.5" ry="2.5" style="stroke:#181818;stroke-width:0.5;" width="155.3018" x="286" y="979"/><ellipse cx="342.3418" cy="995" fill="#ADD1B2" rx="11" ry="11" style="stroke:#181818;stroke-width:1;"/><path d="M345.3105,1000.6406 Q344.7324,1000.9375 344.0918,1001.0781 Q343.4512,1001.2344 342.748,1001.2344 Q340.248,1001.2344 338.9199,999.5938 Q337.6074,997.9375 337.6074,994.8125 Q337.6074,991.6875 338.9199,990.0313 Q340.248,988.375 342.748,988.375 Q343.4512,988.375 344.0918,988.5313 Q344.748,988.6875 345.3105,988.9844 L345.3105,991.7031 Q344.6855,991.125 344.0918,990.8594 Q343.498,990.5781 342.873,990.5781 Q341.5293,990.5781 340.8418,991.6563 Q340.1543,992.7188 340.1543,994.8125 Q340.1543,996.9063 340.8418,997.9844 Q341.5293,999.0469 342.873,999.0469 Q343.498,999.0469 344.0918,998.7813 Q344.6855,998.5 345.3105,997.9219 L345.3105,1000.6406 Z " fill="#000000"/><text fill="#000000" font-family="sans-serif" font-size="14" lengthAdjust="spacing" textLength="34.1182" x="362.8418" y="999.8467">roles</text><line style="stroke:#181818;stroke-width:0.5;" x1="287" x2="440.3018" y1="1011" y2="1011"/><rect fill="transparent" height="6" style="stroke:#C82930;stroke-width:1;" width="6" x="294" y="1021.6484"/><text fill="#000000" font-family="sans-serif" font-size="14" lengthAdjust="spacing" textLength="78.4697" x="306" y="1027.9951">id_role : int</text><rect fill="transparent" height="6" style="stroke:#C82930;stroke-width:1;" width="6" x="294" y="1037.9453"/><text fill="#000000" font-family="sans-serif" font-size="14" lengthAdjust="spacing" textLength="129.3018" x="306" y="1044.292">libelle_role : string</text><line style="stroke:#181818;stroke-width:0.5;" x1="287" x2="440.3018" y1="1051.5938" y2="1051.5938"/></g><!--class auteur--><g id="elem_auteur"><rect codeLine="27" fill="#F1F1F1" height="113.1875" id="auteur" rx="2.5" ry="2.5" style="stroke:#181818;stroke-width:0.5;" width="187.3213" x="505" y="541.5"/><ellipse cx="571.3188" cy="557.5" fill="#ADD1B2" rx="11" ry="11" style="stroke:#181818;stroke-width:1;"/><path d="M574.2876,563.1406 Q573.7095,563.4375 573.0688,563.5781 Q572.4282,563.7344 571.7251,563.7344 Q569.2251,563.7344 567.897,562.0938 Q566.5845,560.4375 566.5845,557.3125 Q566.5845,554.1875 567.897,552.5313 Q569.2251,550.875 571.7251,550.875 Q572.4282,550.875 573.0688,551.0313 Q573.7251,551.1875 574.2876,551.4844 L574.2876,554.2031 Q573.6626,553.625 573.0688,553.3594 Q572.4751,553.0781 571.8501,553.0781 Q570.5063,553.0781 569.8188,554.1563 Q569.1313,555.2188 569.1313,557.3125 Q569.1313,559.4063 569.8188,560.4844 Q570.5063,561.5469 571.8501,561.5469 Q572.4751,561.5469 573.0688,561.2813 Q573.6626,561 574.2876,560.4219 L574.2876,563.1406 Z " fill="#000000"/><text fill="#000000" font-family="sans-serif" font-size="14" lengthAdjust="spacing" textLength="46.1836" x="591.8188" y="562.3467">auteur</text><line style="stroke:#181818;stroke-width:0.5;" x1="506" x2="691.3213" y1="573.5" y2="573.5"/><rect fill="transparent" height="6" style="stroke:#C82930;stroke-width:1;" width="6" x="513" y="584.1484"/><text fill="#000000" font-family="sans-serif" font-size="14" lengthAdjust="spacing" textLength="97.8291" x="525" y="590.4951">id_auteur : int</text><rect fill="transparent" height="6" style="stroke:#C82930;stroke-width:1;" width="6" x="513" y="600.4453"/><text fill="#000000" font-family="sans-serif" font-size="14" lengthAdjust="spacing" textLength="138.0654" x="525" y="606.792">nom_auteur : string</text><rect fill="transparent" height="6" style="stroke:#C82930;stroke-width:1;" width="6" x="513" y="616.7422"/><text fill="#000000" font-family="sans-serif" font-size="14" lengthAdjust="spacing" textLength="161.3213" x="525" y="623.0889">prenom_auteur : string</text><rect fill="transparent" height="6" style="stroke:#C82930;stroke-width:1;" width="6" x="513" y="633.0391"/><text fill="#000000" font-family="sans-serif" font-size="14" lengthAdjust="spacing" textLength="128.3311" x="525" y="639.3857">bio_auteur : string</text><line style="stroke:#181818;stroke-width:0.5;" x1="506" x2="691.3213" y1="646.6875" y2="646.6875"/></g><!--class genres--><g id="elem_genres"><rect codeLine="34" fill="#F1F1F1" height="80.5938" id="genres" rx="2.5" ry="2.5" style="stroke:#181818;stroke-width:0.5;" width="169.2197" x="727" y="557.5"/><ellipse cx="783.3418" cy="573.5" fill="#ADD1B2" rx="11" ry="11" style="stroke:#181818;stroke-width:1;"/><path d="M786.3105,579.1406 Q785.7324,579.4375 785.0918,579.5781 Q784.4512,579.7344 783.748,579.7344 Q781.248,579.7344 779.9199,578.0938 Q778.6074,576.4375 778.6074,573.3125 Q778.6074,570.1875 779.9199,568.5313 Q781.248,566.875 783.748,566.875 Q784.4512,566.875 785.0918,567.0313 Q785.748,567.1875 786.3105,567.4844 L786.3105,570.2031 Q785.6855,569.625 785.0918,569.3594 Q784.498,569.0781 783.873,569.0781 Q782.5293,569.0781 781.8418,570.1563 Q781.1543,571.2188 781.1543,573.3125 Q781.1543,575.4063 781.8418,576.4844 Q782.5293,577.5469 783.873,577.5469 Q784.498,577.5469 785.0918,577.2813 Q785.6855,577 786.3105,576.4219 L786.3105,579.1406 Z " fill="#000000"/><text fill="#000000" font-family="sans-serif" font-size="14" lengthAdjust="spacing" textLength="48.0361" x="803.8418" y="578.3467">genres</text><line style="stroke:#181818;stroke-width:0.5;" x1="728" x2="895.2197" y1="589.5" y2="589.5"/><rect fill="transparent" height="6" style="stroke:#C82930;stroke-width:1;" width="6" x="735" y="600.1484"/><text fill="#000000" font-family="sans-serif" font-size="14" lengthAdjust="spacing" textLength="92.3877" x="747" y="606.4951">id_genre : int</text><rect fill="transparent" height="6" style="stroke:#C82930;stroke-width:1;" width="6" x="735" y="616.4453"/><text fill="#000000" font-family="sans-serif" font-size="14" lengthAdjust="spacing" textLength="143.2197" x="747" y="622.792">libelle_genre : string</text><line style="stroke:#181818;stroke-width:0.5;" x1="728" x2="895.2197" y1="630.0938" y2="630.0938"/></g><!--class book_status_order--><g id="elem_book_status_order"><rect codeLine="39" fill="#F1F1F1" height="80.5938" id="book_status_order" rx="2.5" ry="2.5" style="stroke:#181818;stroke-width:0.5;" width="216.0732" x="931.5" y="557.5"/><ellipse cx="971.4086" cy="573.5" fill="#ADD1B2" rx="11" ry="11" style="stroke:#181818;stroke-width:1;"/><path d="M974.3774,579.1406 Q973.7993,579.4375 973.1586,579.5781 Q972.518,579.7344 971.8149,579.7344 Q969.3149,579.7344 967.9868,578.0938 Q966.6743,576.4375 966.6743,573.3125 Q966.6743,570.1875 967.9868,568.5313 Q969.3149,566.875 971.8149,566.875 Q972.518,566.875 973.1586,567.0313 Q973.8149,567.1875 974.3774,567.4844 L974.3774,570.2031 Q973.7524,569.625 973.1586,569.3594 Q972.5649,569.0781 971.9399,569.0781 Q970.5961,569.0781 969.9086,570.1563 Q969.2211,571.2188 969.2211,573.3125 Q969.2211,575.4063 969.9086,576.4844 Q970.5961,577.5469 971.9399,577.5469 Q972.5649,577.5469 973.1586,577.2813 Q973.7524,577 974.3774,576.4219 L974.3774,579.1406 Z " fill="#000000"/><text fill="#000000" font-family="sans-serif" font-size="14" lengthAdjust="spacing" textLength="128.7207" x="990.9439" y="578.3467">book_status_order</text><line style="stroke:#181818;stroke-width:0.5;" x1="932.5" x2="1146.5732" y1="589.5" y2="589.5"/><rect fill="transparent" height="6" style="stroke:#C82930;stroke-width:1;" width="6" x="939.5" y="600.1484"/><text fill="#000000" font-family="sans-serif" font-size="14" lengthAdjust="spacing" textLength="139.2412" x="951.5" y="606.4951">id_status_order : int</text><rect fill="transparent" height="6" style="stroke:#C82930;stroke-width:1;" width="6" x="939.5" y="616.4453"/><text fill="#000000" font-family="sans-serif" font-size="14" lengthAdjust="spacing" textLength="190.0732" x="951.5" y="622.792">libelle_status_order : string</text><line style="stroke:#181818;stroke-width:0.5;" x1="932.5" x2="1146.5732" y1="630.0938" y2="630.0938"/></g><!--class book_status--><g id="elem_book_status"><rect codeLine="44" fill="#F1F1F1" height="80.5938" id="book_status" rx="2.5" ry="2.5" style="stroke:#181818;stroke-width:0.5;" width="171.4961" x="1183" y="557.5"/><ellipse cx="1222.9086" cy="573.5" fill="#ADD1B2" rx="11" ry="11" style="stroke:#181818;stroke-width:1;"/><path d="M1225.8774,579.1406 Q1225.2993,579.4375 1224.6586,579.5781 Q1224.018,579.7344 1223.3149,579.7344 Q1220.8149,579.7344 1219.4868,578.0938 Q1218.1743,576.4375 1218.1743,573.3125 Q1218.1743,570.1875 1219.4868,568.5313 Q1220.8149,566.875 1223.3149,566.875 Q1224.018,566.875 1224.6586,567.0313 Q1225.3149,567.1875 1225.8774,567.4844 L1225.8774,570.2031 Q1225.2524,569.625 1224.6586,569.3594 Q1224.0649,569.0781 1223.4399,569.0781 Q1222.0961,569.0781 1221.4086,570.1563 Q1220.7211,571.2188 1220.7211,573.3125 Q1220.7211,575.4063 1221.4086,576.4844 Q1222.0961,577.5469 1223.4399,577.5469 Q1224.0649,577.5469 1224.6586,577.2813 Q1225.2524,577 1225.8774,576.4219 L1225.8774,579.1406 Z " fill="#000000"/><text fill="#000000" font-family="sans-serif" font-size="14" lengthAdjust="spacing" textLength="84.1436" x="1242.4439" y="578.3467">book_status</text><line style="stroke:#181818;stroke-width:0.5;" x1="1184" x2="1353.4961" y1="589.5" y2="589.5"/><rect fill="transparent" height="6" style="stroke:#C82930;stroke-width:1;" width="6" x="1191" y="600.1484"/><text fill="#000000" font-family="sans-serif" font-size="14" lengthAdjust="spacing" textLength="94.6641" x="1203" y="606.4951">id_status : int</text><rect fill="transparent" height="6" style="stroke:#C82930;stroke-width:1;" width="6" x="1191" y="616.4453"/><text fill="#000000" font-family="sans-serif" font-size="14" lengthAdjust="spacing" textLength="145.4961" x="1203" y="622.792">libelle_status : string</text><line style="stroke:#181818;stroke-width:0.5;" x1="1184" x2="1353.4961" y1="630.0938" y2="630.0938"/></g><!--class books--><g id="elem_books"><rect codeLine="49" fill="#F1F1F1" height="227.2656" id="books" rx="2.5" ry="2.5" style="stroke:#181818;stroke-width:0.5;" width="250.4717" x="686.5" y="213"/><ellipse cx="786.7764" cy="229" fill="#ADD1B2" rx="11" ry="11" style="stroke:#181818;stroke-width:1;"/><path d="M789.7451,234.6406 Q789.167,234.9375 788.5264,235.0781 Q787.8857,235.2344 787.1826,235.2344 Q784.6826,235.2344 783.3545,233.5938 Q782.042,231.9375 782.042,228.8125 Q782.042,225.6875 783.3545,224.0313 Q784.6826,222.375 787.1826,222.375 Q787.8857,222.375 788.5264,222.5313 Q789.1826,222.6875 789.7451,222.9844 L789.7451,225.7031 Q789.1201,225.125 788.5264,224.8594 Q787.9326,224.5781 787.3076,224.5781 Q785.9639,224.5781 785.2764,225.6563 Q784.5889,226.7188 784.5889,228.8125 Q784.5889,230.9063 785.2764,231.9844 Q785.9639,233.0469 787.3076,233.0469 Q787.9326,233.0469 788.5264,232.7813 Q789.1201,232.5 789.7451,231.9219 L789.7451,234.6406 Z " fill="#000000"/><text fill="#000000" font-family="sans-serif" font-size="14" lengthAdjust="spacing" textLength="41.4189" x="807.2764" y="233.8467">books</text><line style="stroke:#181818;stroke-width:0.5;" x1="687.5" x2="935.9717" y1="245" y2="245"/><rect fill="transparent" height="6" style="stroke:#C82930;stroke-width:1;" width="6" x="694.5" y="255.6484"/><text fill="#000000" font-family="sans-serif" font-size="14" lengthAdjust="spacing" textLength="93.0645" x="706.5" y="261.9951">id_books : int</text><rect fill="transparent" height="6" style="stroke:#C82930;stroke-width:1;" width="6" x="694.5" y="271.9453"/><text fill="#000000" font-family="sans-serif" font-size="14" lengthAdjust="spacing" textLength="124.168" x="706.5" y="278.292">titre_book : string</text><rect fill="transparent" height="6" style="stroke:#C82930;stroke-width:1;" width="6" x="694.5" y="288.2422"/><text fill="#000000" font-family="sans-serif" font-size="14" lengthAdjust="spacing" textLength="113.0117" x="706.5" y="294.5889">prix_book : float</text><rect fill="transparent" height="6" style="stroke:#C82930;stroke-width:1;" width="6" x="694.5" y="304.5391"/><text fill="#000000" font-family="sans-serif" font-size="14" lengthAdjust="spacing" textLength="123.874" x="706.5" y="310.8857">isbn_book : string</text><rect fill="transparent" height="6" style="stroke:#C82930;stroke-width:1;" width="6" x="694.5" y="320.8359"/><text fill="#000000" font-family="sans-serif" font-size="14" lengthAdjust="spacing" textLength="177.1875" x="706.5" y="327.1826">quantite_initial_book : int</text><rect fill="transparent" height="6" style="stroke:#C82930;stroke-width:1;" width="6" x="694.5" y="337.1328"/><text fill="#000000" font-family="sans-serif" font-size="14" lengthAdjust="spacing" textLength="195.166" x="706.5" y="343.4795">quantite_achetee_book : int</text><rect fill="transparent" height="6" style="stroke:#C82930;stroke-width:1;" width="6" x="694.5" y="353.4297"/><text fill="#000000" font-family="sans-serif" font-size="14" lengthAdjust="spacing" textLength="224.4717" x="706.5" y="359.7764">quantite_commandes_book : int</text><ellipse cx="697.5" cy="372.7266" fill="transparent" rx="3" ry="3" style="stroke:#038048;stroke-width:1;"/><text fill="#000000" font-family="sans-serif" font-size="14" lengthAdjust="spacing" textLength="97.8291" x="706.5" y="376.0732">id_auteur : int</text><ellipse cx="697.5" cy="389.0234" fill="transparent" rx="3" ry="3" style="stroke:#038048;stroke-width:1;"/><text fill="#000000" font-family="sans-serif" font-size="14" lengthAdjust="spacing" textLength="92.3877" x="706.5" y="392.3701">id_genre : int</text><ellipse cx="697.5" cy="405.3203" fill="transparent" rx="3" ry="3" style="stroke:#038048;stroke-width:1;"/><text fill="#000000" font-family="sans-serif" font-size="14" lengthAdjust="spacing" textLength="94.6641" x="706.5" y="408.667">id_status : int</text><ellipse cx="697.5" cy="421.6172" fill="transparent" rx="3" ry="3" style="stroke:#038048;stroke-width:1;"/><text fill="#000000" font-family="sans-serif" font-size="14" lengthAdjust="spacing" textLength="139.2412" x="706.5" y="424.9639">id_status_order : int</text><line style="stroke:#181818;stroke-width:0.5;" x1="687.5" x2="935.9717" y1="432.2656" y2="432.2656"/></g><!--class promotions--><g id="elem_promotions"><rect codeLine="63" fill="#F1F1F1" height="113.1875" id="promotions" rx="2.5" ry="2.5" style="stroke:#181818;stroke-width:0.5;" width="214.7061" x="7" y="541.5"/><ellipse cx="70.3418" cy="557.5" fill="#ADD1B2" rx="11" ry="11" style="stroke:#181818;stroke-width:1;"/><path d="M73.3105,563.1406 Q72.7324,563.4375 72.0918,563.5781 Q71.4512,563.7344 70.748,563.7344 Q68.248,563.7344 66.9199,562.0938 Q65.6074,560.4375 65.6074,557.3125 Q65.6074,554.1875 66.9199,552.5313 Q68.248,550.875 70.748,550.875 Q71.4512,550.875 72.0918,551.0313 Q72.748,551.1875 73.3105,551.4844 L73.3105,554.2031 Q72.6855,553.625 72.0918,553.3594 Q71.498,553.0781 70.873,553.0781 Q69.5293,553.0781 68.8418,554.1563 Q68.1543,555.2188 68.1543,557.3125 Q68.1543,559.4063 68.8418,560.4844 Q69.5293,561.5469 70.873,561.5469 Q71.498,561.5469 72.0918,561.2813 Q72.6855,561 73.3105,560.4219 L73.3105,563.1406 Z " fill="#000000"/><text fill="#000000" font-family="sans-serif" font-size="14" lengthAdjust="spacing" textLength="79.5225" x="90.8418" y="562.3467">promotions</text><line style="stroke:#181818;stroke-width:0.5;" x1="8" x2="220.7061" y1="573.5" y2="573.5"/><rect fill="transparent" height="6" style="stroke:#C82930;stroke-width:1;" width="6" x="15" y="584.1484"/><text fill="#000000" font-family="sans-serif" font-size="14" lengthAdjust="spacing" textLength="123.874" x="27" y="590.4951">id_promotion : int</text><rect fill="transparent" height="6" style="stroke:#C82930;stroke-width:1;" width="6" x="15" y="600.4453"/><text fill="#000000" font-family="sans-serif" font-size="14" lengthAdjust="spacing" textLength="166.7969" x="27" y="606.792">code_promotion : string</text><rect fill="transparent" height="6" style="stroke:#C82930;stroke-width:1;" width="6" x="15" y="616.7422"/><text fill="#000000" font-family="sans-serif" font-size="14" lengthAdjust="spacing" textLength="188.7061" x="27" y="623.0889">pourcentage_remise : float</text><rect fill="transparent" height="6" style="stroke:#C82930;stroke-width:1;" width="6" x="15" y="633.0391"/><text fill="#000000" font-family="sans-serif" font-size="14" lengthAdjust="spacing" textLength="154.5811" x="27" y="639.3857">date_expiration : date</text><line style="stroke:#181818;stroke-width:0.5;" x1="8" x2="220.7061" y1="646.6875" y2="646.6875"/></g><!--class commandes_client--><g id="elem_commandes_client"><rect codeLine="70" fill="#F1F1F1" height="162.0781" id="commandes_client" rx="2.5" ry="2.5" style="stroke:#181818;stroke-width:0.5;" width="244.5107" x="182" y="245.5"/><ellipse cx="234.3872" cy="261.5" fill="#ADD1B2" rx="11" ry="11" style="stroke:#181818;stroke-width:1;"/><path d="M237.356,267.1406 Q236.7778,267.4375 236.1372,267.5781 Q235.4966,267.7344 234.7935,267.7344 Q232.2935,267.7344 230.9653,266.0938 Q229.6528,264.4375 229.6528,261.3125 Q229.6528,258.1875 230.9653,256.5313 Q232.2935,254.875 234.7935,254.875 Q235.4966,254.875 236.1372,255.0313 Q236.7935,255.1875 237.356,255.4844 L237.356,258.2031 Q236.731,257.625 236.1372,257.3594 Q235.5435,257.0781 234.9185,257.0781 Q233.5747,257.0781 232.8872,258.1563 Q232.1997,259.2188 232.1997,261.3125 Q232.1997,263.4063 232.8872,264.4844 Q233.5747,265.5469 234.9185,265.5469 Q235.5435,265.5469 236.1372,265.2813 Q236.731,265 237.356,264.4219 L237.356,267.1406 Z " fill="#000000"/><text fill="#000000" font-family="sans-serif" font-size="14" lengthAdjust="spacing" textLength="131.2363" x="254.8872" y="266.3467">commandes_client</text><line style="stroke:#181818;stroke-width:0.5;" x1="183" x2="425.5107" y1="277.5" y2="277.5"/><rect fill="transparent" height="6" style="stroke:#C82930;stroke-width:1;" width="6" x="190" y="288.1484"/><text fill="#000000" font-family="sans-serif" font-size="14" lengthAdjust="spacing" textLength="175.5879" x="202" y="294.4951">id_commande_client : int</text><rect fill="transparent" height="6" style="stroke:#C82930;stroke-width:1;" width="6" x="190" y="304.4453"/><text fill="#000000" font-family="sans-serif" font-size="14" lengthAdjust="spacing" textLength="218.5107" x="202" y="310.792">code_commande_client : string</text><ellipse cx="193" cy="323.7422" fill="transparent" rx="3" ry="3" style="stroke:#038048;stroke-width:1;"/><text fill="#000000" font-family="sans-serif" font-size="14" lengthAdjust="spacing" textLength="90.0977" x="202" y="327.0889">id_client : int</text><ellipse cx="193" cy="340.0391" fill="transparent" rx="3" ry="3" style="stroke:#038048;stroke-width:1;"/><text fill="#000000" font-family="sans-serif" font-size="14" lengthAdjust="spacing" textLength="123.874" x="202" y="343.3857">id_promotion : int</text><rect fill="transparent" height="6" style="stroke:#C82930;stroke-width:1;" width="6" x="190" y="353.3359"/><text fill="#000000" font-family="sans-serif" font-size="14" lengthAdjust="spacing" textLength="143.5889" x="202" y="359.6826">montant_total : float</text><rect fill="transparent" height="6" style="stroke:#C82930;stroke-width:1;" width="6" x="190" y="369.6328"/><text fill="#000000" font-family="sans-serif" font-size="14" lengthAdjust="spacing" textLength="142.8711" x="202" y="375.9795">status_livree : string</text><rect fill="transparent" height="6" style="stroke:#C82930;stroke-width:1;" width="6" x="190" y="385.9297"/><text fill="#000000" font-family="sans-serif" font-size="14" lengthAdjust="spacing" textLength="141.2168" x="202" y="392.2764">date_creation : date</text><line style="stroke:#181818;stroke-width:0.5;" x1="183" x2="425.5107" y1="399.5781" y2="399.5781"/></g><!--class order_items_client--><g id="elem_order_items_client"><rect codeLine="80" fill="#F1F1F1" height="129.4844" id="order_items_client" rx="2.5" ry="2.5" style="stroke:#181818;stroke-width:0.5;" width="201.5879" x="247.5" y="7"/><ellipse cx="280.7856" cy="23" fill="#ADD1B2" rx="11" ry="11" style="stroke:#181818;stroke-width:1;"/><path d="M283.7544,28.6406 Q283.1763,28.9375 282.5356,29.0781 Q281.895,29.2344 281.1919,29.2344 Q278.6919,29.2344 277.3638,27.5938 Q276.0513,25.9375 276.0513,22.8125 Q276.0513,19.6875 277.3638,18.0313 Q278.6919,16.375 281.1919,16.375 Q281.895,16.375 282.5356,16.5313 Q283.1919,16.6875 283.7544,16.9844 L283.7544,19.7031 Q283.1294,19.125 282.5356,18.8594 Q281.9419,18.5781 281.3169,18.5781 Q279.9731,18.5781 279.2856,19.6563 Q278.5981,20.7188 278.5981,22.8125 Q278.5981,24.9063 279.2856,25.9844 Q279.9731,27.0469 281.3169,27.0469 Q281.9419,27.0469 282.5356,26.7813 Q283.1294,26.5 283.7544,25.9219 L283.7544,28.6406 Z " fill="#000000"/><text fill="#000000" font-family="sans-serif" font-size="14" lengthAdjust="spacing" textLength="128.9531" x="298.8491" y="27.8467">order_items_client</text><line style="stroke:#181818;stroke-width:0.5;" x1="248.5" x2="448.0879" y1="39" y2="39"/><rect fill="transparent" height="6" style="stroke:#C82930;stroke-width:1;" width="6" x="255.5" y="49.6484"/><text fill="#000000" font-family="sans-serif" font-size="14" lengthAdjust="spacing" textLength="173.3047" x="267.5" y="55.9951">id_order_item_client : int</text><ellipse cx="258.5" cy="68.9453" fill="transparent" rx="3" ry="3" style="stroke:#038048;stroke-width:1;"/><text fill="#000000" font-family="sans-serif" font-size="14" lengthAdjust="spacing" textLength="175.5879" x="267.5" y="72.292">id_commande_client : int</text><ellipse cx="258.5" cy="85.2422" fill="transparent" rx="3" ry="3" style="stroke:#038048;stroke-width:1;"/><text fill="#000000" font-family="sans-serif" font-size="14" lengthAdjust="spacing" textLength="93.0645" x="267.5" y="88.5889">id_books : int</text><rect fill="transparent" height="6" style="stroke:#C82930;stroke-width:1;" width="6" x="255.5" y="98.5391"/><text fill="#000000" font-family="sans-serif" font-size="14" lengthAdjust="spacing" textLength="137.4365" x="267.5" y="104.8857">quantite_vente : int</text><rect fill="transparent" height="6" style="stroke:#C82930;stroke-width:1;" width="6" x="255.5" y="114.8359"/><text fill="#000000" font-family="sans-serif" font-size="14" lengthAdjust="spacing" textLength="132.8496" x="267.5" y="121.1826">prix_unitaire : float</text><line style="stroke:#181818;stroke-width:0.5;" x1="248.5" x2="448.0879" y1="128.4844" y2="128.4844"/></g><!--class reviews--><g id="elem_reviews"><rect codeLine="88" fill="#F1F1F1" height="129.4844" id="reviews" rx="2.5" ry="2.5" style="stroke:#181818;stroke-width:0.5;" width="173.1572" x="501" y="7"/><ellipse cx="556.3779" cy="23" fill="#ADD1B2" rx="11" ry="11" style="stroke:#181818;stroke-width:1;"/><path d="M559.3467,28.6406 Q558.7686,28.9375 558.1279,29.0781 Q557.4873,29.2344 556.7842,29.2344 Q554.2842,29.2344 552.9561,27.5938 Q551.6436,25.9375 551.6436,22.8125 Q551.6436,19.6875 552.9561,18.0313 Q554.2842,16.375 556.7842,16.375 Q557.4873,16.375 558.1279,16.5313 Q558.7842,16.6875 559.3467,16.9844 L559.3467,19.7031 Q558.7217,19.125 558.1279,18.8594 Q557.5342,18.5781 556.9092,18.5781 Q555.5654,18.5781 554.8779,19.6563 Q554.1904,20.7188 554.1904,22.8125 Q554.1904,24.9063 554.8779,25.9844 Q555.5654,27.0469 556.9092,27.0469 Q557.5342,27.0469 558.1279,26.7813 Q558.7217,26.5 559.3467,25.9219 L559.3467,28.6406 Z " fill="#000000"/><text fill="#000000" font-family="sans-serif" font-size="14" lengthAdjust="spacing" textLength="53.9014" x="576.8779" y="27.8467">reviews</text><line style="stroke:#181818;stroke-width:0.5;" x1="502" x2="673.1572" y1="39" y2="39"/><rect fill="transparent" height="6" style="stroke:#C82930;stroke-width:1;" width="6" x="509" y="49.6484"/><text fill="#000000" font-family="sans-serif" font-size="14" lengthAdjust="spacing" textLength="98.2529" x="521" y="55.9951">id_review : int</text><ellipse cx="512" cy="68.9453" fill="transparent" rx="3" ry="3" style="stroke:#038048;stroke-width:1;"/><text fill="#000000" font-family="sans-serif" font-size="14" lengthAdjust="spacing" textLength="90.0977" x="521" y="72.292">id_client : int</text><ellipse cx="512" cy="85.2422" fill="transparent" rx="3" ry="3" style="stroke:#038048;stroke-width:1;"/><text fill="#000000" font-family="sans-serif" font-size="14" lengthAdjust="spacing" textLength="93.0645" x="521" y="88.5889">id_books : int</text><rect fill="transparent" height="6" style="stroke:#C82930;stroke-width:1;" width="6" x="509" y="98.5391"/><text fill="#000000" font-family="sans-serif" font-size="14" lengthAdjust="spacing" textLength="63.4102" x="521" y="104.8857">note : int</text><rect fill="transparent" height="6" style="stroke:#C82930;stroke-width:1;" width="6" x="509" y="114.8359"/><text fill="#000000" font-family="sans-serif" font-size="14" lengthAdjust="spacing" textLength="147.1572" x="521" y="121.1826">commentaire : string</text><line style="stroke:#181818;stroke-width:0.5;" x1="502" x2="673.1572" y1="128.4844" y2="128.4844"/></g><!--class fournisseur--><g id="elem_fournisseur"><rect codeLine="96" fill="#F1F1F1" height="129.4844" id="fournisseur" rx="2.5" ry="2.5" style="stroke:#181818;stroke-width:0.5;" width="235.9385" x="1389.5" y="533.5"/><ellipse cx="1463.8613" cy="549.5" fill="#ADD1B2" rx="11" ry="11" style="stroke:#181818;stroke-width:1;"/><path d="M1466.8301,555.1406 Q1466.252,555.4375 1465.6113,555.5781 Q1464.9707,555.7344 1464.2676,555.7344 Q1461.7676,555.7344 1460.4395,554.0938 Q1459.127,552.4375 1459.127,549.3125 Q1459.127,546.1875 1460.4395,544.5313 Q1461.7676,542.875 1464.2676,542.875 Q1464.9707,542.875 1465.6113,543.0313 Q1466.2676,543.1875 1466.8301,543.4844 L1466.8301,546.2031 Q1466.2051,545.625 1465.6113,545.3594 Q1465.0176,545.0781 1464.3926,545.0781 Q1463.0488,545.0781 1462.3613,546.1563 Q1461.6738,547.2188 1461.6738,549.3125 Q1461.6738,551.4063 1462.3613,552.4844 Q1463.0488,553.5469 1464.3926,553.5469 Q1465.0176,553.5469 1465.6113,553.2813 Q1466.2051,553 1466.8301,552.4219 L1466.8301,555.1406 Z " fill="#000000"/><text fill="#000000" font-family="sans-serif" font-size="14" lengthAdjust="spacing" textLength="78.7158" x="1484.3613" y="554.3467">fournisseur</text><line style="stroke:#181818;stroke-width:0.5;" x1="1390.5" x2="1624.4385" y1="565.5" y2="565.5"/><rect fill="transparent" height="6" style="stroke:#C82930;stroke-width:1;" width="6" x="1397.5" y="576.1484"/><text fill="#000000" font-family="sans-serif" font-size="14" lengthAdjust="spacing" textLength="130.3613" x="1409.5" y="582.4951">id_fournisseur : int</text><rect fill="transparent" height="6" style="stroke:#C82930;stroke-width:1;" width="6" x="1397.5" y="592.4453"/><text fill="#000000" font-family="sans-serif" font-size="14" lengthAdjust="spacing" textLength="170.5977" x="1409.5" y="598.792">nom_fournisseur : string</text><rect fill="transparent" height="6" style="stroke:#C82930;stroke-width:1;" width="6" x="1397.5" y="608.7422"/><text fill="#000000" font-family="sans-serif" font-size="14" lengthAdjust="spacing" textLength="178.1309" x="1409.5" y="615.0889">email_fournisseur : string</text><rect fill="transparent" height="6" style="stroke:#C82930;stroke-width:1;" width="6" x="1397.5" y="625.0391"/><text fill="#000000" font-family="sans-serif" font-size="14" lengthAdjust="spacing" textLength="209.9385" x="1409.5" y="631.3857">telephone_fournisseur : string</text><rect fill="transparent" height="6" style="stroke:#C82930;stroke-width:1;" width="6" x="1397.5" y="641.3359"/><text fill="#000000" font-family="sans-serif" font-size="14" lengthAdjust="spacing" textLength="194.8311" x="1409.5" y="647.6826">address_fournisseur : string</text><line style="stroke:#181818;stroke-width:0.5;" x1="1390.5" x2="1624.4385" y1="654.9844" y2="654.9844"/></g><!--class commandes_fournisseur--><g id="elem_commandes_fournisseur"><rect codeLine="104" fill="#F1F1F1" height="129.4844" id="commandes_fournisseur" rx="2.5" ry="2.5" style="stroke:#181818;stroke-width:0.5;" width="284.7744" x="1228" y="262"/><ellipse cx="1280.3872" cy="278" fill="#ADD1B2" rx="11" ry="11" style="stroke:#181818;stroke-width:1;"/><path d="M1283.356,283.6406 Q1282.7778,283.9375 1282.1372,284.0781 Q1281.4966,284.2344 1280.7935,284.2344 Q1278.2935,284.2344 1276.9653,282.5938 Q1275.6528,280.9375 1275.6528,277.8125 Q1275.6528,274.6875 1276.9653,273.0313 Q1278.2935,271.375 1280.7935,271.375 Q1281.4966,271.375 1282.1372,271.5313 Q1282.7935,271.6875 1283.356,271.9844 L1283.356,274.7031 Q1282.731,274.125 1282.1372,273.8594 Q1281.5435,273.5781 1280.9185,273.5781 Q1279.5747,273.5781 1278.8872,274.6563 Q1278.1997,275.7188 1278.1997,277.8125 Q1278.1997,279.9063 1278.8872,280.9844 Q1279.5747,282.0469 1280.9185,282.0469 Q1281.5435,282.0469 1282.1372,281.7813 Q1282.731,281.5 1283.356,280.9219 L1283.356,283.6406 Z " fill="#000000"/><text fill="#000000" font-family="sans-serif" font-size="14" lengthAdjust="spacing" textLength="171.5" x="1300.8872" y="282.8467">commandes_fournisseur</text><line style="stroke:#181818;stroke-width:0.5;" x1="1229" x2="1511.7744" y1="294" y2="294"/><rect fill="transparent" height="6" style="stroke:#C82930;stroke-width:1;" width="6" x="1236" y="304.6484"/><text fill="#000000" font-family="sans-serif" font-size="14" lengthAdjust="spacing" textLength="215.8516" x="1248" y="310.9951">id_commande_fournisseur : int</text><rect fill="transparent" height="6" style="stroke:#C82930;stroke-width:1;" width="6" x="1236" y="320.9453"/><text fill="#000000" font-family="sans-serif" font-size="14" lengthAdjust="spacing" textLength="258.7744" x="1248" y="327.292">code_commande_fournisseur : string</text><ellipse cx="1239" cy="340.2422" fill="transparent" rx="3" ry="3" style="stroke:#038048;stroke-width:1;"/><text fill="#000000" font-family="sans-serif" font-size="14" lengthAdjust="spacing" textLength="130.3613" x="1248" y="343.5889">id_fournisseur : int</text><rect fill="transparent" height="6" style="stroke:#C82930;stroke-width:1;" width="6" x="1236" y="353.5391"/><text fill="#000000" font-family="sans-serif" font-size="14" lengthAdjust="spacing" textLength="143.5889" x="1248" y="359.8857">montant_total : float</text><rect fill="transparent" height="6" style="stroke:#C82930;stroke-width:1;" width="6" x="1236" y="369.8359"/><text fill="#000000" font-family="sans-serif" font-size="14" lengthAdjust="spacing" textLength="141.2168" x="1248" y="376.1826">date_creation : date</text><line style="stroke:#181818;stroke-width:0.5;" x1="1229" x2="1511.7744" y1="383.4844" y2="383.4844"/></g><!--class order_items_fournisseur--><g id="elem_order_items_fournisseur"><rect codeLine="112" fill="#F1F1F1" height="129.4844" id="order_items_fournisseur" rx="2.5" ry="2.5" style="stroke:#181818;stroke-width:0.5;" width="246.8623" x="923" y="7"/><ellipse cx="958.5405" cy="23" fill="#ADD1B2" rx="11" ry="11" style="stroke:#181818;stroke-width:1;"/><path d="M961.5092,28.6406 Q960.9311,28.9375 960.2905,29.0781 Q959.6499,29.2344 958.9467,29.2344 Q956.4467,29.2344 955.1186,27.5938 Q953.8061,25.9375 953.8061,22.8125 Q953.8061,19.6875 955.1186,18.0313 Q956.4467,16.375 958.9467,16.375 Q959.6499,16.375 960.2905,16.5313 Q960.9467,16.6875 961.5092,16.9844 L961.5092,19.7031 Q960.8842,19.125 960.2905,18.8594 Q959.6967,18.5781 959.0717,18.5781 Q957.728,18.5781 957.0405,19.6563 Q956.353,20.7188 956.353,22.8125 Q956.353,24.9063 957.0405,25.9844 Q957.728,27.0469 959.0717,27.0469 Q959.6967,27.0469 960.2905,26.7813 Q960.8842,26.5 961.5092,25.9219 L961.5092,28.6406 Z " fill="#000000"/><text fill="#000000" font-family="sans-serif" font-size="14" lengthAdjust="spacing" textLength="169.2168" x="977.105" y="27.8467">order_items_fournisseur</text><line style="stroke:#181818;stroke-width:0.5;" x1="924" x2="1168.8623" y1="39" y2="39"/><rect fill="transparent" height="6" style="stroke:#C82930;stroke-width:1;" width="6" x="931" y="49.6484"/><text fill="#000000" font-family="sans-serif" font-size="14" lengthAdjust="spacing" textLength="220.8623" x="943" y="55.9951">id_order_items_fournisseur : int</text><ellipse cx="934" cy="68.9453" fill="transparent" rx="3" ry="3" style="stroke:#038048;stroke-width:1;"/><text fill="#000000" font-family="sans-serif" font-size="14" lengthAdjust="spacing" textLength="215.8516" x="943" y="72.292">id_commande_fournisseur : int</text><ellipse cx="934" cy="85.2422" fill="transparent" rx="3" ry="3" style="stroke:#038048;stroke-width:1;"/><text fill="#000000" font-family="sans-serif" font-size="14" lengthAdjust="spacing" textLength="93.0645" x="943" y="88.5889">id_books : int</text><rect fill="transparent" height="6" style="stroke:#C82930;stroke-width:1;" width="6" x="931" y="98.5391"/><text fill="#000000" font-family="sans-serif" font-size="14" lengthAdjust="spacing" textLength="154.041" x="943" y="104.8857">quantite_achetee : int</text><rect fill="transparent" height="6" style="stroke:#C82930;stroke-width:1;" width="6" x="931" y="114.8359"/><text fill="#000000" font-family="sans-serif" font-size="14" lengthAdjust="spacing" textLength="132.8496" x="943" y="121.1826">prix_unitaire : float</text><line style="stroke:#181818;stroke-width:0.5;" x1="924" x2="1168.8623" y1="128.4844" y2="128.4844"/></g><!--link clients to users--><g id="link_clients_users"><path codeLine="121" d="M363.5,679.09 C363.5,704.11 363.5,725.55 363.5,749.98 " fill="transparent" id="clients-to-users" style="stroke:#181818;stroke-width:1;"/><polygon fill="#181818" points="363.5,755.98,367.5,746.98,363.5,750.98,359.5,746.98,363.5,755.98" style="stroke:#181818;stroke-width:1;"/><text fill="#000000" font-family="sans-serif" font-size="13" lengthAdjust="spacing" textLength="46.7188" x="364.5" y="722.0669">id_user</text></g><!--link users to roles--><g id="link_users_roles"><path codeLine="122" d="M363.5,902.07 C363.5,928.16 363.5,950.65 363.5,972.92 " fill="transparent" id="users-to-roles" style="stroke:#181818;stroke-width:1;"/><polygon fill="#181818" points="363.5,978.92,367.5,969.92,363.5,973.92,359.5,969.92,363.5,978.92" style="stroke:#181818;stroke-width:1;"/><text fill="#000000" font-family="sans-serif" font-size="13" lengthAdjust="spacing" textLength="43.272" x="364.5" y="945.0669">id_role</text></g><!--link books to auteur--><g id="link_books_auteur"><path codeLine="123" d="M722.4,440.23 C694.82,475.14 669.3514,507.3635 646.2314,536.6035 " fill="transparent" id="books-to-auteur" style="stroke:#181818;stroke-width:1;"/><polygon fill="#181818" points="642.51,541.31,651.2298,536.7312,645.6112,537.3879,644.9545,531.7693,642.51,541.31" style="stroke:#181818;stroke-width:1;"/><text fill="#000000" font-family="sans-serif" font-size="13" lengthAdjust="spacing" textLength="61.2485" x="700.5" y="483.0669">id_auteur</text></g><!--link books to genres--><g id="link_books_genres"><path codeLine="124" d="M811.5,440.23 C811.5,481.92 811.5,520.49 811.5,551.41 " fill="transparent" id="books-to-genres" style="stroke:#181818;stroke-width:1;"/><polygon fill="#181818" points="811.5,557.41,815.5,548.41,811.5,552.41,807.5,548.41,811.5,557.41" style="stroke:#181818;stroke-width:1;"/><text fill="#000000" font-family="sans-serif" font-size="13" lengthAdjust="spacing" textLength="56.1958" x="812.5" y="483.0669">id_genre</text></g><!--link books to book_status--><g id="link_books_book_status"><path codeLine="125" d="M936.85,388.48 C1005.62,423.49 1091.5,469.78 1164.5,517 C1183.44,529.25 1198.5541,540.2933 1215.7741,553.7633 " fill="transparent" id="books-to-book_status" style="stroke:#181818;stroke-width:1;"/><polygon fill="#181818" points="1220.5,557.46,1215.8756,548.7643,1216.5618,554.3794,1210.9467,555.0655,1220.5,557.46" style="stroke:#181818;stroke-width:1;"/><text fill="#000000" font-family="sans-serif" font-size="13" lengthAdjust="spacing" textLength="58.3096" x="1110.5" y="483.0669">id_status</text></g><!--link books to book_status_order--><g id="link_books_book_status_order"><path codeLine="126" d="M906.87,440.23 C942.14,481.92 975.9746,521.9095 1002.1346,552.8295 " fill="transparent" id="books-to-book_status_order" style="stroke:#181818;stroke-width:1;"/><polygon fill="#181818" points="1006.01,557.41,1003.2506,547.9556,1002.7805,553.5929,997.1432,553.1228,1006.01,557.41" style="stroke:#181818;stroke-width:1;"/><text fill="#000000" font-family="sans-serif" font-size="13" lengthAdjust="spacing" textLength="99.7026" x="947.5" y="483.0669">id_status_order</text></g><!--link commandes_client to clients--><g id="link_commandes_client_clients"><path codeLine="127" d="M322.04,407.63 C329.58,442.07 337.0975,476.3887 344.6375,510.8487 " fill="transparent" id="commandes_client-to-clients" style="stroke:#181818;stroke-width:1;"/><polygon fill="#181818" points="345.92,516.71,347.9038,507.063,344.8513,511.8256,340.0887,508.773,345.92,516.71" style="stroke:#181818;stroke-width:1;"/><text fill="#000000" font-family="sans-serif" font-size="13" lengthAdjust="spacing" textLength="54.0693" x="340.5" y="483.0669">id_client</text></g><!--link commandes_client to promotions--><g id="link_commandes_client_promotions"><path codeLine="128" d="M248.01,407.63 C217.71,450.61 184.5776,497.6064 157.3676,536.1964 " fill="transparent" id="commandes_client-to-promotions" style="stroke:#181818;stroke-width:1;"/><polygon fill="#181818" points="153.91,541.1,162.3654,536.0496,156.7913,537.0137,155.8273,531.4396,153.91,541.1" style="stroke:#181818;stroke-width:1;"/><text fill="#000000" font-family="sans-serif" font-size="13" lengthAdjust="spacing" textLength="85.4331" x="205.5" y="483.0669">id_promotion</text></g><!--link order_items_client to commandes_client--><g id="link_order_items_client_commandes_client"><path codeLine="129" d="M311.67,136.15 C307.48,145.88 303.87,156.01 301.5,166 C295.49,191.33 294.0891,213.5637 294.9891,239.1537 " fill="transparent" id="order_items_client-to-commandes_client" style="stroke:#181818;stroke-width:1;"/><polygon fill="#181818" points="295.2,245.15,298.8812,236.015,295.0243,240.1531,290.8861,236.2962,295.2,245.15" style="stroke:#181818;stroke-width:1;"/><text fill="#000000" font-family="sans-serif" font-size="13" lengthAdjust="spacing" textLength="133.4531" x="302.5" y="179.0669">id_commande_client</text></g><!--link order_items_client to books--><g id="link_order_items_client_books"><path codeLine="130" d="M449.69,121.86 C502.29,148.07 567.37,181.32 624.5,213 C644.71,224.21 660.745,233.4067 681.315,245.5667 " fill="transparent" id="order_items_client-to-books" style="stroke:#181818;stroke-width:1;"/><polygon fill="#181818" points="686.48,248.62,680.768,240.5967,682.1758,246.0756,676.6969,247.4834,686.48,248.62" style="stroke:#181818;stroke-width:1;"/><text fill="#000000" font-family="sans-serif" font-size="13" lengthAdjust="spacing" textLength="56.8242" x="566.5" y="179.0669">id_books</text></g><!--link reviews to clients--><g id="link_reviews_clients"><path codeLine="131" d="M565.07,136.08 C538.46,210.02 491.72,335.31 444.5,440 C433.09,465.3 422.3825,487.0138 409.7425,511.3838 " fill="transparent" id="reviews-to-clients" style="stroke:#181818;stroke-width:1;"/><polygon fill="#181818" points="406.98,516.71,414.6746,510.5624,409.2821,512.2715,407.573,506.879,406.98,516.71" style="stroke:#181818;stroke-width:1;"/><text fill="#000000" font-family="sans-serif" font-size="13" lengthAdjust="spacing" textLength="54.0693" x="537.5" y="331.0669">id_client</text></g><!--link reviews to books--><g id="link_reviews_books"><path codeLine="132" d="M643.74,136.02 C664.34,159.29 684.3532,181.8873 707.6332,208.1873 " fill="transparent" id="reviews-to-books" style="stroke:#181818;stroke-width:1;"/><polygon fill="#181818" points="711.61,212.68,708.6399,203.2897,708.296,208.936,702.6496,208.5921,711.61,212.68" style="stroke:#181818;stroke-width:1;"/><text fill="#000000" font-family="sans-serif" font-size="13" lengthAdjust="spacing" textLength="56.8242" x="680.5" y="179.0669">id_books</text></g><!--link commandes_fournisseur to fournisseur--><g id="link_commandes_fournisseur_fournisseur"><path codeLine="133" d="M1402.79,391.03 C1424.63,433.98 1450.6309,485.1215 1472.4709,528.0815 " fill="transparent" id="commandes_fournisseur-to-fournisseur" style="stroke:#181818;stroke-width:1;"/><polygon fill="#181818" points="1475.19,533.43,1474.6771,523.5945,1472.9241,528.9729,1467.5457,527.2199,1475.19,533.43" style="stroke:#181818;stroke-width:1;"/><text fill="#000000" font-family="sans-serif" font-size="13" lengthAdjust="spacing" textLength="91.457" x="1452.5" y="483.0669">id_fournisseur</text></g><!--link order_items_fournisseur to commandes_fournisseur--><g id="link_order_items_fournisseur_commandes_fournisseur"><path codeLine="134" d="M1127.84,136.02 C1177.14,174.51 1235.0908,219.7675 1284.4008,258.2675 " fill="transparent" id="order_items_fournisseur-to-commandes_fournisseur" style="stroke:#181818;stroke-width:1;"/><polygon fill="#181818" points="1289.13,261.96,1284.4978,253.2685,1285.189,258.8829,1279.5745,259.5741,1289.13,261.96" style="stroke:#181818;stroke-width:1;"/><text fill="#000000" font-family="sans-serif" font-size="13" lengthAdjust="spacing" textLength="170.8408" x="1180.5" y="179.0669">id_commande_fournisseur</text></g><!--link order_items_fournisseur to books--><g id="link_order_items_fournisseur_books"><path codeLine="135" d="M987.5,136.02 C965.89,159.29 944.8026,181.9831 920.3826,208.2831 " fill="transparent" id="order_items_fournisseur-to-books" style="stroke:#181818;stroke-width:1;"/><polygon fill="#181818" points="916.3,212.68,925.3551,208.8064,919.7021,209.0159,919.4926,203.363,916.3,212.68" style="stroke:#181818;stroke-width:1;"/><text fill="#000000" font-family="sans-serif" font-size="13" lengthAdjust="spacing" textLength="56.8242" x="958.5" y="179.0669">id_books</text></g><!--SRC=[ZLPDavmW4BtxAxXjKkxy0G-v9CVaageSSh8ORPskGPW0pinMAlyzW2AWiBKtVVtXwwPvxGlvzUCx-SgeKkGRqb7IYGn2aj_N4yEpfFADV99mHmKzUQ2-4FE8PsIetyY0Jr2lXDC9-VXAAEy94oDsfBj0TrMVgwfpUJk6mBKYVoj2JWJxTW58Gv1hXt4n1L1fQV8v_2QXPDB0u7OH7B9MslSIbChQkWiEWuIM3WD56SKFJ53BfxOSPmLoPVZF5sAng8p8nI8mKMGx_YRg8MIVgoh5Te2Z80M3FGMBHHGY5ukO8mF6mCDhkYsOpXfc6QBNz_GSDl1u3ZdJ6SK1tpuu0fSnNVUUuUlnVVnPY6khDDMpQaqR8UAUeCUCE_CxYVSfYyaAQQ84osk8rwZDV5bqtqvyUjWFdKcWpZpZ_6Uct2I25ZbgfCox-8ziTcgkdGOesZinJUQEWaezwimarCV3gZCTgWi7iVNd9iKaD0eUDMd38ewTw24nnCqIi-pC1QMZcMkOZ18bNUkfAGsUDvHqZRL8e12gNkzvKA7LSfGZH-TeJc_dBgekrJO9mvthLWjDMK9zxHp3kmH8YtPLTHBoDRbUj-PCfsDLmPPbM2gwpitlDZftunhVMpV0ivb7Aw1RJK6apCA0HonJ3jWn-G01BfBFMl9s4Z0h5eCP58vA9H8NWwdEfPQezqx7o-QmU8ekVlja7JAJcMM-dLI-X7H62rJgSWlAO_dnsSloBZdanx3eKPp5LUO-Ceqlv2SmLuQwu4qjFp3k5yMKRA9XbEO_flB_9wVJbtN5DtwzLykxjIoRj_5Rjre8MaiGJo-aaN5TWSscg94jta9DqDAyHr3OL7EhWyBPG5zJ4wvQtZ6Iw2QHi2gZCYxpFakJqPLIy7Qgwm5NNYfAd6Fx8JX_WwphRgoIIr2L9ZIjxf0YDxFlvjhp_Gy0]--></g></svg>