<svg xmlns="http://www.w3.org/2000/svg" xmlns:xlink="http://www.w3.org/1999/xlink" contentStyleType="text/css" data-diagram-type="SEQUENCE" height="706px" preserveAspectRatio="none" style="width:722px;height:706px;background:#FFFFFF;" version="1.1" viewBox="0 0 722 706" width="722px" zoomAndPan="magnify"><defs/><g><g><title>Utilisateur</title><rect fill="#000000" fill-opacity="0.00000" height="544.3906" width="8" x="40.0049" y="81.2969"/><line style="stroke:#181818;stroke-width:0.5;stroke-dasharray:5.0,5.0;" x1="44" x2="44" y1="81.2969" y2="625.6875"/></g><g><title>Administrateur</title><rect fill="#000000" fill-opacity="0.00000" height="544.3906" width="8" x="144.3115" y="81.2969"/><line style="stroke:#181818;stroke-width:0.5;stroke-dasharray:5.0,5.0;" x1="148.0098" x2="148.0098" y1="81.2969" y2="625.6875"/></g><g><title>Assistant Admin</title><rect fill="#000000" fill-opacity="0.00000" height="544.3906" width="8" x="389.9526" y="81.2969"/><line style="stroke:#181818;stroke-width:0.5;stroke-dasharray:5.0,5.0;" x1="393.4058" x2="393.4058" y1="81.2969" y2="625.6875"/></g><g><title>Client</title><rect fill="#000000" fill-opacity="0.00000" height="544.3906" width="8" x="482.7646" y="81.2969"/><line style="stroke:#181818;stroke-width:0.5;stroke-dasharray:5.0,5.0;" x1="486.4995" x2="486.4995" y1="81.2969" y2="625.6875"/></g><g><title>Système Bibliothèque</title><rect fill="#000000" fill-opacity="0.00000" height="544.3906" width="8" x="637.5327" y="81.2969"/><line style="stroke:#181818;stroke-width:0.5;stroke-dasharray:5.0,5.0;" x1="640.8608" x2="640.8608" y1="81.2969" y2="625.6875"/></g><g class="participant participant-head" data-participant="User"><text fill="#000000" font-family="sans-serif" font-size="14" lengthAdjust="spacing" textLength="72.0098" x="5" y="77.9951">Utilisateur</text><ellipse cx="44.0049" cy="13.5" fill="#E2E2F0" rx="8" ry="8" style="stroke:#181818;stroke-width:0.5;"/><path d="M44.0049,21.5 L44.0049,48.5 M31.0049,29.5 L57.0049,29.5 M44.0049,48.5 L31.0049,63.5 M44.0049,48.5 L57.0049,63.5" fill="none" style="stroke:#181818;stroke-width:0.5;"/></g><g class="participant participant-tail" data-participant="User"><text fill="#000000" font-family="sans-serif" font-size="14" lengthAdjust="spacing" textLength="72.0098" x="5" y="637.6826">Utilisateur</text><ellipse cx="44.0049" cy="649.4844" fill="#E2E2F0" rx="8" ry="8" style="stroke:#181818;stroke-width:0.5;"/><path d="M44.0049,657.4844 L44.0049,684.4844 M31.0049,665.4844 L57.0049,665.4844 M44.0049,684.4844 L31.0049,699.4844 M44.0049,684.4844 L57.0049,699.4844" fill="none" style="stroke:#181818;stroke-width:0.5;"/></g><g class="participant participant-head" data-participant="Admin"><text fill="#000000" font-family="sans-serif" font-size="14" lengthAdjust="spacing" textLength="104.6035" x="93.0098" y="77.9951">Administrateur</text><ellipse cx="148.3115" cy="13.5" fill="#E2E2F0" rx="8" ry="8" style="stroke:#181818;stroke-width:0.5;"/><path d="M148.3115,21.5 L148.3115,48.5 M135.3115,29.5 L161.3115,29.5 M148.3115,48.5 L135.3115,63.5 M148.3115,48.5 L161.3115,63.5" fill="none" style="stroke:#181818;stroke-width:0.5;"/></g><g class="participant participant-tail" data-participant="Admin"><text fill="#000000" font-family="sans-serif" font-size="14" lengthAdjust="spacing" textLength="104.6035" x="93.0098" y="637.6826">Administrateur</text><ellipse cx="148.3115" cy="649.4844" fill="#E2E2F0" rx="8" ry="8" style="stroke:#181818;stroke-width:0.5;"/><path d="M148.3115,657.4844 L148.3115,684.4844 M135.3115,665.4844 L161.3115,665.4844 M148.3115,684.4844 L135.3115,699.4844 M148.3115,684.4844 L161.3115,699.4844" fill="none" style="stroke:#181818;stroke-width:0.5;"/></g><g class="participant participant-head" data-participant="Assistant"><text fill="#000000" font-family="sans-serif" font-size="14" lengthAdjust="spacing" textLength="113.0938" x="334.4058" y="77.9951">Assistant Admin</text><ellipse cx="393.9526" cy="13.5" fill="#E2E2F0" rx="8" ry="8" style="stroke:#181818;stroke-width:0.5;"/><path d="M393.9526,21.5 L393.9526,48.5 M380.9526,29.5 L406.9526,29.5 M393.9526,48.5 L380.9526,63.5 M393.9526,48.5 L406.9526,63.5" fill="none" style="stroke:#181818;stroke-width:0.5;"/></g><g class="participant participant-tail" data-participant="Assistant"><text fill="#000000" font-family="sans-serif" font-size="14" lengthAdjust="spacing" textLength="113.0938" x="334.4058" y="637.6826">Assistant Admin</text><ellipse cx="393.9526" cy="649.4844" fill="#E2E2F0" rx="8" ry="8" style="stroke:#181818;stroke-width:0.5;"/><path d="M393.9526,657.4844 L393.9526,684.4844 M380.9526,665.4844 L406.9526,665.4844 M393.9526,684.4844 L380.9526,699.4844 M393.9526,684.4844 L406.9526,699.4844" fill="none" style="stroke:#181818;stroke-width:0.5;"/></g><g class="participant participant-head" data-participant="Client"><text fill="#000000" font-family="sans-serif" font-size="14" lengthAdjust="spacing" textLength="40.5303" x="463.4995" y="77.9951">Client</text><ellipse cx="486.7646" cy="13.5" fill="#E2E2F0" rx="8" ry="8" style="stroke:#181818;stroke-width:0.5;"/><path d="M486.7646,21.5 L486.7646,48.5 M473.7646,29.5 L499.7646,29.5 M486.7646,48.5 L473.7646,63.5 M486.7646,48.5 L499.7646,63.5" fill="none" style="stroke:#181818;stroke-width:0.5;"/></g><g class="participant participant-tail" data-participant="Client"><text fill="#000000" font-family="sans-serif" font-size="14" lengthAdjust="spacing" textLength="40.5303" x="463.4995" y="637.6826">Client</text><ellipse cx="486.7646" cy="649.4844" fill="#E2E2F0" rx="8" ry="8" style="stroke:#181818;stroke-width:0.5;"/><path d="M486.7646,657.4844 L486.7646,684.4844 M473.7646,665.4844 L499.7646,665.4844 M486.7646,684.4844 L473.7646,699.4844 M486.7646,684.4844 L499.7646,699.4844" fill="none" style="stroke:#181818;stroke-width:0.5;"/></g><g class="participant participant-head" data-participant="System"><text fill="#000000" font-family="sans-serif" font-size="14" lengthAdjust="spacing" textLength="153.3438" x="561.8608" y="77.9951">Système Bibliothèque</text><ellipse cx="641.5327" cy="49" fill="#E2E2F0" rx="12" ry="12" style="stroke:#181818;stroke-width:0.5;"/><line style="stroke:#181818;stroke-width:0.5;" x1="629.5327" x2="653.5327" y1="63" y2="63"/></g><g class="participant participant-tail" data-participant="System"><text fill="#000000" font-family="sans-serif" font-size="14" lengthAdjust="spacing" textLength="153.3438" x="561.8608" y="637.6826">Système Bibliothèque</text><ellipse cx="641.5327" cy="656.9844" fill="#E2E2F0" rx="12" ry="12" style="stroke:#181818;stroke-width:0.5;"/><line style="stroke:#181818;stroke-width:0.5;" x1="629.5327" x2="653.5327" y1="670.9844" y2="670.9844"/></g><g class="message" data-participant-1="User" data-participant-2="System"><polygon fill="#181818" points="629.5327,108.4297,639.5327,112.4297,629.5327,116.4297,633.5327,112.4297" style="stroke:#181818;stroke-width:1;"/><line style="stroke:#181818;stroke-width:1;" x1="44.0049" x2="635.5327" y1="112.4297" y2="112.4297"/><text fill="#000000" font-family="sans-serif" font-size="13" lengthAdjust="spacing" textLength="109.6177" x="51.0049" y="107.3638">Créer un compte</text></g><g class="message" data-participant-1="System" data-participant-2="User"><polygon fill="#181818" points="55.0049,137.5625,45.0049,141.5625,55.0049,145.5625,51.0049,141.5625" style="stroke:#181818;stroke-width:1;"/><line style="stroke:#181818;stroke-width:1;" x1="49.0049" x2="640.5327" y1="141.5625" y2="141.5625"/><text fill="#000000" font-family="sans-serif" font-size="13" lengthAdjust="spacing" textLength="150.6743" x="61.0049" y="136.4966">Confirmer compte créé</text></g><g class="message" data-participant-1="User" data-participant-2="System"><polygon fill="#181818" points="629.5327,166.6953,639.5327,170.6953,629.5327,174.6953,633.5327,170.6953" style="stroke:#181818;stroke-width:1;"/><line style="stroke:#181818;stroke-width:1;" x1="44.0049" x2="635.5327" y1="170.6953" y2="170.6953"/><text fill="#000000" font-family="sans-serif" font-size="13" lengthAdjust="spacing" textLength="85.5474" x="51.0049" y="165.6294">Se connecter</text></g><g class="message" data-participant-1="System" data-participant-2="User"><polygon fill="#181818" points="55.0049,195.8281,45.0049,199.8281,55.0049,203.8281,51.0049,199.8281" style="stroke:#181818;stroke-width:1;"/><line style="stroke:#181818;stroke-width:1;" x1="49.0049" x2="640.5327" y1="199.8281" y2="199.8281"/><text fill="#000000" font-family="sans-serif" font-size="13" lengthAdjust="spacing" textLength="136.0176" x="61.0049" y="194.7622">Confirmer connexion</text></g><g class="message" data-participant-1="User" data-participant-2="System"><polygon fill="#181818" points="629.5327,224.9609,639.5327,228.9609,629.5327,232.9609,633.5327,228.9609" style="stroke:#181818;stroke-width:1;"/><line style="stroke:#181818;stroke-width:1;" x1="44.0049" x2="635.5327" y1="228.9609" y2="228.9609"/><text fill="#000000" font-family="sans-serif" font-size="13" lengthAdjust="spacing" textLength="148.3193" x="51.0049" y="223.895">Passer une commande</text></g><g class="message" data-participant-1="System" data-participant-2="User"><polygon fill="#181818" points="55.0049,254.0938,45.0049,258.0938,55.0049,262.0938,51.0049,258.0938" style="stroke:#181818;stroke-width:1;"/><line style="stroke:#181818;stroke-width:1;" x1="49.0049" x2="640.5327" y1="258.0938" y2="258.0938"/><text fill="#000000" font-family="sans-serif" font-size="13" lengthAdjust="spacing" textLength="141.8257" x="61.0049" y="253.0278">Confirmer commande</text></g><g class="message" data-participant-1="User" data-participant-2="Client"><polygon fill="#181818" points="474.7646,283.2266,484.7646,287.2266,474.7646,291.2266,478.7646,287.2266" style="stroke:#181818;stroke-width:1;"/><line style="stroke:#181818;stroke-width:1;" x1="44.0049" x2="480.7646" y1="287.2266" y2="287.2266"/><text fill="#000000" font-family="sans-serif" font-size="13" lengthAdjust="spacing" textLength="92.4155" x="51.0049" y="282.1606">Devient Client</text></g><g class="message" data-participant-1="Admin" data-participant-2="System"><polygon fill="#181818" points="629.5327,312.3594,639.5327,316.3594,629.5327,320.3594,633.5327,316.3594" style="stroke:#181818;stroke-width:1;"/><line style="stroke:#181818;stroke-width:1;" x1="148.3115" x2="635.5327" y1="316.3594" y2="316.3594"/><text fill="#000000" font-family="sans-serif" font-size="13" lengthAdjust="spacing" textLength="118.8535" x="155.3115" y="311.2935">Assigner des rôles</text></g><g class="message" data-participant-1="System" data-participant-2="Admin"><polygon fill="#181818" points="159.3115,341.4922,149.3115,345.4922,159.3115,349.4922,155.3115,345.4922" style="stroke:#181818;stroke-width:1;"/><line style="stroke:#181818;stroke-width:1;" x1="153.3115" x2="640.5327" y1="345.4922" y2="345.4922"/><text fill="#000000" font-family="sans-serif" font-size="13" lengthAdjust="spacing" textLength="147.5957" x="165.3115" y="340.4263">Confirmer rôle assigné</text></g><g class="message" data-participant-1="Admin" data-participant-2="Assistant"><polygon fill="#181818" points="381.9526,370.625,391.9526,374.625,381.9526,378.625,385.9526,374.625" style="stroke:#181818;stroke-width:1;"/><line style="stroke:#181818;stroke-width:1;" x1="148.3115" x2="387.9526" y1="374.625" y2="374.625"/><text fill="#000000" font-family="sans-serif" font-size="13" lengthAdjust="spacing" textLength="221.6411" x="155.3115" y="369.5591">Assigner le rôle d'Assistant Admin</text></g><g class="message" data-participant-1="Client" data-participant-2="System"><polygon fill="#181818" points="629.5327,399.7578,639.5327,403.7578,629.5327,407.7578,633.5327,403.7578" style="stroke:#181818;stroke-width:1;"/><line style="stroke:#181818;stroke-width:1;" x1="486.7646" x2="635.5327" y1="403.7578" y2="403.7578"/><text fill="#000000" font-family="sans-serif" font-size="13" lengthAdjust="spacing" textLength="129.5684" x="493.7646" y="398.6919">Payer la commande</text></g><g class="message" data-participant-1="System" data-participant-2="Client"><polygon fill="#181818" points="497.7646,428.8906,487.7646,432.8906,497.7646,436.8906,493.7646,432.8906" style="stroke:#181818;stroke-width:1;"/><line style="stroke:#181818;stroke-width:1;" x1="491.7646" x2="640.5327" y1="432.8906" y2="432.8906"/><text fill="#000000" font-family="sans-serif" font-size="13" lengthAdjust="spacing" textLength="130.7681" x="503.7646" y="427.8247">Confirmer paiement</text></g><g class="message" data-participant-1="Client" data-participant-2="System"><polygon fill="#181818" points="629.5327,458.0234,639.5327,462.0234,629.5327,466.0234,633.5327,462.0234" style="stroke:#181818;stroke-width:1;"/><line style="stroke:#181818;stroke-width:1;" x1="486.7646" x2="635.5327" y1="462.0234" y2="462.0234"/><text fill="#000000" font-family="sans-serif" font-size="13" lengthAdjust="spacing" textLength="88.4482" x="493.7646" y="456.9575">Écrire un avis</text></g><g class="message" data-participant-1="System" data-participant-2="Client"><polygon fill="#181818" points="497.7646,487.1563,487.7646,491.1563,497.7646,495.1563,493.7646,491.1563" style="stroke:#181818;stroke-width:1;"/><line style="stroke:#181818;stroke-width:1;" x1="491.7646" x2="640.5327" y1="491.1563" y2="491.1563"/><text fill="#000000" font-family="sans-serif" font-size="13" lengthAdjust="spacing" textLength="128.3179" x="503.7646" y="486.0903">Confirmer avis écrit</text></g><g class="message" data-participant-1="Assistant" data-participant-2="System"><polygon fill="#181818" points="629.5327,516.2891,639.5327,520.2891,629.5327,524.2891,633.5327,520.2891" style="stroke:#181818;stroke-width:1;"/><line style="stroke:#181818;stroke-width:1;" x1="393.9526" x2="635.5327" y1="520.2891" y2="520.2891"/><text fill="#000000" font-family="sans-serif" font-size="13" lengthAdjust="spacing" textLength="89.4512" x="400.9526" y="515.2231">Gérer les avis</text></g><g class="message" data-participant-1="System" data-participant-2="Assistant"><polygon fill="#181818" points="404.9526,545.4219,394.9526,549.4219,404.9526,553.4219,400.9526,549.4219" style="stroke:#181818;stroke-width:1;"/><line style="stroke:#181818;stroke-width:1;" x1="398.9526" x2="640.5327" y1="549.4219" y2="549.4219"/><text fill="#000000" font-family="sans-serif" font-size="13" lengthAdjust="spacing" textLength="174.1987" x="410.9526" y="544.356">Confirmer gestion des avis</text></g><g class="message" data-participant-1="Assistant" data-participant-2="System"><polygon fill="#181818" points="629.5327,574.5547,639.5327,578.5547,629.5327,582.5547,633.5327,578.5547" style="stroke:#181818;stroke-width:1;"/><line style="stroke:#181818;stroke-width:1;" x1="393.9526" x2="635.5327" y1="578.5547" y2="578.5547"/><text fill="#000000" font-family="sans-serif" font-size="13" lengthAdjust="spacing" textLength="105.8853" x="400.9526" y="573.4888">Gérer les clients</text></g><g class="message" data-participant-1="System" data-participant-2="Assistant"><polygon fill="#181818" points="404.9526,603.6875,394.9526,607.6875,404.9526,611.6875,400.9526,607.6875" style="stroke:#181818;stroke-width:1;"/><line style="stroke:#181818;stroke-width:1;" x1="398.9526" x2="640.5327" y1="607.6875" y2="607.6875"/><text fill="#000000" font-family="sans-serif" font-size="13" lengthAdjust="spacing" textLength="190.6328" x="410.9526" y="602.6216">Confirmer gestion des clients</text></g><!--SRC=[bP5DJiCm48NtFeML3Iikm089YiGMgUe1J3AKaMAdU9oA786RD7jku8in7kUlLTIAHIHdtZVFyyQc38tNnIvWZMG2jBxGXlIEm2kJjQVAeaCAVfQbDEb4h1eNSZa3Oss4DZM22wBbe-8FGwUBRKSXdYpePtoliGcVyVJLWf190gjKcaRVFmx_-a5lVEovr3fTDlOGG0qACy8oqRWFz9RFcT0bjyH-nMlBMkCSb84ZN_LXw1iRj-BnPeXadkHbhN7LhP4oCnhbbJ3p0aSv3JjIij6pgz9czuxRAY3jusyDjBWgyykx1E5bfYxEFndEhxRmP3BprTt5goerp7WUkqjDPYtq56aUvM0GhCHQyOe_fKSFwKtD4UcwKo9qxBaZxMYQTEdt6dilYUZIRvbyjjm31NvSMQiqtFOjPR3_MGyzVm00]--></g></svg>