<svg xmlns="http://www.w3.org/2000/svg" xmlns:xlink="http://www.w3.org/1999/xlink" contentStyleType="text/css" data-diagram-type="CLASS" height="909px" preserveAspectRatio="none" style="width:1681px;height:909px;background:#FFFFFF;" version="1.1" viewBox="0 0 1681 909" width="1681px" zoomAndPan="magnify"><defs/><g><!--class clients--><g id="elem_clients"><rect codeLine="3" fill="#F1F1F1" height="162.0781" id="clients" rx="2.5" ry="2.5" style="stroke:#181818;stroke-width:0.5;" width="176.2197" x="184" y="230"/><ellipse cx="244.9868" cy="246" fill="#ADD1B2" rx="11" ry="11" style="stroke:#181818;stroke-width:1;"/><path d="M249.0962,252 L241.3774,252 L241.3774,239.6094 L249.0962,239.6094 L249.0962,241.7656 L243.8306,241.7656 L243.8306,244.4375 L248.5962,244.4375 L248.5962,246.5938 L243.8306,246.5938 L243.8306,249.8438 L249.0962,249.8438 L249.0962,252 Z " fill="#000000"/><text fill="#000000" font-family="sans-serif" font-size="14" lengthAdjust="spacing" textLength="45.7461" x="265.4868" y="250.8467">clients</text><line style="stroke:#181818;stroke-width:0.5;" x1="185" x2="359.2197" y1="262" y2="262"/><ellipse cx="195" cy="275.6484" fill="#000000" rx="3" ry="3" style="stroke:#000000;stroke-width:1;"/><text fill="#000000" font-family="sans-serif" font-size="14" lengthAdjust="spacing" textLength="58.2285" x="204" y="278.9951">id_client</text><text fill="#000000" font-family="sans-serif" font-size="14" lengthAdjust="spacing" textLength="76.5283" x="204" y="295.292">nom_client</text><text fill="#000000" font-family="sans-serif" font-size="14" lengthAdjust="spacing" textLength="99.7842" x="204" y="311.5889">prenom_client</text><text fill="#000000" font-family="sans-serif" font-size="14" lengthAdjust="spacing" textLength="115.8691" x="204" y="327.8857">telephone_client</text><text fill="#000000" font-family="sans-serif" font-size="14" lengthAdjust="spacing" textLength="100.7617" x="204" y="344.1826">address_client</text><text fill="#000000" font-family="sans-serif" font-size="14" lengthAdjust="spacing" textLength="150.2197" x="204" y="360.4795">chifer_d'affaire_client</text><polygon fill="transparent" points="195,368.4297,199,372.4297,195,376.4297,191,372.4297" style="stroke:#B38D22;stroke-width:1;"/><text fill="#000000" font-family="sans-serif" font-size="14" lengthAdjust="spacing" textLength="50.3125" x="204" y="376.7764">id_user</text><line style="stroke:#181818;stroke-width:0.5;" x1="185" x2="359.2197" y1="384.0781" y2="384.0781"/></g><!--class users--><g id="elem_users"><rect codeLine="13" fill="#F1F1F1" height="145.7813" id="users" rx="2.5" ry="2.5" style="stroke:#181818;stroke-width:0.5;" width="92.7119" x="312.5" y="7"/><ellipse cx="337.7968" cy="23" fill="#ADD1B2" rx="11" ry="11" style="stroke:#181818;stroke-width:1;"/><path d="M341.9062,29 L334.1875,29 L334.1875,16.6094 L341.9062,16.6094 L341.9062,18.7656 L336.6406,18.7656 L336.6406,21.4375 L341.4062,21.4375 L341.4062,23.5938 L336.6406,23.5938 L336.6406,26.8438 L341.9062,26.8438 L341.9062,29 Z " fill="#000000"/><text fill="#000000" font-family="sans-serif" font-size="14" lengthAdjust="spacing" textLength="37.8301" x="354.085" y="27.8467">users</text><line style="stroke:#181818;stroke-width:0.5;" x1="313.5" x2="404.2119" y1="39" y2="39"/><ellipse cx="323.5" cy="52.6484" fill="#000000" rx="3" ry="3" style="stroke:#000000;stroke-width:1;"/><text fill="#000000" font-family="sans-serif" font-size="14" lengthAdjust="spacing" textLength="50.3125" x="332.5" y="55.9951">id_user</text><text fill="#000000" font-family="sans-serif" font-size="14" lengthAdjust="spacing" textLength="38.6094" x="332.5" y="72.292">email</text><text fill="#000000" font-family="sans-serif" font-size="14" lengthAdjust="spacing" textLength="66.7119" x="332.5" y="88.5889">password</text><text fill="#000000" font-family="sans-serif" font-size="14" lengthAdjust="spacing" textLength="54.332" x="332.5" y="104.8857">prenom</text><text fill="#000000" font-family="sans-serif" font-size="14" lengthAdjust="spacing" textLength="31.0762" x="332.5" y="121.1826">nom</text><polygon fill="transparent" points="323.5,129.1328,327.5,133.1328,323.5,137.1328,319.5,133.1328" style="stroke:#B38D22;stroke-width:1;"/><text fill="#000000" font-family="sans-serif" font-size="14" lengthAdjust="spacing" textLength="46.6006" x="332.5" y="137.4795">id_role</text><line style="stroke:#181818;stroke-width:0.5;" x1="313.5" x2="404.2119" y1="144.7813" y2="144.7813"/></g><!--class roles--><g id="elem_roles"><rect codeLine="22" fill="#F1F1F1" height="80.5938" id="roles" rx="2.5" ry="2.5" style="stroke:#181818;stroke-width:0.5;" width="101.4961" x="395.5" y="270.5"/><ellipse cx="426.4201" cy="286.5" fill="#ADD1B2" rx="11" ry="11" style="stroke:#181818;stroke-width:1;"/><path d="M430.5294,292.5 L422.8107,292.5 L422.8107,280.1094 L430.5294,280.1094 L430.5294,282.2656 L425.2638,282.2656 L425.2638,284.9375 L430.0294,284.9375 L430.0294,287.0938 L425.2638,287.0938 L425.2638,290.3438 L430.5294,290.3438 L430.5294,292.5 Z " fill="#000000"/><text fill="#000000" font-family="sans-serif" font-size="14" lengthAdjust="spacing" textLength="34.1182" x="443.9579" y="291.3467">roles</text><line style="stroke:#181818;stroke-width:0.5;" x1="396.5" x2="495.9961" y1="302.5" y2="302.5"/><ellipse cx="406.5" cy="316.1484" fill="#000000" rx="3" ry="3" style="stroke:#000000;stroke-width:1;"/><text fill="#000000" font-family="sans-serif" font-size="14" lengthAdjust="spacing" textLength="46.6006" x="415.5" y="319.4951">id_role</text><text fill="#000000" font-family="sans-serif" font-size="14" lengthAdjust="spacing" textLength="75.4961" x="415.5" y="335.792">libelle_role</text><line style="stroke:#181818;stroke-width:0.5;" x1="396.5" x2="495.9961" y1="343.0938" y2="343.0938"/></g><!--class auteur--><g id="elem_auteur"><rect codeLine="27" fill="#F1F1F1" height="113.1875" id="auteur" rx="2.5" ry="2.5" style="stroke:#181818;stroke-width:0.5;" width="133.5156" x="922" y="781"/><ellipse cx="961.8994" cy="797" fill="#ADD1B2" rx="11" ry="11" style="stroke:#181818;stroke-width:1;"/><path d="M966.0088,803 L958.29,803 L958.29,790.6094 L966.0088,790.6094 L966.0088,792.7656 L960.7432,792.7656 L960.7432,795.4375 L965.5088,795.4375 L965.5088,797.5938 L960.7432,797.5938 L960.7432,800.8438 L966.0088,800.8438 L966.0088,803 Z " fill="#000000"/><text fill="#000000" font-family="sans-serif" font-size="14" lengthAdjust="spacing" textLength="46.1836" x="981.4326" y="801.8467">auteur</text><line style="stroke:#181818;stroke-width:0.5;" x1="923" x2="1054.5156" y1="813" y2="813"/><ellipse cx="933" cy="826.6484" fill="#000000" rx="3" ry="3" style="stroke:#000000;stroke-width:1;"/><text fill="#000000" font-family="sans-serif" font-size="14" lengthAdjust="spacing" textLength="65.96" x="942" y="829.9951">id_auteur</text><text fill="#000000" font-family="sans-serif" font-size="14" lengthAdjust="spacing" textLength="84.2598" x="942" y="846.292">nom_auteur</text><text fill="#000000" font-family="sans-serif" font-size="14" lengthAdjust="spacing" textLength="107.5156" x="942" y="862.5889">prenom_auteur</text><text fill="#000000" font-family="sans-serif" font-size="14" lengthAdjust="spacing" textLength="74.5254" x="942" y="878.8857">bio_auteur</text><line style="stroke:#181818;stroke-width:0.5;" x1="923" x2="1054.5156" y1="886.1875" y2="886.1875"/></g><!--class genres--><g id="elem_genres"><rect codeLine="34" fill="#F1F1F1" height="80.5938" id="genres" rx="2.5" ry="2.5" style="stroke:#181818;stroke-width:0.5;" width="115.4141" x="1091.5" y="797"/><ellipse cx="1122.4201" cy="813" fill="#ADD1B2" rx="11" ry="11" style="stroke:#181818;stroke-width:1;"/><path d="M1126.5294,819 L1118.8107,819 L1118.8107,806.6094 L1126.5294,806.6094 L1126.5294,808.7656 L1121.2638,808.7656 L1121.2638,811.4375 L1126.0294,811.4375 L1126.0294,813.5938 L1121.2638,813.5938 L1121.2638,816.8438 L1126.5294,816.8438 L1126.5294,819 Z " fill="#000000"/><text fill="#000000" font-family="sans-serif" font-size="14" lengthAdjust="spacing" textLength="48.0361" x="1139.9579" y="817.8467">genres</text><line style="stroke:#181818;stroke-width:0.5;" x1="1092.5" x2="1205.9141" y1="829" y2="829"/><ellipse cx="1102.5" cy="842.6484" fill="#000000" rx="3" ry="3" style="stroke:#000000;stroke-width:1;"/><text fill="#000000" font-family="sans-serif" font-size="14" lengthAdjust="spacing" textLength="60.5186" x="1111.5" y="845.9951">id_genre</text><text fill="#000000" font-family="sans-serif" font-size="14" lengthAdjust="spacing" textLength="89.4141" x="1111.5" y="862.292">libelle_genre</text><line style="stroke:#181818;stroke-width:0.5;" x1="1092.5" x2="1205.9141" y1="869.5938" y2="869.5938"/></g><!--class book_status_order--><g id="elem_book_status_order"><rect codeLine="39" fill="#F1F1F1" height="80.5938" id="book_status_order" rx="2.5" ry="2.5" style="stroke:#181818;stroke-width:0.5;" width="160.7207" x="572.5" y="797"/><ellipse cx="587.5" cy="813" fill="#ADD1B2" rx="11" ry="11" style="stroke:#181818;stroke-width:1;"/><path d="M591.6094,819 L583.8906,819 L583.8906,806.6094 L591.6094,806.6094 L591.6094,808.7656 L586.3438,808.7656 L586.3438,811.4375 L591.1094,811.4375 L591.1094,813.5938 L586.3438,813.5938 L586.3438,816.8438 L591.6094,816.8438 L591.6094,819 Z " fill="#000000"/><text fill="#000000" font-family="sans-serif" font-size="14" lengthAdjust="spacing" textLength="128.7207" x="601.5" y="817.8467">book_status_order</text><line style="stroke:#181818;stroke-width:0.5;" x1="573.5" x2="732.2207" y1="829" y2="829"/><ellipse cx="583.5" cy="842.6484" fill="#000000" rx="3" ry="3" style="stroke:#000000;stroke-width:1;"/><text fill="#000000" font-family="sans-serif" font-size="14" lengthAdjust="spacing" textLength="107.3721" x="592.5" y="845.9951">id_status_order</text><text fill="#000000" font-family="sans-serif" font-size="14" lengthAdjust="spacing" textLength="134.3193" x="592.5" y="862.292">libelle_status-order</text><line style="stroke:#181818;stroke-width:0.5;" x1="573.5" x2="732.2207" y1="869.5938" y2="869.5938"/></g><!--class book_status--><g id="elem_book_status"><rect codeLine="44" fill="#F1F1F1" height="80.5938" id="book_status" rx="2.5" ry="2.5" style="stroke:#181818;stroke-width:0.5;" width="117.6904" x="769" y="797"/><ellipse cx="784.6961" cy="813" fill="#ADD1B2" rx="11" ry="11" style="stroke:#181818;stroke-width:1;"/><path d="M788.8055,819 L781.0867,819 L781.0867,806.6094 L788.8055,806.6094 L788.8055,808.7656 L783.5398,808.7656 L783.5398,811.4375 L788.3055,811.4375 L788.3055,813.5938 L783.5398,813.5938 L783.5398,816.8438 L788.8055,816.8438 L788.8055,819 Z " fill="#000000"/><text fill="#000000" font-family="sans-serif" font-size="14" lengthAdjust="spacing" textLength="84.1436" x="798.8508" y="817.8467">book_status</text><line style="stroke:#181818;stroke-width:0.5;" x1="770" x2="885.6904" y1="829" y2="829"/><ellipse cx="780" cy="842.6484" fill="#000000" rx="3" ry="3" style="stroke:#000000;stroke-width:1;"/><text fill="#000000" font-family="sans-serif" font-size="14" lengthAdjust="spacing" textLength="62.7949" x="789" y="845.9951">id_status</text><text fill="#000000" font-family="sans-serif" font-size="14" lengthAdjust="spacing" textLength="91.6904" x="789" y="862.292">libelle_status</text><line style="stroke:#181818;stroke-width:0.5;" x1="770" x2="885.6904" y1="869.5938" y2="869.5938"/></g><!--class books--><g id="elem_books"><rect codeLine="49" fill="#F1F1F1" height="227.2656" id="books" rx="2.5" ry="2.5" style="stroke:#181818;stroke-width:0.5;" width="222.4922" x="717" y="469"/><ellipse cx="803.2866" cy="485" fill="#ADD1B2" rx="11" ry="11" style="stroke:#181818;stroke-width:1;"/><path d="M807.396,491 L799.6772,491 L799.6772,478.6094 L807.396,478.6094 L807.396,480.7656 L802.1304,480.7656 L802.1304,483.4375 L806.896,483.4375 L806.896,485.5938 L802.1304,485.5938 L802.1304,488.8438 L807.396,488.8438 L807.396,491 Z " fill="#000000"/><text fill="#000000" font-family="sans-serif" font-size="14" lengthAdjust="spacing" textLength="41.4189" x="823.7866" y="489.8467">books</text><line style="stroke:#181818;stroke-width:0.5;" x1="718" x2="938.4922" y1="501" y2="501"/><ellipse cx="728" cy="514.6484" fill="#000000" rx="3" ry="3" style="stroke:#000000;stroke-width:1;"/><text fill="#000000" font-family="sans-serif" font-size="14" lengthAdjust="spacing" textLength="61.1953" x="737" y="517.9951">id_books</text><text fill="#000000" font-family="sans-serif" font-size="14" lengthAdjust="spacing" textLength="70.3623" x="737" y="534.292">titre_book</text><text fill="#000000" font-family="sans-serif" font-size="14" lengthAdjust="spacing" textLength="67.9424" x="737" y="550.5889">prix_book</text><text fill="#000000" font-family="sans-serif" font-size="14" lengthAdjust="spacing" textLength="70.0684" x="737" y="566.8857">isbn_book</text><text fill="#000000" font-family="sans-serif" font-size="14" lengthAdjust="spacing" textLength="149.208" x="737" y="583.1826">quantitie_initial_book</text><text fill="#000000" font-family="sans-serif" font-size="14" lengthAdjust="spacing" textLength="164.3291" x="737" y="599.4795">quantitie_acheter_book</text><text fill="#000000" font-family="sans-serif" font-size="14" lengthAdjust="spacing" textLength="196.4922" x="737" y="615.7764">quantitie_commandes_book</text><polygon fill="transparent" points="728,623.7266,732,627.7266,728,631.7266,724,627.7266" style="stroke:#B38D22;stroke-width:1;"/><text fill="#000000" font-family="sans-serif" font-size="14" lengthAdjust="spacing" textLength="65.96" x="737" y="632.0732">id_auteur</text><polygon fill="transparent" points="728,640.0234,732,644.0234,728,648.0234,724,644.0234" style="stroke:#B38D22;stroke-width:1;"/><text fill="#000000" font-family="sans-serif" font-size="14" lengthAdjust="spacing" textLength="60.5186" x="737" y="648.3701">id_genre</text><polygon fill="transparent" points="728,656.3203,732,660.3203,728,664.3203,724,660.3203" style="stroke:#B38D22;stroke-width:1;"/><text fill="#000000" font-family="sans-serif" font-size="14" lengthAdjust="spacing" textLength="62.7949" x="737" y="664.667">id_status</text><polygon fill="transparent" points="728,672.6172,732,676.6172,728,680.6172,724,676.6172" style="stroke:#B38D22;stroke-width:1;"/><text fill="#000000" font-family="sans-serif" font-size="14" lengthAdjust="spacing" textLength="107.3721" x="737" y="680.9639">id_status_order</text><line style="stroke:#181818;stroke-width:0.5;" x1="718" x2="938.4922" y1="688.2656" y2="688.2656"/></g><!--class promotions--><g id="elem_promotions"><rect codeLine="63" fill="#F1F1F1" height="113.1875" id="promotions" rx="2.5" ry="2.5" style="stroke:#181818;stroke-width:0.5;" width="170.04" x="7" y="781"/><ellipse cx="48.3329" cy="797" fill="#ADD1B2" rx="11" ry="11" style="stroke:#181818;stroke-width:1;"/><path d="M52.4423,803 L44.7235,803 L44.7235,790.6094 L52.4423,790.6094 L52.4423,792.7656 L47.1767,792.7656 L47.1767,795.4375 L51.9423,795.4375 L51.9423,797.5938 L47.1767,797.5938 L47.1767,800.8438 L52.4423,800.8438 L52.4423,803 Z " fill="#000000"/><text fill="#000000" font-family="sans-serif" font-size="14" lengthAdjust="spacing" textLength="79.5225" x="68.1847" y="801.8467">promotions</text><line style="stroke:#181818;stroke-width:0.5;" x1="8" x2="176.04" y1="813" y2="813"/><ellipse cx="18" cy="826.6484" fill="#000000" rx="3" ry="3" style="stroke:#000000;stroke-width:1;"/><text fill="#000000" font-family="sans-serif" font-size="14" lengthAdjust="spacing" textLength="92.0049" x="27" y="829.9951">id_promotion</text><text fill="#000000" font-family="sans-serif" font-size="14" lengthAdjust="spacing" textLength="112.9912" x="27" y="846.292">code_promotion</text><text fill="#000000" font-family="sans-serif" font-size="14" lengthAdjust="spacing" textLength="144.04" x="27" y="862.5889">pourcentage_remice</text><text fill="#000000" font-family="sans-serif" font-size="14" lengthAdjust="spacing" textLength="109.3955" x="27" y="878.8857">date_expiration</text><line style="stroke:#181818;stroke-width:0.5;" x1="8" x2="176.04" y1="886.1875" y2="886.1875"/></g><!--class commandes_client--><g id="elem_commandes_client"><rect codeLine="70" fill="#F1F1F1" height="162.0781" id="commandes_client" rx="2.5" ry="2.5" style="stroke:#181818;stroke-width:0.5;" width="190.7051" x="176.5" y="501.5"/><ellipse cx="203.8609" cy="517.5" fill="#ADD1B2" rx="11" ry="11" style="stroke:#181818;stroke-width:1;"/><path d="M207.9703,523.5 L200.2516,523.5 L200.2516,511.1094 L207.9703,511.1094 L207.9703,513.2656 L202.7047,513.2656 L202.7047,515.9375 L207.4703,515.9375 L207.4703,518.0938 L202.7047,518.0938 L202.7047,521.3438 L207.9703,521.3438 L207.9703,523.5 Z " fill="#000000"/><text fill="#000000" font-family="sans-serif" font-size="14" lengthAdjust="spacing" textLength="131.2363" x="220.6078" y="522.3467">commandes_client</text><line style="stroke:#181818;stroke-width:0.5;" x1="177.5" x2="366.2051" y1="533.5" y2="533.5"/><ellipse cx="187.5" cy="547.1484" fill="#000000" rx="3" ry="3" style="stroke:#000000;stroke-width:1;"/><text fill="#000000" font-family="sans-serif" font-size="14" lengthAdjust="spacing" textLength="143.7188" x="196.5" y="550.4951">id_commande_client</text><text fill="#000000" font-family="sans-serif" font-size="14" lengthAdjust="spacing" textLength="164.7051" x="196.5" y="566.792">code_commande_client</text><polygon fill="transparent" points="187.5,574.7422,191.5,578.7422,187.5,582.7422,183.5,578.7422" style="stroke:#B38D22;stroke-width:1;"/><text fill="#000000" font-family="sans-serif" font-size="14" lengthAdjust="spacing" textLength="58.2285" x="196.5" y="583.0889">id_client</text><polygon fill="transparent" points="187.5,591.0391,191.5,595.0391,187.5,599.0391,183.5,595.0391" style="stroke:#B38D22;stroke-width:1;"/><text fill="#000000" font-family="sans-serif" font-size="14" lengthAdjust="spacing" textLength="92.0049" x="196.5" y="599.3857">id_promotion</text><text fill="#000000" font-family="sans-serif" font-size="14" lengthAdjust="spacing" textLength="98.5195" x="196.5" y="615.6826">montant_total</text><text fill="#000000" font-family="sans-serif" font-size="14" lengthAdjust="spacing" textLength="89.0654" x="196.5" y="631.9795">status_livree</text><text fill="#000000" font-family="sans-serif" font-size="14" lengthAdjust="spacing" textLength="96.0313" x="196.5" y="648.2764">date_cr&#233;ation</text><line style="stroke:#181818;stroke-width:0.5;" x1="177.5" x2="366.2051" y1="655.5781" y2="655.5781"/></g><!--class order_items_client--><g id="elem_order_items_client"><rect codeLine="80" fill="#F1F1F1" height="129.4844" id="order_items_client" rx="2.5" ry="2.5" style="stroke:#181818;stroke-width:0.5;" width="169.7188" x="367" y="773"/><ellipse cx="385.9445" cy="789" fill="#ADD1B2" rx="11" ry="11" style="stroke:#181818;stroke-width:1;"/><path d="M390.0539,795 L382.3352,795 L382.3352,782.6094 L390.0539,782.6094 L390.0539,784.7656 L384.7883,784.7656 L384.7883,787.4375 L389.5539,787.4375 L389.5539,789.5938 L384.7883,789.5938 L384.7883,792.8438 L390.0539,792.8438 L390.0539,795 Z " fill="#000000"/><text fill="#000000" font-family="sans-serif" font-size="14" lengthAdjust="spacing" textLength="128.9531" x="400.8211" y="793.8467">order_items_client</text><line style="stroke:#181818;stroke-width:0.5;" x1="368" x2="535.7188" y1="805" y2="805"/><ellipse cx="378" cy="818.6484" fill="#000000" rx="3" ry="3" style="stroke:#000000;stroke-width:1;"/><text fill="#000000" font-family="sans-serif" font-size="14" lengthAdjust="spacing" textLength="141.4355" x="387" y="821.9951">id_order_item_client</text><polygon fill="transparent" points="378,829.9453,382,833.9453,378,837.9453,374,833.9453" style="stroke:#B38D22;stroke-width:1;"/><text fill="#000000" font-family="sans-serif" font-size="14" lengthAdjust="spacing" textLength="143.7188" x="387" y="838.292">id_commande_client</text><polygon fill="transparent" points="378,846.2422,382,850.2422,378,854.2422,374,850.2422" style="stroke:#B38D22;stroke-width:1;"/><text fill="#000000" font-family="sans-serif" font-size="14" lengthAdjust="spacing" textLength="61.1953" x="387" y="854.5889">id_books</text><text fill="#000000" font-family="sans-serif" font-size="14" lengthAdjust="spacing" textLength="105.5674" x="387" y="870.8857">quantit&#233;_vente</text><text fill="#000000" font-family="sans-serif" font-size="14" lengthAdjust="spacing" textLength="87.7803" x="387" y="887.1826">prix_unitaire</text><line style="stroke:#181818;stroke-width:0.5;" x1="368" x2="535.7188" y1="894.4844" y2="894.4844"/></g><!--class reviews--><g id="elem_reviews"><rect codeLine="88" fill="#F1F1F1" height="129.4844" id="reviews" rx="2.5" ry="2.5" style="stroke:#181818;stroke-width:0.5;" width="119.3516" x="212.5" y="773"/><ellipse cx="242.5526" cy="789" fill="#ADD1B2" rx="11" ry="11" style="stroke:#181818;stroke-width:1;"/><path d="M246.662,795 L238.9432,795 L238.9432,782.6094 L246.662,782.6094 L246.662,784.7656 L241.3963,784.7656 L241.3963,787.4375 L246.162,787.4375 L246.162,789.5938 L241.3963,789.5938 L241.3963,792.8438 L246.662,792.8438 L246.662,795 Z " fill="#000000"/><text fill="#000000" font-family="sans-serif" font-size="14" lengthAdjust="spacing" textLength="53.9014" x="259.8976" y="793.8467">reviews</text><line style="stroke:#181818;stroke-width:0.5;" x1="213.5" x2="330.8516" y1="805" y2="805"/><ellipse cx="223.5" cy="818.6484" fill="#000000" rx="3" ry="3" style="stroke:#000000;stroke-width:1;"/><text fill="#000000" font-family="sans-serif" font-size="14" lengthAdjust="spacing" textLength="66.3838" x="232.5" y="821.9951">id_review</text><polygon fill="transparent" points="223.5,829.9453,227.5,833.9453,223.5,837.9453,219.5,833.9453" style="stroke:#B38D22;stroke-width:1;"/><text fill="#000000" font-family="sans-serif" font-size="14" lengthAdjust="spacing" textLength="58.2285" x="232.5" y="838.292">id_client</text><polygon fill="transparent" points="223.5,846.2422,227.5,850.2422,223.5,854.2422,219.5,850.2422" style="stroke:#B38D22;stroke-width:1;"/><text fill="#000000" font-family="sans-serif" font-size="14" lengthAdjust="spacing" textLength="61.1953" x="232.5" y="854.5889">id_books</text><text fill="#000000" font-family="sans-serif" font-size="14" lengthAdjust="spacing" textLength="31.541" x="232.5" y="870.8857">note</text><text fill="#000000" font-family="sans-serif" font-size="14" lengthAdjust="spacing" textLength="93.3516" x="232.5" y="887.1826">commentaire</text><line style="stroke:#181818;stroke-width:0.5;" x1="213.5" x2="330.8516" y1="894.4844" y2="894.4844"/></g><!--class fournisseur--><g id="elem_fournisseur"><rect codeLine="96" fill="#F1F1F1" height="129.4844" id="fournisseur" rx="2.5" ry="2.5" style="stroke:#181818;stroke-width:0.5;" width="182.1328" x="1492" y="773"/><ellipse cx="1539.4585" cy="789" fill="#ADD1B2" rx="11" ry="11" style="stroke:#181818;stroke-width:1;"/><path d="M1543.5679,795 L1535.8491,795 L1535.8491,782.6094 L1543.5679,782.6094 L1543.5679,784.7656 L1538.3022,784.7656 L1538.3022,787.4375 L1543.0679,787.4375 L1543.0679,789.5938 L1538.3022,789.5938 L1538.3022,792.8438 L1543.5679,792.8438 L1543.5679,795 Z " fill="#000000"/><text fill="#000000" font-family="sans-serif" font-size="14" lengthAdjust="spacing" textLength="78.7158" x="1559.9585" y="793.8467">fournisseur</text><line style="stroke:#181818;stroke-width:0.5;" x1="1493" x2="1673.1328" y1="805" y2="805"/><ellipse cx="1503" cy="818.6484" fill="#000000" rx="3" ry="3" style="stroke:#000000;stroke-width:1;"/><text fill="#000000" font-family="sans-serif" font-size="14" lengthAdjust="spacing" textLength="98.4922" x="1512" y="821.9951">id_fournisseur</text><text fill="#000000" font-family="sans-serif" font-size="14" lengthAdjust="spacing" textLength="116.792" x="1512" y="838.292">nom_fournisseur</text><text fill="#000000" font-family="sans-serif" font-size="14" lengthAdjust="spacing" textLength="124.3252" x="1512" y="854.5889">email_fournisseur</text><text fill="#000000" font-family="sans-serif" font-size="14" lengthAdjust="spacing" textLength="156.1328" x="1512" y="870.8857">telephone_fournisseur</text><text fill="#000000" font-family="sans-serif" font-size="14" lengthAdjust="spacing" textLength="141.0254" x="1512" y="887.1826">address_fournisseur</text><line style="stroke:#181818;stroke-width:0.5;" x1="1493" x2="1673.1328" y1="894.4844" y2="894.4844"/></g><!--class commandes_fournisseur--><g id="elem_commandes_fournisseur"><rect codeLine="104" fill="#F1F1F1" height="129.4844" id="commandes_fournisseur" rx="2.5" ry="2.5" style="stroke:#181818;stroke-width:0.5;" width="230.9688" x="1398.5" y="518"/><ellipse cx="1425.8609" cy="534" fill="#ADD1B2" rx="11" ry="11" style="stroke:#181818;stroke-width:1;"/><path d="M1429.9703,540 L1422.2516,540 L1422.2516,527.6094 L1429.9703,527.6094 L1429.9703,529.7656 L1424.7047,529.7656 L1424.7047,532.4375 L1429.4703,532.4375 L1429.4703,534.5938 L1424.7047,534.5938 L1424.7047,537.8438 L1429.9703,537.8438 L1429.9703,540 Z " fill="#000000"/><text fill="#000000" font-family="sans-serif" font-size="14" lengthAdjust="spacing" textLength="171.5" x="1442.6078" y="538.8467">commandes_fournisseur</text><line style="stroke:#181818;stroke-width:0.5;" x1="1399.5" x2="1628.4688" y1="550" y2="550"/><ellipse cx="1409.5" cy="563.6484" fill="#000000" rx="3" ry="3" style="stroke:#000000;stroke-width:1;"/><text fill="#000000" font-family="sans-serif" font-size="14" lengthAdjust="spacing" textLength="183.9824" x="1418.5" y="566.9951">id_commande_fournisseur</text><text fill="#000000" font-family="sans-serif" font-size="14" lengthAdjust="spacing" textLength="204.9688" x="1418.5" y="583.292">code_commande_fournisseur</text><polygon fill="transparent" points="1409.5,591.2422,1413.5,595.2422,1409.5,599.2422,1405.5,595.2422" style="stroke:#B38D22;stroke-width:1;"/><text fill="#000000" font-family="sans-serif" font-size="14" lengthAdjust="spacing" textLength="98.4922" x="1418.5" y="599.5889">id_fournisseur</text><text fill="#000000" font-family="sans-serif" font-size="14" lengthAdjust="spacing" textLength="98.5195" x="1418.5" y="615.8857">montant_total</text><text fill="#000000" font-family="sans-serif" font-size="14" lengthAdjust="spacing" textLength="96.0313" x="1418.5" y="632.1826">date_cr&#233;ation</text><line style="stroke:#181818;stroke-width:0.5;" x1="1399.5" x2="1628.4688" y1="639.4844" y2="639.4844"/></g><!--class order_items_fournisseur--><g id="elem_order_items_fournisseur"><rect codeLine="112" fill="#F1F1F1" height="129.4844" id="order_items_fournisseur" rx="2.5" ry="2.5" style="stroke:#181818;stroke-width:0.5;" width="214.9932" x="1241.5" y="773"/><ellipse cx="1262.6994" cy="789" fill="#ADD1B2" rx="11" ry="11" style="stroke:#181818;stroke-width:1;"/><path d="M1266.8087,795 L1259.09,795 L1259.09,782.6094 L1266.8087,782.6094 L1266.8087,784.7656 L1261.5431,784.7656 L1261.5431,787.4375 L1266.3087,787.4375 L1266.3087,789.5938 L1261.5431,789.5938 L1261.5431,792.8438 L1266.8087,792.8438 L1266.8087,795 Z " fill="#000000"/><text fill="#000000" font-family="sans-serif" font-size="14" lengthAdjust="spacing" textLength="169.2168" x="1278.077" y="793.8467">order_items_fournisseur</text><line style="stroke:#181818;stroke-width:0.5;" x1="1242.5" x2="1455.4932" y1="805" y2="805"/><ellipse cx="1252.5" cy="818.6484" fill="#000000" rx="3" ry="3" style="stroke:#000000;stroke-width:1;"/><text fill="#000000" font-family="sans-serif" font-size="14" lengthAdjust="spacing" textLength="188.9932" x="1261.5" y="821.9951">id_order_items_fournisseur</text><polygon fill="transparent" points="1252.5,829.9453,1256.5,833.9453,1252.5,837.9453,1248.5,833.9453" style="stroke:#B38D22;stroke-width:1;"/><text fill="#000000" font-family="sans-serif" font-size="14" lengthAdjust="spacing" textLength="183.9824" x="1261.5" y="838.292">id_commande_fournisseur</text><polygon fill="transparent" points="1252.5,846.2422,1256.5,850.2422,1252.5,854.2422,1248.5,850.2422" style="stroke:#B38D22;stroke-width:1;"/><text fill="#000000" font-family="sans-serif" font-size="14" lengthAdjust="spacing" textLength="61.1953" x="1261.5" y="854.5889">id_books</text><text fill="#000000" font-family="sans-serif" font-size="14" lengthAdjust="spacing" textLength="113.5244" x="1261.5" y="870.8857">quantit&#233;_achate</text><text fill="#000000" font-family="sans-serif" font-size="14" lengthAdjust="spacing" textLength="87.7803" x="1261.5" y="887.1826">prix_unitaire</text><line style="stroke:#181818;stroke-width:0.5;" x1="1242.5" x2="1455.4932" y1="894.4844" y2="894.4844"/></g><!--link clients to commandes_client--><g id="link_clients_commandes_client"><path codeLine="121" d="M272,392.13 C272,426.57 272,448.75 272,483.21 " fill="transparent" id="clients-to-commandes_client" style="stroke:#181818;stroke-width:1;"/><line style="stroke:#181818;stroke-width:1;" x1="272" x2="278" y1="493.21" y2="501.21"/><line style="stroke:#181818;stroke-width:1;" x1="272" x2="266" y1="493.21" y2="501.21"/><line style="stroke:#181818;stroke-width:1;" x1="272" x2="272" y1="493.21" y2="501.21"/><ellipse cx="272" cy="487.21" fill="transparent" rx="4" ry="4" style="stroke:#181818;stroke-width:1;"/><text fill="#000000" font-family="sans-serif" font-size="13" lengthAdjust="spacing" textLength="37.7622" x="273" y="435.0669">passe</text><text fill="#000000" font-family="sans-serif" font-size="13" lengthAdjust="spacing" textLength="8.271" x="263.646" y="412.0929">1</text><text fill="#000000" font-family="sans-serif" font-size="13" lengthAdjust="spacing" textLength="20.6426" x="251.1511" y="490.3715">0,n</text></g><!--link users to clients--><g id="link_users_clients"><path codeLine="122" d="M331.59,153.14 C322.33,177.53 311.93,204.9 302.45,229.86 " fill="transparent" id="users-clients" style="stroke:#181818;stroke-width:1;"/><text fill="#000000" font-family="sans-serif" font-size="13" lengthAdjust="spacing" textLength="53.9995" x="320" y="196.0669">poss&#232;de</text><text fill="#000000" font-family="sans-serif" font-size="13" lengthAdjust="spacing" textLength="8.271" x="320.6229" y="172.9096">1</text><text fill="#000000" font-family="sans-serif" font-size="13" lengthAdjust="spacing" textLength="8.271" x="296.808" y="219.0348">1</text></g><!--link users to roles--><g id="link_users_roles"><path codeLine="123" d="M386.41,153.14 C401.1,191.82 418.65,238 430.88,270.2 " fill="transparent" id="users-roles" style="stroke:#181818;stroke-width:1;"/><text fill="#000000" font-family="sans-serif" font-size="13" lengthAdjust="spacing" textLength="7.9663" x="403" y="196.0669">a</text><text fill="#000000" font-family="sans-serif" font-size="13" lengthAdjust="spacing" textLength="8.271" x="380.6679" y="172.9096">1</text><text fill="#000000" font-family="sans-serif" font-size="13" lengthAdjust="spacing" textLength="8.271" x="419.6946" y="259.3118">1</text></g><!--link books to auteur--><g id="link_books_auteur"><path codeLine="124" d="M904.0844,703.0597 C922.6944,732.3097 933.3543,749.0612 949.1843,773.9312 " fill="transparent" id="books-auteur" style="stroke:#181818;stroke-width:1;"/><line style="stroke:#181818;stroke-width:1;" x1="904.0844" x2="893.0403" y1="703.0597" y2="696.31"/><line style="stroke:#181818;stroke-width:1;" x1="904.0844" x2="906.5397" y1="703.0597" y2="696.31"/><line style="stroke:#181818;stroke-width:1;" x1="904.0844" x2="899.79" y1="703.0597" y2="696.31"/><line style="stroke:#181818;stroke-width:1;" x1="954.7066" x2="947.9577" y1="775.1577" y2="779.4534"/><line style="stroke:#181818;stroke-width:1;" x1="953.0957" x2="946.3468" y1="772.6269" y2="776.9226"/><line style="stroke:#181818;stroke-width:1;" x1="949.1843" x2="953.48" y1="773.9312" y2="780.68"/><text fill="#000000" font-family="sans-serif" font-size="13" lengthAdjust="spacing" textLength="57.2622" x="928" y="739.0669">&#233;crit_par</text><text fill="#000000" font-family="sans-serif" font-size="13" lengthAdjust="spacing" textLength="8.2393" x="896.1247" y="716.1441">n</text><text fill="#000000" font-family="sans-serif" font-size="13" lengthAdjust="spacing" textLength="8.271" x="940.7095" y="769.9046">1</text></g><!--link books to genres--><g id="link_books_genres"><path codeLine="125" d="M945.4126,672.1826 C987.9626,704.7526 1030.39,737.77 1074,773 C1083.42,780.61 1087.2697,783.7381 1096.7497,791.7181 " fill="transparent" id="books-genres" style="stroke:#181818;stroke-width:1;"/><line style="stroke:#181818;stroke-width:1;" x1="945.4126" x2="939.06" y1="672.1826" y2="673.6726"/><line style="stroke:#181818;stroke-width:1;" x1="945.4126" x2="939.06" y1="672.1826" y2="660.9674"/><line style="stroke:#181818;stroke-width:1;" x1="945.4126" x2="939.06" y1="672.1826" y2="667.32"/><line style="stroke:#181818;stroke-width:1;" x1="1102.3858" x2="1097.2339" y1="791.2339" y2="797.3542"/><line style="stroke:#181818;stroke-width:1;" x1="1100.0907" x2="1094.9388" y1="789.3019" y2="795.4222"/><line style="stroke:#181818;stroke-width:1;" x1="1096.7497" x2="1102.87" y1="791.7181" y2="796.87"/><text fill="#000000" font-family="sans-serif" font-size="13" lengthAdjust="spacing" textLength="67.8247" x="1035" y="739.0669">appartient</text><text fill="#000000" font-family="sans-serif" font-size="13" lengthAdjust="spacing" textLength="8.2393" x="947.5004" y="670.0602">n</text><text fill="#000000" font-family="sans-serif" font-size="13" lengthAdjust="spacing" textLength="8.271" x="1086.5554" y="786.01">1</text></g><!--link books to book_status--><g id="link_books_book_status"><path codeLine="126" d="M828,704.31 C828,740.28 828,761.75 828,788.89 " fill="transparent" id="books-book_status" style="stroke:#181818;stroke-width:1;"/><line style="stroke:#181818;stroke-width:1;" x1="828" x2="820" y1="704.31" y2="696.31"/><line style="stroke:#181818;stroke-width:1;" x1="828" x2="836" y1="704.31" y2="696.31"/><line style="stroke:#181818;stroke-width:1;" x1="828" x2="828" y1="704.31" y2="696.31"/><line style="stroke:#181818;stroke-width:1;" x1="832" x2="824" y1="792.89" y2="792.89"/><line style="stroke:#181818;stroke-width:1;" x1="832" x2="824" y1="789.89" y2="789.89"/><line style="stroke:#181818;stroke-width:1;" x1="828" x2="828" y1="788.89" y2="796.89"/><text fill="#000000" font-family="sans-serif" font-size="13" lengthAdjust="spacing" textLength="52.7363" x="829" y="739.0669">a_statut</text><text fill="#000000" font-family="sans-serif" font-size="13" lengthAdjust="spacing" textLength="8.2393" x="819.7356" y="716.1441">n</text><text fill="#000000" font-family="sans-serif" font-size="13" lengthAdjust="spacing" textLength="8.271" x="819.3856" y="786.0333">1</text></g><!--link books to book_status_order--><g id="link_books_book_status_order"><path codeLine="127" d="M740.1517,702.7652 C733.0517,712.7752 730.67,716.27 724,726 C708.15,749.14 695.4143,768.7876 682.0143,789.9876 " fill="transparent" id="books-book_status_order" style="stroke:#181818;stroke-width:1;"/><line style="stroke:#181818;stroke-width:1;" x1="740.1517" x2="738.2548" y1="702.7652" y2="696.24"/><line style="stroke:#181818;stroke-width:1;" x1="740.1517" x2="751.3052" y1="702.7652" y2="696.24"/><line style="stroke:#181818;stroke-width:1;" x1="740.1517" x2="744.78" y1="702.7652" y2="696.24"/><line style="stroke:#181818;stroke-width:1;" x1="683.2584" x2="676.496" y1="795.506" y2="791.2316"/><line style="stroke:#181818;stroke-width:1;" x1="684.8612" x2="678.0989" y1="792.9701" y2="788.6957"/><line style="stroke:#181818;stroke-width:1;" x1="682.0143" x2="677.74" y1="789.9876" y2="796.75"/><text fill="#000000" font-family="sans-serif" font-size="13" lengthAdjust="spacing" textLength="94.1294" x="725" y="739.0669">a_ordre_statut</text><text fill="#000000" font-family="sans-serif" font-size="13" lengthAdjust="spacing" textLength="8.2393" x="730.9114" y="716.4482">n</text><text fill="#000000" font-family="sans-serif" font-size="13" lengthAdjust="spacing" textLength="8.271" x="673.2206" y="785.8701">1</text></g><!--link commandes_client to order_items_client--><g id="link_commandes_client_order_items_client"><path codeLine="128" d="M314.95,663.9 C329.99,689.89 347.72,718.34 366,743 C373.42,753.01 369.9405,749.5743 378.4205,759.3143 " fill="transparent" id="commandes_client-to-order_items_client" style="stroke:#181818;stroke-width:1;"/><line style="stroke:#181818;stroke-width:1;" x1="384.9869" x2="394.7652" y1="766.8564" y2="768.9502"/><line style="stroke:#181818;stroke-width:1;" x1="384.9869" x2="385.7148" y1="766.8564" y2="776.8298"/><line style="stroke:#181818;stroke-width:1;" x1="384.9869" x2="390.24" y1="766.8564" y2="772.89"/><ellipse cx="381.0471" cy="762.3311" fill="transparent" rx="4" ry="4" style="stroke:#181818;stroke-width:1;"/><text fill="#000000" font-family="sans-serif" font-size="13" lengthAdjust="spacing" textLength="53.3838" x="367" y="739.0669">contient</text><text fill="#000000" font-family="sans-serif" font-size="13" lengthAdjust="spacing" textLength="8.271" x="310.3216" y="683.6091">1</text><text fill="#000000" font-family="sans-serif" font-size="13" lengthAdjust="spacing" textLength="20.6426" x="362.4418" y="762.0506">0,n</text></g><!--link books to order_items_client--><g id="link_books_order_items_client"><path codeLine="129" d="M716.97,658.21 C659.46,696.9 605.284,733.3614 552.064,769.1714 " fill="transparent" id="books-to-order_items_client" style="stroke:#181818;stroke-width:1;"/><line style="stroke:#181818;stroke-width:1;" x1="543.7673" x2="540.4795" y1="774.7539" y2="784.198"/><line style="stroke:#181818;stroke-width:1;" x1="543.7673" x2="533.7805" y1="774.7539" y2="774.242"/><line style="stroke:#181818;stroke-width:1;" x1="543.7673" x2="537.13" y1="774.7539" y2="779.22"/><ellipse cx="548.7454" cy="771.4044" fill="transparent" rx="4" ry="4" style="stroke:#181818;stroke-width:1;"/><text fill="#000000" font-family="sans-serif" font-size="13" lengthAdjust="spacing" textLength="57.5986" x="607" y="739.0669">est_dans</text><text fill="#000000" font-family="sans-serif" font-size="13" lengthAdjust="spacing" textLength="8.271" x="700.8742" y="660.0682">1</text><text fill="#000000" font-family="sans-serif" font-size="13" lengthAdjust="spacing" textLength="20.6426" x="544.7475" y="771.031">0,n</text></g><!--link commandes_client to reviews--><g id="link_commandes_client_reviews"><path codeLine="130" d="M272,663.55 C272,698.87 272,721.81 272,754.98 " fill="transparent" id="commandes_client-to-reviews" style="stroke:#181818;stroke-width:1;"/><line style="stroke:#181818;stroke-width:1;" x1="272" x2="278" y1="764.98" y2="772.98"/><line style="stroke:#181818;stroke-width:1;" x1="272" x2="266" y1="764.98" y2="772.98"/><line style="stroke:#181818;stroke-width:1;" x1="272" x2="272" y1="764.98" y2="772.98"/><ellipse cx="272" cy="758.98" fill="transparent" rx="4" ry="4" style="stroke:#181818;stroke-width:1;"/><text fill="#000000" font-family="sans-serif" font-size="13" lengthAdjust="spacing" textLength="37.1528" x="273" y="739.0669">re&#231;oit</text><text fill="#000000" font-family="sans-serif" font-size="13" lengthAdjust="spacing" textLength="8.271" x="263.6573" y="683.7826">1</text><text fill="#000000" font-family="sans-serif" font-size="13" lengthAdjust="spacing" textLength="20.6426" x="250.9222" y="762.1505">0,n</text></g><!--link books to reviews--><g id="link_books_reviews"><path codeLine="131" d="M716.82,627.53 C635.9,659.58 523.67,704 425,743 C391.23,756.35 380.28,754.55 349,773 C343.18,776.43 351.9768,769.8131 346.2768,773.8931 " fill="transparent" id="books-to-reviews" style="stroke:#181818;stroke-width:1;"/><line style="stroke:#181818;stroke-width:1;" x1="338.1452" x2="335.1323" y1="779.7136" y2="789.2489"/><line style="stroke:#181818;stroke-width:1;" x1="338.1452" x2="328.1477" y1="779.7136" y2="779.4911"/><line style="stroke:#181818;stroke-width:1;" x1="338.1452" x2="331.64" y1="779.7136" y2="784.37"/><ellipse cx="343.0242" cy="776.2213" fill="transparent" rx="4" ry="4" style="stroke:#181818;stroke-width:1;"/><text fill="#000000" font-family="sans-serif" font-size="13" lengthAdjust="spacing" textLength="37.1528" x="458" y="739.0669">re&#231;oit</text><text fill="#000000" font-family="sans-serif" font-size="13" lengthAdjust="spacing" textLength="8.271" x="700.7136" y="627.2311">1</text><text fill="#000000" font-family="sans-serif" font-size="13" lengthAdjust="spacing" textLength="20.6426" x="339.7089" y="774.4062">0,n</text></g><!--link commandes_client to promotions--><g id="link_commandes_client_promotions"><path codeLine="132" d="M215.05,663.55 C187.86,701.77 155.99,746.56 131.5,780.98 " fill="transparent" id="commandes_client-promotions" style="stroke:#181818;stroke-width:1;"/><text fill="#000000" font-family="sans-serif" font-size="13" lengthAdjust="spacing" textLength="59.4331" x="167" y="739.0669">b&#233;n&#233;ficie</text><text fill="#000000" font-family="sans-serif" font-size="13" lengthAdjust="spacing" textLength="8.271" x="201.4573" y="683.7826">1</text><text fill="#000000" font-family="sans-serif" font-size="13" lengthAdjust="spacing" textLength="20.6743" x="115.3203" y="769.8408">0,1</text></g><!--link commandes_fournisseur to order_items_fournisseur--><g id="link_commandes_fournisseur_order_items_fournisseur"><path codeLine="133" d="M1472.58,647.02 C1447.47,685.51 1425.3832,719.3832 1400.2732,757.8832 " fill="transparent" id="commandes_fournisseur-to-order_items_fournisseur" style="stroke:#181818;stroke-width:1;"/><line style="stroke:#181818;stroke-width:1;" x1="1394.8103" x2="1395.4656" y1="766.2592" y2="776.2377"/><line style="stroke:#181818;stroke-width:1;" x1="1394.8103" x2="1385.4144" y1="766.2592" y2="769.6823"/><line style="stroke:#181818;stroke-width:1;" x1="1394.8103" x2="1390.44" y1="766.2592" y2="772.96"/><ellipse cx="1398.088" cy="761.2336" fill="transparent" rx="4" ry="4" style="stroke:#181818;stroke-width:1;"/><text fill="#000000" font-family="sans-serif" font-size="13" lengthAdjust="spacing" textLength="53.3838" x="1417" y="739.0669">contient</text><text fill="#000000" font-family="sans-serif" font-size="13" lengthAdjust="spacing" textLength="8.271" x="1459.3458" y="667.3939">1</text><text fill="#000000" font-family="sans-serif" font-size="13" lengthAdjust="spacing" textLength="20.6426" x="1373.9143" y="762.1283">0,n</text></g><!--link books to order_items_fournisseur--><g id="link_books_order_items_fournisseur"><path codeLine="134" d="M939.29,635.89 C1018.84,673.55 1128.3,725.8 1224,773 C1229.68,775.8 1219.3903,770.6302 1225.2503,773.5602 " fill="transparent" id="books-to-order_items_fournisseur" style="stroke:#181818;stroke-width:1;"/><line style="stroke:#181818;stroke-width:1;" x1="1234.1946" x2="1244.0333" y1="778.0323" y2="776.2434"/><line style="stroke:#181818;stroke-width:1;" x1="1234.1946" x2="1238.6667" y1="778.0323" y2="786.9766"/><line style="stroke:#181818;stroke-width:1;" x1="1234.1946" x2="1241.35" y1="778.0323" y2="781.61"/><ellipse cx="1228.828" cy="775.349" fill="transparent" rx="4" ry="4" style="stroke:#181818;stroke-width:1;"/><text fill="#000000" font-family="sans-serif" font-size="13" lengthAdjust="spacing" textLength="57.5986" x="1160" y="739.0669">est_dans</text><text fill="#000000" font-family="sans-serif" font-size="13" lengthAdjust="spacing" textLength="8.271" x="947.3886" y="636.1789">1</text><text fill="#000000" font-family="sans-serif" font-size="13" lengthAdjust="spacing" textLength="20.6426" x="1212.7339" y="774.0088">0,n</text></g><!--link commandes_fournisseur to fournisseur--><g id="link_commandes_fournisseur_fournisseur"><path codeLine="135" d="M1531.32,647.02 C1541.82,685.51 1555.17,734.46 1565.67,772.96 " fill="transparent" id="commandes_fournisseur-fournisseur" style="stroke:#181818;stroke-width:1;"/><text fill="#000000" font-family="sans-serif" font-size="13" lengthAdjust="spacing" textLength="37.7622" x="1557" y="739.0669">passe</text><text fill="#000000" font-family="sans-serif" font-size="13" lengthAdjust="spacing" textLength="8.271" x="1524.8776" y="667.3939">1</text><text fill="#000000" font-family="sans-serif" font-size="13" lengthAdjust="spacing" textLength="8.271" x="1555.3446" y="762.1283">1</text></g><!--SRC=[bLLBRjmm3Dtx58AzI5jaW6OxkwBPzW1T6HgRao5YIwuavuCavsdd7BvOASaVsL9-AvCKzVX4ytF1VlsyPjV8RnHlsL4gzljsr-11SVN8xj6Ss9Uho- -NuYkhkAfHy0ODWcPSr8nhBIla1gLWWhUWimo4GVF8ygf14dLEFcoKsLF6s3UiIw-J8cIxA9s2bMwWWUua1ImcNjSAj5uCrGcFeChwWX-F75NWMb2SNeFANXPELlUCd3JpSNwCGSkniKJeMVTIrJCdptG4LRA14DJg7jH9CwZpOumo2Kq3qJNU6-YLk-V5-Q9Nn-pCofYTMJ-Wd9G0zGQ46jbuSKPrQi37wy7LWvItfJRSzBganuFd5bbdmD0Ou7hppflJy5lW3MG4jeLP09QhJhD5WuQgm6ekP_WmoQWFOfB_zDp28PGewCER-81N9p1KMT519TkMIX_qT5I4lwm8Cbs4Bogs6GlUr2dPIjj3_c6BEhzkDjcIbpMi39tiLKLO_8Qg35giRF2Q6oZXeKFbkZCCjxp0DujlqOrnwTNn8EWvIo0s5s5Z5nlIhIH-mfH66cvRR4n5WtSAPhgL6iuHMvUj4WsqAxwnUMQy76t89IbFXJF-uU5Stj4XJDNJKu7OmRBgUBX3k1zxtijBrpizbOufa90EtRAnFss3VQIVAL3hQJO4-XmZi8rJOcrnSsnZMuRfsZvDrD2Qh9KjiUH9N3NhQElIMPyLqSksHVEn8jaIVUKiKIuwmUWDid7bqD3WwTAvO3-MLQdVMwj-bKvRCx_AsMuddrXExddSgNkti23pEyrxkyy4G0vIw-5VdV3nEslFUERdQKuHNdQxvsTtEcwcFHlEbK9JTbmb_SPTGp0TkHXNzIc_SEYJinVVTHqNZxr0aeBfMfI9JQOICs9FwHChVX-u0jgKDHVwtO3JCDYJDFoL-4gGsEqLOEjFGh0GzkmmdCLmFcA5aALxy8qdXMwVISNwNY8VSNptMTzpPVeV]--></g></svg>