<svg xmlns="http://www.w3.org/2000/svg" xmlns:xlink="http://www.w3.org/1999/xlink" contentStyleType="text/css" data-diagram-type="CLASS" height="868px" preserveAspectRatio="none" style="width:1273px;height:868px;background:#FFFFFF;" version="1.1" viewBox="0 0 1273 868" width="1273px" zoomAndPan="magnify"><defs/><g><!--class Client--><g id="elem_Client"><rect codeLine="4" fill="#F1F1F1" height="145.7813" id="Client" rx="2.5" ry="2.5" style="stroke:#181818;stroke-width:0.5;" width="168.4131" x="212" y="386"/><ellipse cx="271.6914" cy="402" fill="#ADD1B2" rx="11" ry="11" style="stroke:#181818;stroke-width:1;"/><path d="M275.8008,408 L268.082,408 L268.082,395.6094 L275.8008,395.6094 L275.8008,397.7656 L270.5352,397.7656 L270.5352,400.4375 L275.3008,400.4375 L275.3008,402.5938 L270.5352,402.5938 L270.5352,405.8438 L275.8008,405.8438 L275.8008,408 Z " fill="#000000"/><text fill="#000000" font-family="sans-serif" font-size="14" lengthAdjust="spacing" textLength="40.5303" x="292.1914" y="406.8467">Client</text><line style="stroke:#181818;stroke-width:0.5;" x1="213" x2="379.4131" y1="418" y2="418"/><ellipse cx="223" cy="431.6484" fill="#000000" rx="3" ry="3" style="stroke:#000000;stroke-width:1;"/><text fill="#000000" font-family="sans-serif" font-size="14" lengthAdjust="spacing" textLength="58.2285" x="232" y="434.9951">id_client</text><text fill="#000000" font-family="sans-serif" font-size="14" lengthAdjust="spacing" textLength="76.5283" x="232" y="451.292">nom_client</text><text fill="#000000" font-family="sans-serif" font-size="14" lengthAdjust="spacing" textLength="99.7842" x="232" y="467.5889">prenom_client</text><text fill="#000000" font-family="sans-serif" font-size="14" lengthAdjust="spacing" textLength="115.8691" x="232" y="483.8857">telephone_client</text><text fill="#000000" font-family="sans-serif" font-size="14" lengthAdjust="spacing" textLength="100.7617" x="232" y="500.1826">address_client</text><text fill="#000000" font-family="sans-serif" font-size="14" lengthAdjust="spacing" textLength="142.4131" x="232" y="516.4795">chiffre_affaire_client</text><line style="stroke:#181818;stroke-width:0.5;" x1="213" x2="379.4131" y1="523.7813" y2="523.7813"/></g><!--class User--><g id="elem_User"><rect codeLine="13" fill="#F1F1F1" height="129.4844" id="User" rx="2.5" ry="2.5" style="stroke:#181818;stroke-width:0.5;" width="92.7119" x="249.5" y="592"/><ellipse cx="277.4608" cy="608" fill="#ADD1B2" rx="11" ry="11" style="stroke:#181818;stroke-width:1;"/><path d="M281.5702,614 L273.8514,614 L273.8514,601.6094 L281.5702,601.6094 L281.5702,603.7656 L276.3045,603.7656 L276.3045,606.4375 L281.0702,606.4375 L281.0702,608.5938 L276.3045,608.5938 L276.3045,611.8438 L281.5702,611.8438 L281.5702,614 Z " fill="#000000"/><text fill="#000000" font-family="sans-serif" font-size="14" lengthAdjust="spacing" textLength="31.9102" x="294.341" y="612.8467">User</text><line style="stroke:#181818;stroke-width:0.5;" x1="250.5" x2="341.2119" y1="624" y2="624"/><ellipse cx="260.5" cy="637.6484" fill="#000000" rx="3" ry="3" style="stroke:#000000;stroke-width:1;"/><text fill="#000000" font-family="sans-serif" font-size="14" lengthAdjust="spacing" textLength="50.3125" x="269.5" y="640.9951">id_user</text><text fill="#000000" font-family="sans-serif" font-size="14" lengthAdjust="spacing" textLength="38.6094" x="269.5" y="657.292">email</text><text fill="#000000" font-family="sans-serif" font-size="14" lengthAdjust="spacing" textLength="66.7119" x="269.5" y="673.5889">password</text><text fill="#000000" font-family="sans-serif" font-size="14" lengthAdjust="spacing" textLength="54.332" x="269.5" y="689.8857">prenom</text><text fill="#000000" font-family="sans-serif" font-size="14" lengthAdjust="spacing" textLength="31.0762" x="269.5" y="706.1826">nom</text><line style="stroke:#181818;stroke-width:0.5;" x1="250.5" x2="341.2119" y1="713.4844" y2="713.4844"/></g><!--class Role--><g id="elem_Role"><rect codeLine="21" fill="#F1F1F1" height="80.5938" id="Role" rx="2.5" ry="2.5" style="stroke:#181818;stroke-width:0.5;" width="101.4961" x="245.5" y="781"/><ellipse cx="277.9151" cy="797" fill="#ADD1B2" rx="11" ry="11" style="stroke:#181818;stroke-width:1;"/><path d="M282.0245,803 L274.3057,803 L274.3057,790.6094 L282.0245,790.6094 L282.0245,792.7656 L276.7588,792.7656 L276.7588,795.4375 L281.5245,795.4375 L281.5245,797.5938 L276.7588,797.5938 L276.7588,800.8438 L282.0245,800.8438 L282.0245,803 Z " fill="#000000"/><text fill="#000000" font-family="sans-serif" font-size="14" lengthAdjust="spacing" textLength="30.7959" x="295.7851" y="801.8467">Role</text><line style="stroke:#181818;stroke-width:0.5;" x1="246.5" x2="345.9961" y1="813" y2="813"/><ellipse cx="256.5" cy="826.6484" fill="#000000" rx="3" ry="3" style="stroke:#000000;stroke-width:1;"/><text fill="#000000" font-family="sans-serif" font-size="14" lengthAdjust="spacing" textLength="46.6006" x="265.5" y="829.9951">id_role</text><text fill="#000000" font-family="sans-serif" font-size="14" lengthAdjust="spacing" textLength="75.4961" x="265.5" y="846.292">libelle_role</text><line style="stroke:#181818;stroke-width:0.5;" x1="246.5" x2="345.9961" y1="853.5938" y2="853.5938"/></g><!--class Auteur--><g id="elem_Auteur"><rect codeLine="26" fill="#F1F1F1" height="113.1875" id="Auteur" rx="2.5" ry="2.5" style="stroke:#181818;stroke-width:0.5;" width="133.5156" x="915" y="402.5"/><ellipse cx="954.4503" cy="418.5" fill="#ADD1B2" rx="11" ry="11" style="stroke:#181818;stroke-width:1;"/><path d="M958.5597,424.5 L950.8409,424.5 L950.8409,412.1094 L958.5597,412.1094 L958.5597,414.2656 L953.294,414.2656 L953.294,416.9375 L958.0597,416.9375 L958.0597,419.0938 L953.294,419.0938 L953.294,422.3438 L958.5597,422.3438 L958.5597,424.5 Z " fill="#000000"/><text fill="#000000" font-family="sans-serif" font-size="14" lengthAdjust="spacing" textLength="47.1816" x="973.8837" y="423.3467">Auteur</text><line style="stroke:#181818;stroke-width:0.5;" x1="916" x2="1047.5156" y1="434.5" y2="434.5"/><ellipse cx="926" cy="448.1484" fill="#000000" rx="3" ry="3" style="stroke:#000000;stroke-width:1;"/><text fill="#000000" font-family="sans-serif" font-size="14" lengthAdjust="spacing" textLength="65.96" x="935" y="451.4951">id_auteur</text><text fill="#000000" font-family="sans-serif" font-size="14" lengthAdjust="spacing" textLength="84.2598" x="935" y="467.792">nom_auteur</text><text fill="#000000" font-family="sans-serif" font-size="14" lengthAdjust="spacing" textLength="107.5156" x="935" y="484.0889">prenom_auteur</text><text fill="#000000" font-family="sans-serif" font-size="14" lengthAdjust="spacing" textLength="74.5254" x="935" y="500.3857">bio_auteur</text><line style="stroke:#181818;stroke-width:0.5;" x1="916" x2="1047.5156" y1="507.6875" y2="507.6875"/></g><!--class Genre--><g id="elem_Genre"><rect codeLine="33" fill="#F1F1F1" height="80.5938" id="Genre" rx="2.5" ry="2.5" style="stroke:#181818;stroke-width:0.5;" width="115.4141" x="414.5" y="418.5"/><ellipse cx="447.8195" cy="434.5" fill="#ADD1B2" rx="11" ry="11" style="stroke:#181818;stroke-width:1;"/><path d="M451.9289,440.5 L444.2101,440.5 L444.2101,428.1094 L451.9289,428.1094 L451.9289,430.2656 L446.6632,430.2656 L446.6632,432.9375 L451.4289,432.9375 L451.4289,435.0938 L446.6632,435.0938 L446.6632,438.3438 L451.9289,438.3438 L451.9289,440.5 Z " fill="#000000"/><text fill="#000000" font-family="sans-serif" font-size="14" lengthAdjust="spacing" textLength="42.7041" x="465.8905" y="439.3467">Genre</text><line style="stroke:#181818;stroke-width:0.5;" x1="415.5" x2="528.9141" y1="450.5" y2="450.5"/><ellipse cx="425.5" cy="464.1484" fill="#000000" rx="3" ry="3" style="stroke:#000000;stroke-width:1;"/><text fill="#000000" font-family="sans-serif" font-size="14" lengthAdjust="spacing" textLength="60.5186" x="434.5" y="467.4951">id_genre</text><text fill="#000000" font-family="sans-serif" font-size="14" lengthAdjust="spacing" textLength="89.4141" x="434.5" y="483.792">libelle_genre</text><line style="stroke:#181818;stroke-width:0.5;" x1="415.5" x2="528.9141" y1="491.0938" y2="491.0938"/></g><!--class Book--><g id="elem_Book"><rect codeLine="38" fill="#F1F1F1" height="162.0781" id="Book" rx="2.5" ry="2.5" style="stroke:#181818;stroke-width:0.5;" width="222.4922" x="537" y="164"/><ellipse cx="626.5747" cy="180" fill="#ADD1B2" rx="11" ry="11" style="stroke:#181818;stroke-width:1;"/><path d="M630.6841,186 L622.9653,186 L622.9653,173.6094 L630.6841,173.6094 L630.6841,175.7656 L625.4185,175.7656 L625.4185,178.4375 L630.1841,178.4375 L630.1841,180.5938 L625.4185,180.5938 L625.4185,183.8438 L630.6841,183.8438 L630.6841,186 Z " fill="#000000"/><text fill="#000000" font-family="sans-serif" font-size="14" lengthAdjust="spacing" textLength="34.8428" x="647.0747" y="184.8467">Book</text><line style="stroke:#181818;stroke-width:0.5;" x1="538" x2="758.4922" y1="196" y2="196"/><ellipse cx="548" cy="209.6484" fill="#000000" rx="3" ry="3" style="stroke:#000000;stroke-width:1;"/><text fill="#000000" font-family="sans-serif" font-size="14" lengthAdjust="spacing" textLength="61.1953" x="557" y="212.9951">id_books</text><text fill="#000000" font-family="sans-serif" font-size="14" lengthAdjust="spacing" textLength="70.3623" x="557" y="229.292">titre_book</text><text fill="#000000" font-family="sans-serif" font-size="14" lengthAdjust="spacing" textLength="67.9424" x="557" y="245.5889">prix_book</text><text fill="#000000" font-family="sans-serif" font-size="14" lengthAdjust="spacing" textLength="70.0684" x="557" y="261.8857">isbn_book</text><text fill="#000000" font-family="sans-serif" font-size="14" lengthAdjust="spacing" textLength="149.208" x="557" y="278.1826">quantitie_initial_book</text><text fill="#000000" font-family="sans-serif" font-size="14" lengthAdjust="spacing" textLength="164.3291" x="557" y="294.4795">quantitie_acheter_book</text><text fill="#000000" font-family="sans-serif" font-size="14" lengthAdjust="spacing" textLength="196.4922" x="557" y="310.7764">quantitie_commandes_book</text><line style="stroke:#181818;stroke-width:0.5;" x1="538" x2="758.4922" y1="318.0781" y2="318.0781"/></g><!--class BookStatusOrder--><g id="elem_BookStatusOrder"><rect codeLine="48" fill="#F1F1F1" height="80.5938" id="BookStatusOrder" rx="2.5" ry="2.5" style="stroke:#181818;stroke-width:0.5;" width="162.2676" x="565" y="418.5"/><ellipse cx="584.852" cy="434.5" fill="#ADD1B2" rx="11" ry="11" style="stroke:#181818;stroke-width:1;"/><path d="M588.9614,440.5 L581.2426,440.5 L581.2426,428.1094 L588.9614,428.1094 L588.9614,430.2656 L583.6958,430.2656 L583.6958,432.9375 L588.4614,432.9375 L588.4614,435.0938 L583.6958,435.0938 L583.6958,438.3438 L588.9614,438.3438 L588.9614,440.5 Z " fill="#000000"/><text fill="#000000" font-family="sans-serif" font-size="14" lengthAdjust="spacing" textLength="119.4854" x="599.9302" y="439.3467">BookStatusOrder</text><line style="stroke:#181818;stroke-width:0.5;" x1="566" x2="726.2676" y1="450.5" y2="450.5"/><ellipse cx="576" cy="464.1484" fill="#000000" rx="3" ry="3" style="stroke:#000000;stroke-width:1;"/><text fill="#000000" font-family="sans-serif" font-size="14" lengthAdjust="spacing" textLength="107.3721" x="585" y="467.4951">id_status_order</text><text fill="#000000" font-family="sans-serif" font-size="14" lengthAdjust="spacing" textLength="136.2676" x="585" y="483.792">libelle_status_order</text><line style="stroke:#181818;stroke-width:0.5;" x1="566" x2="726.2676" y1="491.0938" y2="491.0938"/></g><!--class BookStatus--><g id="elem_BookStatus"><rect codeLine="53" fill="#F1F1F1" height="80.5938" id="BookStatus" rx="2.5" ry="2.5" style="stroke:#181818;stroke-width:0.5;" width="117.6904" x="762" y="418.5"/><ellipse cx="779.8063" cy="434.5" fill="#ADD1B2" rx="11" ry="11" style="stroke:#181818;stroke-width:1;"/><path d="M783.9157,440.5 L776.197,440.5 L776.197,428.1094 L783.9157,428.1094 L783.9157,430.2656 L778.6501,430.2656 L778.6501,432.9375 L783.4157,432.9375 L783.4157,435.0938 L778.6501,435.0938 L778.6501,438.3438 L783.9157,438.3438 L783.9157,440.5 Z " fill="#000000"/><text fill="#000000" font-family="sans-serif" font-size="14" lengthAdjust="spacing" textLength="79.4541" x="794.43" y="439.3467">BookStatus</text><line style="stroke:#181818;stroke-width:0.5;" x1="763" x2="878.6904" y1="450.5" y2="450.5"/><ellipse cx="773" cy="464.1484" fill="#000000" rx="3" ry="3" style="stroke:#000000;stroke-width:1;"/><text fill="#000000" font-family="sans-serif" font-size="14" lengthAdjust="spacing" textLength="62.7949" x="782" y="467.4951">id_status</text><text fill="#000000" font-family="sans-serif" font-size="14" lengthAdjust="spacing" textLength="91.6904" x="782" y="483.792">libelle_status</text><line style="stroke:#181818;stroke-width:0.5;" x1="763" x2="878.6904" y1="491.0938" y2="491.0938"/></g><!--class CommandeClient--><g id="elem_CommandeClient"><rect codeLine="58" fill="#F1F1F1" height="129.4844" id="CommandeClient" rx="2.5" ry="2.5" style="stroke:#181818;stroke-width:0.5;" width="190.7051" x="197.5" y="180.5"/><ellipse cx="229.4229" cy="196.5" fill="#ADD1B2" rx="11" ry="11" style="stroke:#181818;stroke-width:1;"/><path d="M233.5323,202.5 L225.8135,202.5 L225.8135,190.1094 L233.5323,190.1094 L233.5323,192.2656 L228.2667,192.2656 L228.2667,194.9375 L233.0323,194.9375 L233.0323,197.0938 L228.2667,197.0938 L228.2667,200.3438 L233.5323,200.3438 L233.5323,202.5 Z " fill="#000000"/><text fill="#000000" font-family="sans-serif" font-size="14" lengthAdjust="spacing" textLength="121.0986" x="247.1835" y="201.3467">CommandeClient</text><line style="stroke:#181818;stroke-width:0.5;" x1="198.5" x2="387.2051" y1="212.5" y2="212.5"/><ellipse cx="208.5" cy="226.1484" fill="#000000" rx="3" ry="3" style="stroke:#000000;stroke-width:1;"/><text fill="#000000" font-family="sans-serif" font-size="14" lengthAdjust="spacing" textLength="143.7188" x="217.5" y="229.4951">id_commande_client</text><text fill="#000000" font-family="sans-serif" font-size="14" lengthAdjust="spacing" textLength="164.7051" x="217.5" y="245.792">code_commande_client</text><text fill="#000000" font-family="sans-serif" font-size="14" lengthAdjust="spacing" textLength="98.5195" x="217.5" y="262.0889">montant_total</text><text fill="#000000" font-family="sans-serif" font-size="14" lengthAdjust="spacing" textLength="89.0654" x="217.5" y="278.3857">status_livree</text><text fill="#000000" font-family="sans-serif" font-size="14" lengthAdjust="spacing" textLength="96.0313" x="217.5" y="294.6826">date_creation</text><line style="stroke:#181818;stroke-width:0.5;" x1="198.5" x2="387.2051" y1="301.9844" y2="301.9844"/></g><!--class Promotion--><g id="elem_Promotion"><rect codeLine="66" fill="#F1F1F1" height="113.1875" id="Promotion" rx="2.5" ry="2.5" style="stroke:#181818;stroke-width:0.5;" width="170.04" x="7" y="402.5"/><ellipse cx="51.8779" cy="418.5" fill="#ADD1B2" rx="11" ry="11" style="stroke:#181818;stroke-width:1;"/><path d="M55.9873,424.5 L48.2686,424.5 L48.2686,412.1094 L55.9873,412.1094 L55.9873,414.2656 L50.7217,414.2656 L50.7217,416.9375 L55.4873,416.9375 L55.4873,419.0938 L50.7217,419.0938 L50.7217,422.3438 L55.9873,422.3438 L55.9873,424.5 Z " fill="#000000"/><text fill="#000000" font-family="sans-serif" font-size="14" lengthAdjust="spacing" textLength="71.7842" x="72.3779" y="423.3467">Promotion</text><line style="stroke:#181818;stroke-width:0.5;" x1="8" x2="176.04" y1="434.5" y2="434.5"/><ellipse cx="18" cy="448.1484" fill="#000000" rx="3" ry="3" style="stroke:#000000;stroke-width:1;"/><text fill="#000000" font-family="sans-serif" font-size="14" lengthAdjust="spacing" textLength="92.0049" x="27" y="451.4951">id_promotion</text><text fill="#000000" font-family="sans-serif" font-size="14" lengthAdjust="spacing" textLength="112.9912" x="27" y="467.792">code_promotion</text><text fill="#000000" font-family="sans-serif" font-size="14" lengthAdjust="spacing" textLength="144.04" x="27" y="484.0889">pourcentage_remice</text><text fill="#000000" font-family="sans-serif" font-size="14" lengthAdjust="spacing" textLength="109.3955" x="27" y="500.3857">date_expiration</text><line style="stroke:#181818;stroke-width:0.5;" x1="8" x2="176.04" y1="507.6875" y2="507.6875"/></g><!--class OrderItemClient--><g id="elem_OrderItemClient"><rect codeLine="73" fill="#F1F1F1" height="96.8906" id="OrderItemClient" rx="2.5" ry="2.5" style="stroke:#181818;stroke-width:0.5;" width="167.4355" x="386.5" y="7"/><ellipse cx="411.8522" cy="23" fill="#ADD1B2" rx="11" ry="11" style="stroke:#181818;stroke-width:1;"/><path d="M415.9616,29 L408.2428,29 L408.2428,16.6094 L415.9616,16.6094 L415.9616,18.7656 L410.6959,18.7656 L410.6959,21.4375 L415.4616,21.4375 L415.4616,23.5938 L410.6959,23.5938 L410.6959,26.8438 L415.9616,26.8438 L415.9616,29 Z " fill="#000000"/><text fill="#000000" font-family="sans-serif" font-size="14" lengthAdjust="spacing" textLength="112.4307" x="428.1527" y="27.8467">OrderItemClient</text><line style="stroke:#181818;stroke-width:0.5;" x1="387.5" x2="552.9355" y1="39" y2="39"/><ellipse cx="397.5" cy="52.6484" fill="#000000" rx="3" ry="3" style="stroke:#000000;stroke-width:1;"/><text fill="#000000" font-family="sans-serif" font-size="14" lengthAdjust="spacing" textLength="141.4355" x="406.5" y="55.9951">id_order_item_client</text><text fill="#000000" font-family="sans-serif" font-size="14" lengthAdjust="spacing" textLength="105.5674" x="406.5" y="72.292">quantite_vente</text><text fill="#000000" font-family="sans-serif" font-size="14" lengthAdjust="spacing" textLength="87.7803" x="406.5" y="88.5889">prix_unitaire</text><line style="stroke:#181818;stroke-width:0.5;" x1="387.5" x2="552.9355" y1="95.8906" y2="95.8906"/></g><!--class Review--><g id="elem_Review"><rect codeLine="79" fill="#F1F1F1" height="96.8906" id="Review" rx="2.5" ry="2.5" style="stroke:#181818;stroke-width:0.5;" width="119.3516" x="588.5" y="7"/><ellipse cx="620.0476" cy="23" fill="#ADD1B2" rx="11" ry="11" style="stroke:#181818;stroke-width:1;"/><path d="M624.157,29 L616.4382,29 L616.4382,16.6094 L624.157,16.6094 L624.157,18.7656 L618.8914,18.7656 L618.8914,21.4375 L623.657,21.4375 L623.657,23.5938 L618.8914,23.5938 L618.8914,26.8438 L624.157,26.8438 L624.157,29 Z " fill="#000000"/><text fill="#000000" font-family="sans-serif" font-size="14" lengthAdjust="spacing" textLength="50.5791" x="637.7249" y="27.8467">Review</text><line style="stroke:#181818;stroke-width:0.5;" x1="589.5" x2="706.8516" y1="39" y2="39"/><ellipse cx="599.5" cy="52.6484" fill="#000000" rx="3" ry="3" style="stroke:#000000;stroke-width:1;"/><text fill="#000000" font-family="sans-serif" font-size="14" lengthAdjust="spacing" textLength="66.3838" x="608.5" y="55.9951">id_review</text><text fill="#000000" font-family="sans-serif" font-size="14" lengthAdjust="spacing" textLength="31.541" x="608.5" y="72.292">note</text><text fill="#000000" font-family="sans-serif" font-size="14" lengthAdjust="spacing" textLength="93.3516" x="608.5" y="88.5889">commentaire</text><line style="stroke:#181818;stroke-width:0.5;" x1="589.5" x2="706.8516" y1="95.8906" y2="95.8906"/></g><!--class Fournisseur--><g id="elem_Fournisseur"><rect codeLine="85" fill="#F1F1F1" height="96.8906" id="Fournisseur" rx="2.5" ry="2.5" style="stroke:#181818;stroke-width:0.5;" width="182.1328" x="1084" y="410.5"/><ellipse cx="1129.8965" cy="426.5" fill="#ADD1B2" rx="11" ry="11" style="stroke:#181818;stroke-width:1;"/><path d="M1134.0059,432.5 L1126.2871,432.5 L1126.2871,420.1094 L1134.0059,420.1094 L1134.0059,422.2656 L1128.7402,422.2656 L1128.7402,424.9375 L1133.5059,424.9375 L1133.5059,427.0938 L1128.7402,427.0938 L1128.7402,430.3438 L1134.0059,430.3438 L1134.0059,432.5 Z " fill="#000000"/><text fill="#000000" font-family="sans-serif" font-size="14" lengthAdjust="spacing" textLength="81.8398" x="1150.3965" y="431.3467">Fournisseur</text><line style="stroke:#181818;stroke-width:0.5;" x1="1085" x2="1265.1328" y1="442.5" y2="442.5"/><ellipse cx="1095" cy="456.1484" fill="#000000" rx="3" ry="3" style="stroke:#000000;stroke-width:1;"/><text fill="#000000" font-family="sans-serif" font-size="14" lengthAdjust="spacing" textLength="98.4922" x="1104" y="459.4951">id_fournisseur</text><text fill="#000000" font-family="sans-serif" font-size="14" lengthAdjust="spacing" textLength="127.3877" x="1104" y="475.792">libelle_fournisseur</text><text fill="#000000" font-family="sans-serif" font-size="14" lengthAdjust="spacing" textLength="156.1328" x="1104" y="492.0889">telephone_fournisseur</text><line style="stroke:#181818;stroke-width:0.5;" x1="1085" x2="1265.1328" y1="499.3906" y2="499.3906"/></g><!--class CommandeFournisseur--><g id="elem_CommandeFournisseur"><rect codeLine="91" fill="#F1F1F1" height="129.4844" id="CommandeFournisseur" rx="2.5" ry="2.5" style="stroke:#181818;stroke-width:0.5;" width="230.9688" x="927.5" y="180.5"/><ellipse cx="958.9522" cy="196.5" fill="#ADD1B2" rx="11" ry="11" style="stroke:#181818;stroke-width:1;"/><path d="M963.0616,202.5 L955.3429,202.5 L955.3429,190.1094 L963.0616,190.1094 L963.0616,192.2656 L957.796,192.2656 L957.796,194.9375 L962.5616,194.9375 L962.5616,197.0938 L957.796,197.0938 L957.796,200.3438 L963.0616,200.3438 L963.0616,202.5 Z " fill="#000000"/><text fill="#000000" font-family="sans-serif" font-size="14" lengthAdjust="spacing" textLength="162.4082" x="976.6083" y="201.3467">CommandeFournisseur</text><line style="stroke:#181818;stroke-width:0.5;" x1="928.5" x2="1157.4688" y1="212.5" y2="212.5"/><ellipse cx="938.5" cy="226.1484" fill="#000000" rx="3" ry="3" style="stroke:#000000;stroke-width:1;"/><text fill="#000000" font-family="sans-serif" font-size="14" lengthAdjust="spacing" textLength="183.9824" x="947.5" y="229.4951">id_commande_fournisseur</text><text fill="#000000" font-family="sans-serif" font-size="14" lengthAdjust="spacing" textLength="204.9688" x="947.5" y="245.792">code_commande_fournisseur</text><text fill="#000000" font-family="sans-serif" font-size="14" lengthAdjust="spacing" textLength="98.5195" x="947.5" y="262.0889">montant_total</text><text fill="#000000" font-family="sans-serif" font-size="14" lengthAdjust="spacing" textLength="89.0654" x="947.5" y="278.3857">status_livree</text><text fill="#000000" font-family="sans-serif" font-size="14" lengthAdjust="spacing" textLength="96.0313" x="947.5" y="294.6826">date_creation</text><line style="stroke:#181818;stroke-width:0.5;" x1="928.5" x2="1157.4688" y1="301.9844" y2="301.9844"/></g><!--class OrderItemsFournisseur--><g id="elem_OrderItemsFournisseur"><rect codeLine="99" fill="#F1F1F1" height="96.8906" id="OrderItemsFournisseur" rx="2.5" ry="2.5" style="stroke:#181818;stroke-width:0.5;" width="214.9932" x="772.5" y="7"/><ellipse cx="797.3815" cy="23" fill="#ADD1B2" rx="11" ry="11" style="stroke:#181818;stroke-width:1;"/><path d="M801.4909,29 L793.7722,29 L793.7722,16.6094 L801.4909,16.6094 L801.4909,18.7656 L796.2253,18.7656 L796.2253,21.4375 L800.9909,21.4375 L800.9909,23.5938 L796.2253,23.5938 L796.2253,26.8438 L801.4909,26.8438 L801.4909,29 Z " fill="#000000"/><text fill="#000000" font-family="sans-serif" font-size="14" lengthAdjust="spacing" textLength="161.0342" x="813.5774" y="27.8467">OrderItemsFournisseur</text><line style="stroke:#181818;stroke-width:0.5;" x1="773.5" x2="986.4932" y1="39" y2="39"/><ellipse cx="783.5" cy="52.6484" fill="#000000" rx="3" ry="3" style="stroke:#000000;stroke-width:1;"/><text fill="#000000" font-family="sans-serif" font-size="14" lengthAdjust="spacing" textLength="188.9932" x="792.5" y="55.9951">id_order_items_fournisseur</text><text fill="#000000" font-family="sans-serif" font-size="14" lengthAdjust="spacing" textLength="104.9111" x="792.5" y="72.292">quantité_achat</text><text fill="#000000" font-family="sans-serif" font-size="14" lengthAdjust="spacing" textLength="73.0352" x="792.5" y="88.5889">prix_achat</text><line style="stroke:#181818;stroke-width:0.5;" x1="773.5" x2="986.4932" y1="95.8906" y2="95.8906"/></g><!--class Payment--><g id="elem_Payment"><rect codeLine="105" fill="#F1F1F1" height="64.2969" id="Payment" rx="2.5" ry="2.5" style="stroke:#181818;stroke-width:0.5;" width="126.748" x="224.5" y="23.5"/><ellipse cx="254.2727" cy="39.5" fill="#ADD1B2" rx="11" ry="11" style="stroke:#181818;stroke-width:1;"/><path d="M258.382,45.5 L250.6633,45.5 L250.6633,33.1094 L258.382,33.1094 L258.382,35.2656 L253.1164,35.2656 L253.1164,37.9375 L257.882,37.9375 L257.882,40.0938 L253.1164,40.0938 L253.1164,43.3438 L258.382,43.3438 L258.382,45.5 Z " fill="#000000"/><text fill="#000000" font-family="sans-serif" font-size="14" lengthAdjust="spacing" textLength="61.9199" x="271.5555" y="44.3467">Payment</text><line style="stroke:#181818;stroke-width:0.5;" x1="225.5" x2="350.248" y1="55.5" y2="55.5"/><ellipse cx="235.5" cy="69.1484" fill="#000000" rx="3" ry="3" style="stroke:#000000;stroke-width:1;"/><text fill="#000000" font-family="sans-serif" font-size="14" lengthAdjust="spacing" textLength="100.748" x="244.5" y="72.4951">num_payment</text><line style="stroke:#181818;stroke-width:0.5;" x1="225.5" x2="350.248" y1="79.7969" y2="79.7969"/></g><!--link Client to User--><g id="link_Client_User"><path codeLine="111" d="M296,532.26 C296,551.8 296,572.77 296,591.82 " fill="transparent" id="Client-User" style="stroke:#181818;stroke-width:1;"/><text fill="#000000" font-family="sans-serif" font-size="13" lengthAdjust="spacing" textLength="53.9995" x="297" y="558.1069">possède</text><text fill="#000000" font-family="sans-serif" font-size="13" lengthAdjust="spacing" textLength="20.6743" x="275.0902" y="551.7882">1,1</text><text fill="#000000" font-family="sans-serif" font-size="13" lengthAdjust="spacing" textLength="20.6426" x="274.9571" y="580.973">0,n</text></g><!--link User to Role--><g id="link_User_Role"><path codeLine="112" d="M296,721.24 C296,741.28 296,762.79 296,780.73 " fill="transparent" id="User-Role" style="stroke:#181818;stroke-width:1;"/><text fill="#000000" font-family="sans-serif" font-size="13" lengthAdjust="spacing" textLength="7.9663" x="297" y="747.0569">a</text><text fill="#000000" font-family="sans-serif" font-size="13" lengthAdjust="spacing" textLength="20.6743" x="274.8994" y="741.6393">1,1</text><text fill="#000000" font-family="sans-serif" font-size="13" lengthAdjust="spacing" textLength="20.6743" x="274.3585" y="769.8468">1,1</text></g><!--link Book to Auteur--><g id="link_Book_Auteur"><path codeLine="113" d="M759.14,315 C834.79,315 921.25,315 921.25,315 C921.25,315 921.25,361.84 921.25,402.09 " fill="transparent" id="Book-Auteur" style="stroke:#181818;stroke-width:1;"/><text fill="#000000" font-family="sans-serif" font-size="13" lengthAdjust="spacing" textLength="54.8945" x="828.74" y="311.0669">écrit par</text><text fill="#000000" font-family="sans-serif" font-size="13" lengthAdjust="spacing" textLength="20.6426" x="767.6629" y="316.4633">0,n</text><text fill="#000000" font-family="sans-serif" font-size="13" lengthAdjust="spacing" textLength="20.6743" x="892.698" y="391.3036">1,1</text></g><!--link Book to Genre--><g id="link_Book_Genre"><path codeLine="114" d="M551,326.21 C551,386.75 551,459 551,459 C551,459 541.88,459 529.83,459 " fill="transparent" id="Book-Genre" style="stroke:#181818;stroke-width:1;"/><text fill="#000000" font-family="sans-serif" font-size="13" lengthAdjust="spacing" textLength="75.6323" x="475" y="399.2569">classé dans</text><text fill="#000000" font-family="sans-serif" font-size="13" lengthAdjust="spacing" textLength="20.6426" x="521.477" y="346.1801">0,n</text><text fill="#000000" font-family="sans-serif" font-size="13" lengthAdjust="spacing" textLength="20.6743" x="536.4337" y="455.0463">1,1</text></g><!--link Book to BookStatusOrder--><g id="link_Book_BookStatusOrder"><path codeLine="115" d="M646,326.21 C646,357.66 646,392.27 646,418.28 " fill="transparent" id="Book-BookStatusOrder" style="stroke:#181818;stroke-width:1;"/><text fill="#000000" font-family="sans-serif" font-size="13" lengthAdjust="spacing" textLength="150.2236" x="495" y="368.3069">commande avec statut</text><text fill="#000000" font-family="sans-serif" font-size="13" lengthAdjust="spacing" textLength="20.6426" x="624.9379" y="346.1801">0,n</text><text fill="#000000" font-family="sans-serif" font-size="13" lengthAdjust="spacing" textLength="20.6743" x="624.3774" y="407.4051">1,1</text></g><!--link Book to BookStatus--><g id="link_Book_BookStatus"><path codeLine="116" d="M759.1,321 C765.26,321 769,321 769,321 C769,321 769,377.64 769,418.34 " fill="transparent" id="Book-BookStatus" style="stroke:#181818;stroke-width:1;"/><text fill="#000000" font-family="sans-serif" font-size="13" lengthAdjust="spacing" textLength="50.3687" x="718" y="360.7869">a statut</text><text fill="#000000" font-family="sans-serif" font-size="13" lengthAdjust="spacing" textLength="20.6426" x="767.6201" y="338.9399">0,n</text><text fill="#000000" font-family="sans-serif" font-size="13" lengthAdjust="spacing" textLength="20.6743" x="738.8127" y="407.475">1,1</text></g><!--link CommandeClient to Client--><g id="link_CommandeClient_Client"><path codeLine="117" d="M296,309.79 C296,333.78 296,361.14 296,385.82 " fill="transparent" id="CommandeClient-Client" style="stroke:#181818;stroke-width:1;"/><text fill="#000000" font-family="sans-serif" font-size="13" lengthAdjust="spacing" textLength="37.7622" x="258" y="343.8669">passe</text><text fill="#000000" font-family="sans-serif" font-size="13" lengthAdjust="spacing" textLength="20.6426" x="275.2448" y="330.1951">0,n</text><text fill="#000000" font-family="sans-serif" font-size="13" lengthAdjust="spacing" textLength="20.6743" x="275.0285" y="374.9623">1,1</text></g><!--link CommandeClient to Promotion--><g id="link_CommandeClient_Promotion"><path codeLine="118" d="M204.75,309.79 C204.75,372.77 204.75,459 204.75,459 C204.75,459 193.04,459 177.17,459 " fill="transparent" id="CommandeClient-Promotion" style="stroke:#181818;stroke-width:1;"/><text fill="#000000" font-family="sans-serif" font-size="13" lengthAdjust="spacing" textLength="38.9429" x="165.75" y="394.2469">utilise</text><text fill="#000000" font-family="sans-serif" font-size="13" lengthAdjust="spacing" textLength="20.6426" x="173.444" y="330.1951">0,n</text><text fill="#000000" font-family="sans-serif" font-size="13" lengthAdjust="spacing" textLength="20.6743" x="185.0775" y="455.4435">0,1</text></g><!--link OrderItemClient to CommandeClient--><g id="link_OrderItemClient_CommandeClient"><path codeLine="119" d="M386.13,96 C375.92,96 369,96 369,96 C369,96 369,139.93 369,180.08 " fill="transparent" id="OrderItemClient-CommandeClient" style="stroke:#181818;stroke-width:1;"/><text fill="#000000" font-family="sans-serif" font-size="13" lengthAdjust="spacing" textLength="27.3203" x="341" y="125.5369">lié à</text><text fill="#000000" font-family="sans-serif" font-size="13" lengthAdjust="spacing" textLength="20.6426" x="359.1578" y="96.6332">0,n</text><text fill="#000000" font-family="sans-serif" font-size="13" lengthAdjust="spacing" textLength="20.6743" x="355.8562" y="169.6605">1,1</text></g><!--link OrderItemClient to Book--><g id="link_OrderItemClient_Book"><path codeLine="120" d="M545.25,104.3 C545.25,122.4 545.25,143.44 545.25,163.65 " fill="transparent" id="OrderItemClient-Book" style="stroke:#181818;stroke-width:1;"/><text fill="#000000" font-family="sans-serif" font-size="13" lengthAdjust="spacing" textLength="60.0679" x="546.25" y="130.0469">concerne</text><text fill="#000000" font-family="sans-serif" font-size="13" lengthAdjust="spacing" textLength="20.6426" x="534.0319" y="123.9485">0,n</text><text fill="#000000" font-family="sans-serif" font-size="13" lengthAdjust="spacing" textLength="20.6743" x="515.2163" y="152.8061">1,1</text></g><!--link Review to Client--><g id="link_Review_Client"><path codeLine="121" d="M707.78,56 C736.81,56 765.5,56 765.5,56 C765.5,56 765.5,395 765.5,395 C765.5,395 515.32,395 380.21,395 " fill="transparent" id="Review-Client" style="stroke:#181818;stroke-width:1;"/><text fill="#000000" font-family="sans-serif" font-size="13" lengthAdjust="spacing" textLength="54.8945" x="710.5" y="385.3569">écrit par</text><text fill="#000000" font-family="sans-serif" font-size="13" lengthAdjust="spacing" textLength="20.6426" x="715.8651" y="52.2715">0,n</text><text fill="#000000" font-family="sans-serif" font-size="13" lengthAdjust="spacing" textLength="20.6743" x="388.3174" y="385.9375">1,1</text></g><!--link Review to Book--><g id="link_Review_Book"><path codeLine="122" d="M648,104.3 C648,122.4 648,143.44 648,163.65 " fill="transparent" id="Review-Book" style="stroke:#181818;stroke-width:1;"/><text fill="#000000" font-family="sans-serif" font-size="13" lengthAdjust="spacing" textLength="60.0679" x="649" y="130.0469">concerne</text><text fill="#000000" font-family="sans-serif" font-size="13" lengthAdjust="spacing" textLength="20.6426" x="626.6758" y="123.9485">0,n</text><text fill="#000000" font-family="sans-serif" font-size="13" lengthAdjust="spacing" textLength="20.6743" x="627.1175" y="152.8061">1,1</text></g><!--link CommandeFournisseur to Fournisseur--><g id="link_CommandeFournisseur_Fournisseur"><path codeLine="123" d="M1121.25,309.79 C1121.25,342.14 1121.25,380.63 1121.25,410.41 " fill="transparent" id="CommandeFournisseur-Fournisseur" style="stroke:#181818;stroke-width:1;"/><text fill="#000000" font-family="sans-serif" font-size="13" lengthAdjust="spacing" textLength="64.7397" x="1056.25" y="356.1669">émise par</text><text fill="#000000" font-family="sans-serif" font-size="13" lengthAdjust="spacing" textLength="20.6426" x="1109.1804" y="330.1951">0,n</text><text fill="#000000" font-family="sans-serif" font-size="13" lengthAdjust="spacing" textLength="20.6743" x="1092.3232" y="399.6063">1,1</text></g><!--link OrderItemsFournisseur to CommandeFournisseur--><g id="link_OrderItemsFournisseur_CommandeFournisseur"><path codeLine="124" d="M957.5,104.3 C957.5,127.44 957.5,155.4 957.5,180.28 " fill="transparent" id="OrderItemsFournisseur-CommandeFournisseur" style="stroke:#181818;stroke-width:1;"/><text fill="#000000" font-family="sans-serif" font-size="13" lengthAdjust="spacing" textLength="48.147" x="908.5" y="138.3569">détaille</text><text fill="#000000" font-family="sans-serif" font-size="13" lengthAdjust="spacing" textLength="20.6426" x="946.6139" y="123.9485">0,n</text><text fill="#000000" font-family="sans-serif" font-size="13" lengthAdjust="spacing" textLength="20.6743" x="927.0933" y="169.4286">1,1</text></g><!--link OrderItemsFournisseur to Book--><g id="link_OrderItemsFournisseur_Book"><path codeLine="125" d="M826.25,104.31 C826.25,136.59 826.25,173 826.25,173 C826.25,173 795.26,173 759.12,173 " fill="transparent" id="OrderItemsFournisseur-Book" style="stroke:#181818;stroke-width:1;"/><text fill="#000000" font-family="sans-serif" font-size="13" lengthAdjust="spacing" textLength="59.1348" x="766.25" y="185.2869">porte sur</text><text fill="#000000" font-family="sans-serif" font-size="13" lengthAdjust="spacing" textLength="20.6426" x="797.7272" y="123.9598">0,n</text><text fill="#000000" font-family="sans-serif" font-size="13" lengthAdjust="spacing" textLength="20.6743" x="767.6427" y="164.479">1,1</text></g><!--link Payment to CommandeClient--><g id="link_Payment_CommandeClient"><path codeLine="126" d="M288,87.65 C288,112.99 288,149.15 288,180.41 " fill="transparent" id="Payment-CommandeClient" style="stroke:#181818;stroke-width:1;"/><text fill="#000000" font-family="sans-serif" font-size="13" lengthAdjust="spacing" textLength="60.0679" x="227" y="130.0969">concerne</text><text fill="#000000" font-family="sans-serif" font-size="13" lengthAdjust="spacing" textLength="20.6743" x="266.033" y="107.8778">1,1</text><text fill="#000000" font-family="sans-serif" font-size="13" lengthAdjust="spacing" textLength="20.6743" x="266.4124" y="169.5728">1,1</text></g><!--SRC=[dLPBRjim4Dth58Gs1OeKIBO5id1Tjp2G9eMTTYlGqZWcGf4gIJa9YXwWj-YoFeSkrY4fYTGdJT6LzOOpy-OFwticAgfeIJWJO9ug85APWqoIL-JoyfAihc_NjytFhGK92CFC4qcNdE5dIhudXBncHPOxZ438Ce1AmG0Ru50Tf80WeaMXGEiWo0zilrUGqVsUCjLh_aXwxYyQL62k4U4db9HnIqcrVf2gwDbzJB7zHd88zWeHVdAs0yx1mqXvKHke8phgS9je3zf4UxnZiWEHhuyWLCHyPs54xN6a_qxA-w2-GwHj4Pd1ibZaYDbZzytqJdJVtsfgdJ38cC0VogSFD3-00JLzo6LPKb60za-ZWBQ6cbhVg29kWdR2J5ffbD50FEjdx69Y79ijsy0cmzVAeo6I1So8IoaCPfaPQQWTbZO-peuAR2SAQb1R0JLCYfZvivAbjC90MdMYZYuMLB9MEHhJEvmeA5dUUuV7Ygc9VrVEjO5od9ehNSRm9MJHTWgo8sBeXg36Fjk56Kmw71ayHBFki1jUPsWhPACScNt0w0NJUZ3u-o2CcZIKXlsEvJCTd6Ne-pLqEkpbyEs_6zeNNC-64igkHunjyPkJtHzgkkfx44yCVIf39qLTPfMNM2L_M3UhgyNj-kPwInPVLqkoN6pUhwyNL_xOVbfjrjkLkxc97mgINfnTfEJD6vAUd-4WsZD8tfAqabetlmj84oS9Mkx37ZkhHTF4Rbrhsp_xysOLcbEkcC7xgUOrtV6oYZd74zkSiBP2pwkEpeGpQlj7w15otoRpah4BkzSTBl_OgfNQSc1qy1VrSwlUxxErg0tZpDgCjd32CNI9bfnX7PfVBrgwF5qLH0vA89NVpEUpYBinhplrERDSOwFuoR6KcBXdcTs8vqemybCq9pmYU0_-qKqNUuL_D81etBoatPVn-4vhtkVx1m00]--></g></svg>