<svg xmlns="http://www.w3.org/2000/svg" xmlns:xlink="http://www.w3.org/1999/xlink" contentStyleType="text/css" data-diagram-type="CLASS" height="936px" preserveAspectRatio="none" style="width:1674px;height:936px;background:#FFFFFF;" version="1.1" viewBox="0 0 1674 936" width="1674px" zoomAndPan="magnify"><defs/><g><!--class Client--><g id="elem_Client"><rect codeLine="1" fill="#F1F1F1" height="145.7813" id="Client" rx="2.5" ry="2.5" style="stroke:#181818;stroke-width:0.5;" width="213.4824" x="257" y="420"/><ellipse cx="339.2261" cy="436" fill="#ADD1B2" rx="11" ry="11" style="stroke:#181818;stroke-width:1;"/><path d="M343.3354,442 L335.6167,442 L335.6167,429.6094 L343.3354,429.6094 L343.3354,431.7656 L338.0698,431.7656 L338.0698,434.4375 L342.8354,434.4375 L342.8354,436.5938 L338.0698,436.5938 L338.0698,439.8438 L343.3354,439.8438 L343.3354,442 Z " fill="#000000"/><text fill="#000000" font-family="sans-serif" font-size="14" lengthAdjust="spacing" textLength="40.5303" x="359.7261" y="440.8467">Client</text><line style="stroke:#181818;stroke-width:0.5;" x1="258" x2="469.4824" y1="452" y2="452"/><ellipse cx="268" cy="465.6484" fill="transparent" rx="3" ry="3" style="stroke:#038048;stroke-width:1;"/><text fill="#000000" font-family="sans-serif" font-size="14" lengthAdjust="spacing" textLength="90.0977" x="277" y="468.9951">id_client : int</text><text fill="#000000" font-family="sans-serif" font-size="14" lengthAdjust="spacing" textLength="130.334" x="277" y="485.292">nom_client : string</text><text fill="#000000" font-family="sans-serif" font-size="14" lengthAdjust="spacing" textLength="153.5898" x="277" y="501.5889">prenom_client : string</text><text fill="#000000" font-family="sans-serif" font-size="14" lengthAdjust="spacing" textLength="169.6748" x="277" y="517.8857">telephone_client : string</text><text fill="#000000" font-family="sans-serif" font-size="14" lengthAdjust="spacing" textLength="154.5674" x="277" y="534.1826">address_client : string</text><text fill="#000000" font-family="sans-serif" font-size="14" lengthAdjust="spacing" textLength="187.4824" x="277" y="550.4795">chiffre_affaire_client : float</text><line style="stroke:#181818;stroke-width:0.5;" x1="258" x2="469.4824" y1="557.7813" y2="557.7813"/></g><!--class Utilisateur--><g id="elem_Utilisateur"><rect codeLine="10" fill="#F1F1F1" height="129.4844" id="Utilisateur" rx="2.5" ry="2.5" style="stroke:#181818;stroke-width:0.5;" width="146.5176" x="290" y="643"/><ellipse cx="324.1285" cy="659" fill="#ADD1B2" rx="11" ry="11" style="stroke:#181818;stroke-width:1;"/><path d="M328.2379,665 L320.5191,665 L320.5191,652.6094 L328.2379,652.6094 L328.2379,654.7656 L322.9723,654.7656 L322.9723,657.4375 L327.7379,657.4375 L327.7379,659.5938 L322.9723,659.5938 L322.9723,662.8438 L328.2379,662.8438 L328.2379,665 Z " fill="#000000"/><text fill="#000000" font-family="sans-serif" font-size="14" lengthAdjust="spacing" textLength="72.0098" x="342.3793" y="663.8467">Utilisateur</text><line style="stroke:#181818;stroke-width:0.5;" x1="291" x2="435.5176" y1="675" y2="675"/><ellipse cx="301" cy="688.6484" fill="transparent" rx="3" ry="3" style="stroke:#038048;stroke-width:1;"/><text fill="#000000" font-family="sans-serif" font-size="14" lengthAdjust="spacing" textLength="82.1816" x="310" y="691.9951">id_user : int</text><text fill="#000000" font-family="sans-serif" font-size="14" lengthAdjust="spacing" textLength="92.415" x="310" y="708.292">email : string</text><text fill="#000000" font-family="sans-serif" font-size="14" lengthAdjust="spacing" textLength="120.5176" x="310" y="724.5889">password : string</text><text fill="#000000" font-family="sans-serif" font-size="14" lengthAdjust="spacing" textLength="108.1377" x="310" y="740.8857">prenom : string</text><text fill="#000000" font-family="sans-serif" font-size="14" lengthAdjust="spacing" textLength="84.8818" x="310" y="757.1826">nom : string</text><line style="stroke:#181818;stroke-width:0.5;" x1="291" x2="435.5176" y1="764.4844" y2="764.4844"/></g><!--class Role--><g id="elem_Role"><rect codeLine="18" fill="#F1F1F1" height="80.5938" id="Role" rx="2.5" ry="2.5" style="stroke:#181818;stroke-width:0.5;" width="155.3018" x="286" y="849"/><ellipse cx="344.0029" cy="865" fill="#ADD1B2" rx="11" ry="11" style="stroke:#181818;stroke-width:1;"/><path d="M348.1123,871 L340.3936,871 L340.3936,858.6094 L348.1123,858.6094 L348.1123,860.7656 L342.8467,860.7656 L342.8467,863.4375 L347.6123,863.4375 L347.6123,865.5938 L342.8467,865.5938 L342.8467,868.8438 L348.1123,868.8438 L348.1123,871 Z " fill="#000000"/><text fill="#000000" font-family="sans-serif" font-size="14" lengthAdjust="spacing" textLength="30.7959" x="364.5029" y="869.8467">Role</text><line style="stroke:#181818;stroke-width:0.5;" x1="287" x2="440.3018" y1="881" y2="881"/><ellipse cx="297" cy="894.6484" fill="transparent" rx="3" ry="3" style="stroke:#038048;stroke-width:1;"/><text fill="#000000" font-family="sans-serif" font-size="14" lengthAdjust="spacing" textLength="78.4697" x="306" y="897.9951">id_role : int</text><text fill="#000000" font-family="sans-serif" font-size="14" lengthAdjust="spacing" textLength="129.3018" x="306" y="914.292">libelle_role : string</text><line style="stroke:#181818;stroke-width:0.5;" x1="287" x2="440.3018" y1="921.5938" y2="921.5938"/></g><!--class Auteur--><g id="elem_Auteur"><rect codeLine="23" fill="#F1F1F1" height="113.1875" id="Auteur" rx="2.5" ry="2.5" style="stroke:#181818;stroke-width:0.5;" width="187.3213" x="505" y="436.5"/><ellipse cx="570.8198" cy="452.5" fill="#ADD1B2" rx="11" ry="11" style="stroke:#181818;stroke-width:1;"/><path d="M574.9292,458.5 L567.2104,458.5 L567.2104,446.1094 L574.9292,446.1094 L574.9292,448.2656 L569.6636,448.2656 L569.6636,450.9375 L574.4292,450.9375 L574.4292,453.0938 L569.6636,453.0938 L569.6636,456.3438 L574.9292,456.3438 L574.9292,458.5 Z " fill="#000000"/><text fill="#000000" font-family="sans-serif" font-size="14" lengthAdjust="spacing" textLength="47.1816" x="591.3198" y="457.3467">Auteur</text><line style="stroke:#181818;stroke-width:0.5;" x1="506" x2="691.3213" y1="468.5" y2="468.5"/><ellipse cx="516" cy="482.1484" fill="transparent" rx="3" ry="3" style="stroke:#038048;stroke-width:1;"/><text fill="#000000" font-family="sans-serif" font-size="14" lengthAdjust="spacing" textLength="97.8291" x="525" y="485.4951">id_auteur : int</text><text fill="#000000" font-family="sans-serif" font-size="14" lengthAdjust="spacing" textLength="138.0654" x="525" y="501.792">nom_auteur : string</text><text fill="#000000" font-family="sans-serif" font-size="14" lengthAdjust="spacing" textLength="161.3213" x="525" y="518.0889">prenom_auteur : string</text><text fill="#000000" font-family="sans-serif" font-size="14" lengthAdjust="spacing" textLength="128.3311" x="525" y="534.3857">bio_auteur : string</text><line style="stroke:#181818;stroke-width:0.5;" x1="506" x2="691.3213" y1="541.6875" y2="541.6875"/></g><!--class Genre--><g id="elem_Genre"><rect codeLine="30" fill="#F1F1F1" height="80.5938" id="Genre" rx="2.5" ry="2.5" style="stroke:#181818;stroke-width:0.5;" width="169.2197" x="727" y="452.5"/><ellipse cx="786.0078" cy="468.5" fill="#ADD1B2" rx="11" ry="11" style="stroke:#181818;stroke-width:1;"/><path d="M790.1172,474.5 L782.3984,474.5 L782.3984,462.1094 L790.1172,462.1094 L790.1172,464.2656 L784.8516,464.2656 L784.8516,466.9375 L789.6172,466.9375 L789.6172,469.0938 L784.8516,469.0938 L784.8516,472.3438 L790.1172,472.3438 L790.1172,474.5 Z " fill="#000000"/><text fill="#000000" font-family="sans-serif" font-size="14" lengthAdjust="spacing" textLength="42.7041" x="806.5078" y="473.3467">Genre</text><line style="stroke:#181818;stroke-width:0.5;" x1="728" x2="895.2197" y1="484.5" y2="484.5"/><ellipse cx="738" cy="498.1484" fill="transparent" rx="3" ry="3" style="stroke:#038048;stroke-width:1;"/><text fill="#000000" font-family="sans-serif" font-size="14" lengthAdjust="spacing" textLength="92.3877" x="747" y="501.4951">id_genre : int</text><text fill="#000000" font-family="sans-serif" font-size="14" lengthAdjust="spacing" textLength="143.2197" x="747" y="517.792">libelle_genre : string</text><line style="stroke:#181818;stroke-width:0.5;" x1="728" x2="895.2197" y1="525.0938" y2="525.0938"/></g><!--class Livre--><g id="elem_Livre"><rect codeLine="35" fill="#F1F1F1" height="162.0781" id="Livre" rx="2.5" ry="2.5" style="stroke:#181818;stroke-width:0.5;" width="210.666" x="706" y="181"/><ellipse cx="789.9111" cy="197" fill="#ADD1B2" rx="11" ry="11" style="stroke:#181818;stroke-width:1;"/><path d="M794.0205,203 L786.3018,203 L786.3018,190.6094 L794.0205,190.6094 L794.0205,192.7656 L788.7549,192.7656 L788.7549,195.4375 L793.5205,195.4375 L793.5205,197.5938 L788.7549,197.5938 L788.7549,200.8438 L794.0205,200.8438 L794.0205,203 Z " fill="#000000"/><text fill="#000000" font-family="sans-serif" font-size="14" lengthAdjust="spacing" textLength="34.3438" x="810.4111" y="201.8467">Livre</text><line style="stroke:#181818;stroke-width:0.5;" x1="707" x2="915.666" y1="213" y2="213"/><ellipse cx="717" cy="226.6484" fill="transparent" rx="3" ry="3" style="stroke:#038048;stroke-width:1;"/><text fill="#000000" font-family="sans-serif" font-size="14" lengthAdjust="spacing" textLength="93.0645" x="726" y="229.9951">id_books : int</text><text fill="#000000" font-family="sans-serif" font-size="14" lengthAdjust="spacing" textLength="124.168" x="726" y="246.292">titre_book : string</text><text fill="#000000" font-family="sans-serif" font-size="14" lengthAdjust="spacing" textLength="113.0117" x="726" y="262.5889">prix_book : float</text><text fill="#000000" font-family="sans-serif" font-size="14" lengthAdjust="spacing" textLength="123.874" x="726" y="278.8857">isbn_book : string</text><text fill="#000000" font-family="sans-serif" font-size="14" lengthAdjust="spacing" textLength="144.6758" x="726" y="295.1826">quantite_initiale : int</text><text fill="#000000" font-family="sans-serif" font-size="14" lengthAdjust="spacing" textLength="154.041" x="726" y="311.4795">quantite_achetee : int</text><text fill="#000000" font-family="sans-serif" font-size="14" lengthAdjust="spacing" textLength="184.666" x="726" y="327.7764">quantite_commandee : int</text><line style="stroke:#181818;stroke-width:0.5;" x1="707" x2="915.666" y1="335.0781" y2="335.0781"/></g><!--class StatutCommande--><g id="elem_StatutCommande"><rect codeLine="45" fill="#F1F1F1" height="80.5938" id="StatutCommande" rx="2.5" ry="2.5" style="stroke:#181818;stroke-width:0.5;" width="216.0732" x="931.5" y="452.5"/><ellipse cx="973.8142" cy="468.5" fill="#ADD1B2" rx="11" ry="11" style="stroke:#181818;stroke-width:1;"/><path d="M977.9236,474.5 L970.2048,474.5 L970.2048,462.1094 L977.9236,462.1094 L977.9236,464.2656 L972.658,464.2656 L972.658,466.9375 L977.4236,466.9375 L977.4236,469.0938 L972.658,469.0938 L972.658,472.3438 L977.9236,472.3438 L977.9236,474.5 Z " fill="#000000"/><text fill="#000000" font-family="sans-serif" font-size="14" lengthAdjust="spacing" textLength="123.375" x="993.884" y="473.3467">StatutCommande</text><line style="stroke:#181818;stroke-width:0.5;" x1="932.5" x2="1146.5732" y1="484.5" y2="484.5"/><ellipse cx="942.5" cy="498.1484" fill="transparent" rx="3" ry="3" style="stroke:#038048;stroke-width:1;"/><text fill="#000000" font-family="sans-serif" font-size="14" lengthAdjust="spacing" textLength="139.2412" x="951.5" y="501.4951">id_status_order : int</text><text fill="#000000" font-family="sans-serif" font-size="14" lengthAdjust="spacing" textLength="190.0732" x="951.5" y="517.792">libelle_status_order : string</text><line style="stroke:#181818;stroke-width:0.5;" x1="932.5" x2="1146.5732" y1="525.0938" y2="525.0938"/></g><!--class StatutLivre--><g id="elem_StatutLivre"><rect codeLine="50" fill="#F1F1F1" height="80.5938" id="StatutLivre" rx="2.5" ry="2.5" style="stroke:#181818;stroke-width:0.5;" width="212.6211" x="1183" y="452.5"/><ellipse cx="1246.4854" cy="468.5" fill="#ADD1B2" rx="11" ry="11" style="stroke:#181818;stroke-width:1;"/><path d="M1250.5947,474.5 L1242.876,474.5 L1242.876,462.1094 L1250.5947,462.1094 L1250.5947,464.2656 L1245.3291,464.2656 L1245.3291,466.9375 L1250.0947,466.9375 L1250.0947,469.0938 L1245.3291,469.0938 L1245.3291,472.3438 L1250.5947,472.3438 L1250.5947,474.5 Z " fill="#000000"/><text fill="#000000" font-family="sans-serif" font-size="14" lengthAdjust="spacing" textLength="77.1504" x="1266.9854" y="473.3467">StatutLivre</text><line style="stroke:#181818;stroke-width:0.5;" x1="1184" x2="1394.6211" y1="484.5" y2="484.5"/><ellipse cx="1194" cy="498.1484" fill="transparent" rx="3" ry="3" style="stroke:#038048;stroke-width:1;"/><text fill="#000000" font-family="sans-serif" font-size="14" lengthAdjust="spacing" textLength="135.7891" x="1203" y="501.4951">id_status_book : int</text><text fill="#000000" font-family="sans-serif" font-size="14" lengthAdjust="spacing" textLength="186.6211" x="1203" y="517.792">libelle_status_book : string</text><line style="stroke:#181818;stroke-width:0.5;" x1="1184" x2="1394.6211" y1="525.0938" y2="525.0938"/></g><!--class Promotion--><g id="elem_Promotion"><rect codeLine="55" fill="#F1F1F1" height="113.1875" id="Promotion" rx="2.5" ry="2.5" style="stroke:#181818;stroke-width:0.5;" width="214.7061" x="7" y="436.5"/><ellipse cx="74.2109" cy="452.5" fill="#ADD1B2" rx="11" ry="11" style="stroke:#181818;stroke-width:1;"/><path d="M78.3203,458.5 L70.6016,458.5 L70.6016,446.1094 L78.3203,446.1094 L78.3203,448.2656 L73.0547,448.2656 L73.0547,450.9375 L77.8203,450.9375 L77.8203,453.0938 L73.0547,453.0938 L73.0547,456.3438 L78.3203,456.3438 L78.3203,458.5 Z " fill="#000000"/><text fill="#000000" font-family="sans-serif" font-size="14" lengthAdjust="spacing" textLength="71.7842" x="94.7109" y="457.3467">Promotion</text><line style="stroke:#181818;stroke-width:0.5;" x1="8" x2="220.7061" y1="468.5" y2="468.5"/><ellipse cx="18" cy="482.1484" fill="transparent" rx="3" ry="3" style="stroke:#038048;stroke-width:1;"/><text fill="#000000" font-family="sans-serif" font-size="14" lengthAdjust="spacing" textLength="123.874" x="27" y="485.4951">id_promotion : int</text><text fill="#000000" font-family="sans-serif" font-size="14" lengthAdjust="spacing" textLength="166.7969" x="27" y="501.792">code_promotion : string</text><text fill="#000000" font-family="sans-serif" font-size="14" lengthAdjust="spacing" textLength="188.7061" x="27" y="518.0889">pourcentage_remise : float</text><text fill="#000000" font-family="sans-serif" font-size="14" lengthAdjust="spacing" textLength="154.5811" x="27" y="534.3857">date_expiration : date</text><line style="stroke:#181818;stroke-width:0.5;" x1="8" x2="220.7061" y1="541.6875" y2="541.6875"/></g><!--class CommandeClient--><g id="elem_CommandeClient"><rect codeLine="62" fill="#F1F1F1" height="113.1875" id="CommandeClient" rx="2.5" ry="2.5" style="stroke:#181818;stroke-width:0.5;" width="244.5107" x="205" y="205.5"/><ellipse cx="262.4561" cy="221.5" fill="#ADD1B2" rx="11" ry="11" style="stroke:#181818;stroke-width:1;"/><path d="M266.5654,227.5 L258.8467,227.5 L258.8467,215.1094 L266.5654,215.1094 L266.5654,217.2656 L261.2998,217.2656 L261.2998,219.9375 L266.0654,219.9375 L266.0654,222.0938 L261.2998,222.0938 L261.2998,225.3438 L266.5654,225.3438 L266.5654,227.5 Z " fill="#000000"/><text fill="#000000" font-family="sans-serif" font-size="14" lengthAdjust="spacing" textLength="121.0986" x="282.9561" y="226.3467">CommandeClient</text><line style="stroke:#181818;stroke-width:0.5;" x1="206" x2="448.5107" y1="237.5" y2="237.5"/><ellipse cx="216" cy="251.1484" fill="transparent" rx="3" ry="3" style="stroke:#038048;stroke-width:1;"/><text fill="#000000" font-family="sans-serif" font-size="14" lengthAdjust="spacing" textLength="175.5879" x="225" y="254.4951">id_commande_client : int</text><text fill="#000000" font-family="sans-serif" font-size="14" lengthAdjust="spacing" textLength="218.5107" x="225" y="270.792">code_commande_client : string</text><text fill="#000000" font-family="sans-serif" font-size="14" lengthAdjust="spacing" textLength="143.5889" x="225" y="287.0889">montant_total : float</text><text fill="#000000" font-family="sans-serif" font-size="14" lengthAdjust="spacing" textLength="141.2168" x="225" y="303.3857">date_creation : date</text><line style="stroke:#181818;stroke-width:0.5;" x1="206" x2="448.5107" y1="310.6875" y2="310.6875"/></g><!--class OrderItemClient--><g id="elem_OrderItemClient"><rect codeLine="69" fill="#F1F1F1" height="96.8906" id="OrderItemClient" rx="2.5" ry="2.5" style="stroke:#181818;stroke-width:0.5;" width="199.3047" x="292" y="7"/><ellipse cx="331.6933" cy="23" fill="#ADD1B2" rx="11" ry="11" style="stroke:#181818;stroke-width:1;"/><path d="M335.8027,29 L328.0839,29 L328.0839,16.6094 L335.8027,16.6094 L335.8027,18.7656 L330.5371,18.7656 L330.5371,21.4375 L335.3027,21.4375 L335.3027,23.5938 L330.5371,23.5938 L330.5371,26.8438 L335.8027,26.8438 L335.8027,29 Z " fill="#000000"/><text fill="#000000" font-family="sans-serif" font-size="14" lengthAdjust="spacing" textLength="112.4307" x="351.1807" y="27.8467">OrderItemClient</text><line style="stroke:#181818;stroke-width:0.5;" x1="293" x2="490.3047" y1="39" y2="39"/><ellipse cx="303" cy="52.6484" fill="transparent" rx="3" ry="3" style="stroke:#038048;stroke-width:1;"/><text fill="#000000" font-family="sans-serif" font-size="14" lengthAdjust="spacing" textLength="173.3047" x="312" y="55.9951">id_order_item_client : int</text><text fill="#000000" font-family="sans-serif" font-size="14" lengthAdjust="spacing" textLength="137.4365" x="312" y="72.292">quantite_vente : int</text><text fill="#000000" font-family="sans-serif" font-size="14" lengthAdjust="spacing" textLength="132.8496" x="312" y="88.5889">prix_unitaire : float</text><line style="stroke:#181818;stroke-width:0.5;" x1="293" x2="490.3047" y1="95.8906" y2="95.8906"/></g><!--class Review--><g id="elem_Review"><rect codeLine="75" fill="#F1F1F1" height="96.8906" id="Review" rx="2.5" ry="2.5" style="stroke:#181818;stroke-width:0.5;" width="173.1572" x="528" y="7"/><ellipse cx="585.0391" cy="23" fill="#ADD1B2" rx="11" ry="11" style="stroke:#181818;stroke-width:1;"/><path d="M589.1484,29 L581.4297,29 L581.4297,16.6094 L589.1484,16.6094 L589.1484,18.7656 L583.8828,18.7656 L583.8828,21.4375 L588.6484,21.4375 L588.6484,23.5938 L583.8828,23.5938 L583.8828,26.8438 L589.1484,26.8438 L589.1484,29 Z " fill="#000000"/><text fill="#000000" font-family="sans-serif" font-size="14" lengthAdjust="spacing" textLength="50.5791" x="605.5391" y="27.8467">Review</text><line style="stroke:#181818;stroke-width:0.5;" x1="529" x2="700.1572" y1="39" y2="39"/><ellipse cx="539" cy="52.6484" fill="transparent" rx="3" ry="3" style="stroke:#038048;stroke-width:1;"/><text fill="#000000" font-family="sans-serif" font-size="14" lengthAdjust="spacing" textLength="98.2529" x="548" y="55.9951">id_review : int</text><text fill="#000000" font-family="sans-serif" font-size="14" lengthAdjust="spacing" textLength="63.4102" x="548" y="72.292">note : int</text><text fill="#000000" font-family="sans-serif" font-size="14" lengthAdjust="spacing" textLength="147.1572" x="548" y="88.5889">commentaire : string</text><line style="stroke:#181818;stroke-width:0.5;" x1="529" x2="700.1572" y1="95.8906" y2="95.8906"/></g><!--class Fournisseur--><g id="elem_Fournisseur"><rect codeLine="81" fill="#F1F1F1" height="96.8906" id="Fournisseur" rx="2.5" ry="2.5" style="stroke:#181818;stroke-width:0.5;" width="235.9385" x="1431.5" y="444.5"/><ellipse cx="1504.2993" cy="460.5" fill="#ADD1B2" rx="11" ry="11" style="stroke:#181818;stroke-width:1;"/><path d="M1508.4087,466.5 L1500.6899,466.5 L1500.6899,454.1094 L1508.4087,454.1094 L1508.4087,456.2656 L1503.1431,456.2656 L1503.1431,458.9375 L1507.9087,458.9375 L1507.9087,461.0938 L1503.1431,461.0938 L1503.1431,464.3438 L1508.4087,464.3438 L1508.4087,466.5 Z " fill="#000000"/><text fill="#000000" font-family="sans-serif" font-size="14" lengthAdjust="spacing" textLength="81.8398" x="1524.7993" y="465.3467">Fournisseur</text><line style="stroke:#181818;stroke-width:0.5;" x1="1432.5" x2="1666.4385" y1="476.5" y2="476.5"/><ellipse cx="1442.5" cy="490.1484" fill="transparent" rx="3" ry="3" style="stroke:#038048;stroke-width:1;"/><text fill="#000000" font-family="sans-serif" font-size="14" lengthAdjust="spacing" textLength="130.3613" x="1451.5" y="493.4951">id_fournisseur : int</text><text fill="#000000" font-family="sans-serif" font-size="14" lengthAdjust="spacing" textLength="209.9385" x="1451.5" y="509.792">telephone_fournisseur : string</text><text fill="#000000" font-family="sans-serif" font-size="14" lengthAdjust="spacing" textLength="181.1934" x="1451.5" y="526.0889">libelle_fournisseur : string</text><line style="stroke:#181818;stroke-width:0.5;" x1="1432.5" x2="1666.4385" y1="533.3906" y2="533.3906"/></g><!--class CommandeFournisseur--><g id="elem_CommandeFournisseur"><rect codeLine="87" fill="#F1F1F1" height="113.1875" id="CommandeFournisseur" rx="2.5" ry="2.5" style="stroke:#181818;stroke-width:0.5;" width="284.7744" x="1179" y="205.5"/><ellipse cx="1235.9331" cy="221.5" fill="#ADD1B2" rx="11" ry="11" style="stroke:#181818;stroke-width:1;"/><path d="M1240.0425,227.5 L1232.3237,227.5 L1232.3237,215.1094 L1240.0425,215.1094 L1240.0425,217.2656 L1234.7769,217.2656 L1234.7769,219.9375 L1239.5425,219.9375 L1239.5425,222.0938 L1234.7769,222.0938 L1234.7769,225.3438 L1240.0425,225.3438 L1240.0425,227.5 Z " fill="#000000"/><text fill="#000000" font-family="sans-serif" font-size="14" lengthAdjust="spacing" textLength="162.4082" x="1256.4331" y="226.3467">CommandeFournisseur</text><line style="stroke:#181818;stroke-width:0.5;" x1="1180" x2="1462.7744" y1="237.5" y2="237.5"/><ellipse cx="1190" cy="251.1484" fill="transparent" rx="3" ry="3" style="stroke:#038048;stroke-width:1;"/><text fill="#000000" font-family="sans-serif" font-size="14" lengthAdjust="spacing" textLength="215.8516" x="1199" y="254.4951">id_commande_fournisseur : int</text><text fill="#000000" font-family="sans-serif" font-size="14" lengthAdjust="spacing" textLength="258.7744" x="1199" y="270.792">code_commande_fournisseur : string</text><text fill="#000000" font-family="sans-serif" font-size="14" lengthAdjust="spacing" textLength="143.5889" x="1199" y="287.0889">montant_total : float</text><text fill="#000000" font-family="sans-serif" font-size="14" lengthAdjust="spacing" textLength="141.2168" x="1199" y="303.3857">date_creation : date</text><line style="stroke:#181818;stroke-width:0.5;" x1="1180" x2="1462.7744" y1="310.6875" y2="310.6875"/></g><!--class OrderItemFournisseur--><g id="elem_OrderItemFournisseur"><rect codeLine="94" fill="#F1F1F1" height="96.8906" id="OrderItemFournisseur" rx="2.5" ry="2.5" style="stroke:#181818;stroke-width:0.5;" width="239.5684" x="785.5" y="7"/><ellipse cx="824.7227" cy="23" fill="#ADD1B2" rx="11" ry="11" style="stroke:#181818;stroke-width:1;"/><path d="M828.832,29 L821.1133,29 L821.1133,16.6094 L828.832,16.6094 L828.832,18.7656 L823.5664,18.7656 L823.5664,21.4375 L828.332,21.4375 L828.332,23.5938 L823.5664,23.5938 L823.5664,26.8438 L828.832,26.8438 L828.832,29 Z " fill="#000000"/><text fill="#000000" font-family="sans-serif" font-size="14" lengthAdjust="spacing" textLength="153.7402" x="844.1055" y="27.8467">OrderItemFournisseur</text><line style="stroke:#181818;stroke-width:0.5;" x1="786.5" x2="1024.0684" y1="39" y2="39"/><ellipse cx="796.5" cy="52.6484" fill="transparent" rx="3" ry="3" style="stroke:#038048;stroke-width:1;"/><text fill="#000000" font-family="sans-serif" font-size="14" lengthAdjust="spacing" textLength="213.5684" x="805.5" y="55.9951">id_order_item_fournisseur : int</text><text fill="#000000" font-family="sans-serif" font-size="14" lengthAdjust="spacing" textLength="154.041" x="805.5" y="72.292">quantite_achetee : int</text><text fill="#000000" font-family="sans-serif" font-size="14" lengthAdjust="spacing" textLength="132.8496" x="805.5" y="88.5889">prix_unitaire : float</text><line style="stroke:#181818;stroke-width:0.5;" x1="786.5" x2="1024.0684" y1="95.8906" y2="95.8906"/></g><!--link Client to Utilisateur--><g id="link_Client_Utilisateur"><path codeLine="100" d="M363.5,566.24 C363.5,591.15 363.5,618.84 363.5,643 " fill="transparent" id="Client-Utilisateur" style="stroke:#181818;stroke-width:1;"/><text fill="#000000" font-family="sans-serif" font-size="13" lengthAdjust="spacing" textLength="100.3628" x="364.5" y="609.0669">AvoirUtilisateur</text><text fill="#000000" font-family="sans-serif" font-size="13" lengthAdjust="spacing" textLength="26.2603" x="336.2913" y="585.7663">0..N</text><text fill="#000000" font-family="sans-serif" font-size="13" lengthAdjust="spacing" textLength="24.8066" x="338.187" y="631.7216">1..1</text></g><!--link Utilisateur to Role--><g id="link_Utilisateur_Role"><path codeLine="101" d="M363.5,772.21 C363.5,797.8 363.5,826.5 363.5,848.98 " fill="transparent" id="Utilisateur-Role" style="stroke:#181818;stroke-width:1;"/><text fill="#000000" font-family="sans-serif" font-size="13" lengthAdjust="spacing" textLength="62.0928" x="364.5" y="815.0669">AvoirRole</text><text fill="#000000" font-family="sans-serif" font-size="13" lengthAdjust="spacing" textLength="26.2603" x="336.0398" y="792.6059">0..N</text><text fill="#000000" font-family="sans-serif" font-size="13" lengthAdjust="spacing" textLength="24.8066" x="337.4809" y="837.8398">1..1</text></g><!--link Livre to Auteur--><g id="link_Livre_Auteur"><path codeLine="102" d="M737,343.09 C708.33,373.92 676.25,408.41 650.18,436.43 " fill="transparent" id="Livre-Auteur" style="stroke:#181818;stroke-width:1;"/><text fill="#000000" font-family="sans-serif" font-size="13" lengthAdjust="spacing" textLength="50.5654" x="706.5" y="386.0669">EcritPar</text><text fill="#000000" font-family="sans-serif" font-size="13" lengthAdjust="spacing" textLength="26.2603" x="703.2335" y="363.0494">0..N</text><text fill="#000000" font-family="sans-serif" font-size="13" lengthAdjust="spacing" textLength="24.8066" x="631.2951" y="425.2844">1..1</text></g><!--link Livre to Genre--><g id="link_Livre_Genre"><path codeLine="103" d="M811.5,343.09 C811.5,380.11 811.5,422.42 811.5,452.45 " fill="transparent" id="Livre-Genre" style="stroke:#181818;stroke-width:1;"/><text fill="#000000" font-family="sans-serif" font-size="13" lengthAdjust="spacing" textLength="77.6445" x="812.5" y="386.0669">AppartientA</text><text fill="#000000" font-family="sans-serif" font-size="13" lengthAdjust="spacing" textLength="26.2603" x="784.3686" y="363.0494">0..N</text><text fill="#000000" font-family="sans-serif" font-size="13" lengthAdjust="spacing" textLength="24.8066" x="785.4879" y="441.3046">1..1</text></g><!--link Livre to StatutLivre--><g id="link_Livre_StatutLivre"><path codeLine="104" d="M917.1,306.56 C987.95,336.61 1082.9,378.49 1164.5,420 C1184.03,429.93 1204.82,441.49 1223.71,452.4 " fill="transparent" id="Livre-StatutLivre" style="stroke:#181818;stroke-width:1;"/><text fill="#000000" font-family="sans-serif" font-size="13" lengthAdjust="spacing" textLength="74.9214" x="1099.5" y="386.0669">AvoirStatus</text><text fill="#000000" font-family="sans-serif" font-size="13" lengthAdjust="spacing" textLength="26.2603" x="924.7168" y="306.0028">0..N</text><text fill="#000000" font-family="sans-serif" font-size="13" lengthAdjust="spacing" textLength="24.8066" x="1186.9242" y="441.545">1..1</text></g><!--link Livre to StatutCommande--><g id="link_Livre_StatutCommande"><path codeLine="105" d="M891.24,343.09 C928.1,380.11 970.22,422.42 1000.12,452.45 " fill="transparent" id="Livre-StatutCommande" style="stroke:#181818;stroke-width:1;"/><text fill="#000000" font-family="sans-serif" font-size="13" lengthAdjust="spacing" textLength="57.7573" x="933.5" y="386.0669">StatutDe</text><text fill="#000000" font-family="sans-serif" font-size="13" lengthAdjust="spacing" textLength="26.2603" x="871.2105" y="363.0494">0..N</text><text fill="#000000" font-family="sans-serif" font-size="13" lengthAdjust="spacing" textLength="24.8066" x="967.3521" y="441.3046">1..1</text></g><!--link CommandeClient to Promotion--><g id="link_CommandeClient_Promotion"><path codeLine="106" d="M275.67,318.73 C242.42,354.47 199.42,400.7 166.2,436.42 " fill="transparent" id="CommandeClient-Promotion" style="stroke:#181818;stroke-width:1;"/><text fill="#000000" font-family="sans-serif" font-size="13" lengthAdjust="spacing" textLength="78.1079" x="222.5" y="386.0669">BeneficieDe</text><text fill="#000000" font-family="sans-serif" font-size="13" lengthAdjust="spacing" textLength="26.2603" x="241.8145" y="338.6216">0..N</text><text fill="#000000" font-family="sans-serif" font-size="13" lengthAdjust="spacing" textLength="24.8066" x="147.3571" y="425.2731">0..1</text></g><!--link CommandeClient to Client--><g id="link_CommandeClient_Client"><path codeLine="107" d="M336.26,318.73 C341.05,349.18 347.03,387.24 352.17,419.92 " fill="transparent" id="CommandeClient-Client" style="stroke:#181818;stroke-width:1;"/><text fill="#000000" font-family="sans-serif" font-size="13" lengthAdjust="spacing" textLength="58.5" x="348.5" y="386.0669">PassePar</text><text fill="#000000" font-family="sans-serif" font-size="13" lengthAdjust="spacing" textLength="26.2603" x="309.7889" y="338.6216">1..N</text><text fill="#000000" font-family="sans-serif" font-size="13" lengthAdjust="spacing" textLength="24.8066" x="325.7808" y="408.6952">1..1</text></g><!--link OrderItemClient to CommandeClient--><g id="link_OrderItemClient_CommandeClient"><path codeLine="108" d="M341.34,104.32 C334.45,113.47 328.41,123.5 324.5,134 C316.15,156.43 315.42,182.65 317.34,205.44 " fill="transparent" id="OrderItemClient-CommandeClient" style="stroke:#181818;stroke-width:1;"/><text fill="#000000" font-family="sans-serif" font-size="13" lengthAdjust="spacing" textLength="84.9063" x="325.5" y="147.0669">ContientItem</text><text fill="#000000" font-family="sans-serif" font-size="13" lengthAdjust="spacing" textLength="26.2603" x="306.8499" y="123.9712">1..N</text><text fill="#000000" font-family="sans-serif" font-size="13" lengthAdjust="spacing" textLength="24.8066" x="290.5838" y="194.2957">1..1</text></g><!--link OrderItemClient to Livre--><g id="link_OrderItemClient_Livre"><path codeLine="109" d="M489.18,104.06 C554.13,135.69 639.4,177.2 705.92,209.59 " fill="transparent" id="OrderItemClient-Livre" style="stroke:#181818;stroke-width:1;"/><text fill="#000000" font-family="sans-serif" font-size="13" lengthAdjust="spacing" textLength="75.9307" x="577.5" y="147.0669">ProduitItem</text><text fill="#000000" font-family="sans-serif" font-size="13" lengthAdjust="spacing" textLength="26.2603" x="475.085" y="124.0274">1..N</text><text fill="#000000" font-family="sans-serif" font-size="13" lengthAdjust="spacing" textLength="24.8066" x="673.3271" y="202.2593">1..1</text></g><!--link Review to Client--><g id="link_Review_Client"><path codeLine="110" d="M592.47,104.21 C565.25,161.95 516.5,261.57 467.5,343 C452.05,368.68 433.74,395.82 416.83,419.8 " fill="transparent" id="Review-Client" style="stroke:#181818;stroke-width:1;"/><text fill="#000000" font-family="sans-serif" font-size="13" lengthAdjust="spacing" textLength="43.7227" x="556.5" y="266.5669">Evalue</text><text fill="#000000" font-family="sans-serif" font-size="13" lengthAdjust="spacing" textLength="26.2603" x="561.7698" y="123.8464">1..N</text><text fill="#000000" font-family="sans-serif" font-size="13" lengthAdjust="spacing" textLength="24.8066" x="396.9144" y="408.9403">1..1</text></g><!--link Review to Livre--><g id="link_Review_Livre"><path codeLine="111" d="M660.44,104.19 C682.38,126.97 709.25,154.85 734.21,180.76 " fill="transparent" id="Review-Livre" style="stroke:#181818;stroke-width:1;"/><text fill="#000000" font-family="sans-serif" font-size="13" lengthAdjust="spacing" textLength="30.7734" x="702.5" y="147.0669">Note</text><text fill="#000000" font-family="sans-serif" font-size="13" lengthAdjust="spacing" textLength="26.2603" x="638.8732" y="123.8237">1..N</text><text fill="#000000" font-family="sans-serif" font-size="13" lengthAdjust="spacing" textLength="24.8066" x="702.3084" y="169.9259">1..1</text></g><!--link CommandeFournisseur to Fournisseur--><g id="link_CommandeFournisseur_Fournisseur"><path codeLine="112" d="M1376.98,318.73 C1415.21,357.12 1465.48,407.61 1501.88,444.18 " fill="transparent" id="CommandeFournisseur-Fournisseur" style="stroke:#181818;stroke-width:1;"/><text fill="#000000" font-family="sans-serif" font-size="13" lengthAdjust="spacing" textLength="123.6777" x="1443.5" y="386.0669">CommandeFournie</text><text fill="#000000" font-family="sans-serif" font-size="13" lengthAdjust="spacing" textLength="26.2603" x="1356.1869" y="338.6216">1..N</text><text fill="#000000" font-family="sans-serif" font-size="13" lengthAdjust="spacing" textLength="24.8066" x="1469.557" y="433.3439">1..1</text></g><!--link OrderItemFournisseur to CommandeFournisseur--><g id="link_OrderItemFournisseur_CommandeFournisseur"><path codeLine="113" d="M1002.25,104.06 C1063.82,134.33 1143.83,173.66 1208.34,205.37 " fill="transparent" id="OrderItemFournisseur-CommandeFournisseur" style="stroke:#181818;stroke-width:1;"/><text fill="#000000" font-family="sans-serif" font-size="13" lengthAdjust="spacing" textLength="92.6567" x="1090.5" y="147.0669">ContientAchat</text><text fill="#000000" font-family="sans-serif" font-size="13" lengthAdjust="spacing" textLength="26.2603" x="988.076" y="124.0274">1..N</text><text fill="#000000" font-family="sans-serif" font-size="13" lengthAdjust="spacing" textLength="24.8066" x="1169.149" y="194.6177">1..1</text></g><!--link OrderItemFournisseur to Livre--><g id="link_OrderItemFournisseur_Livre"><path codeLine="114" d="M883.58,104.19 C873.11,126.97 860.29,154.85 848.38,180.76 " fill="transparent" id="OrderItemFournisseur-Livre" style="stroke:#181818;stroke-width:1;"/><text fill="#000000" font-family="sans-serif" font-size="13" lengthAdjust="spacing" textLength="77.2637" x="871.5" y="147.0669">AcheteLivre</text><text fill="#000000" font-family="sans-serif" font-size="13" lengthAdjust="spacing" textLength="26.2603" x="852.9341" y="123.8237">1..N</text><text fill="#000000" font-family="sans-serif" font-size="13" lengthAdjust="spacing" textLength="24.8066" x="826.6467" y="169.9259">1..1</text></g><!--SRC=[fLLBZzCm4BxdLrYvegrshxcLiY0aj5IBE4TkCcb797QmdUuYn7_7piFnAsKbRl4t_cO-pol05AfV93-q24pbv7T6o3kioseyau8WKnfYl5iXgGIoiqPx0Mc3WXRw2sUGiD6w5Y1bmb9Ti6a4bBHfA0g7sxISgknFbi6izhl25YLLC8XLyY11MC7GKMmzhLJA5oxgMB-BU4Sdu3DlOOqazCb6Ql44RGiB67FtWw-JZcSljHOAKniRJiWZr0ds2PXmb9xDCPAwe37z2rvT-edp7zBIzHLT5OFvIl5r0QT24OBonAABFmTgea2931LI9uNMGgiBA4WOAjvrbDNMv4Z-fgWQr66-i6gN1fUbBhdJ5ai60cESYCbha8wPDJyiwT5_jEFmA7Z75NAskkiNo3ghU0qUl6QP3wBIlkXPTnfqAC59TwqdeOJN7WMTUGPneo_fYSPyniDv7uN4HYkdureAKwNYYhQXaah0bewl9k6V5NIXaB4IfIvr5qgnFN3LwDeQOziDkfFCgaZjY6Uu8hmuGpkUdR5pd9cNckJYnbXyrDbdAAKtnyqAhYDY5vzljObRsYLfJXGi6TaM9YN1Bzs6ZF-kNrANKyIKiiqntwob_ItbzxlTKqxkxaZ-iDizvC4le23xAqVXO9b_8UPF6tqccaEsBB_uxhB12_9O2LH7AcvSdZUmzjptL2YZVt_ZkhTePZaZ9lz9MdTUGIRaWtv5EEeE-tvYEwke8E-1GOCLGfBx44PUB0KvwXygZAc8XZf12nmNvA0xq7mRtfjSs1Hf-VM0Ct6PybjA7w-q7U3MNUlxIM-5B3ryCSipcnUvBCWsXcKxEP6_AKFxwgAduStUrbOQfsmy_WK0]--></g></svg>