<svg xmlns="http://www.w3.org/2000/svg" xmlns:xlink="http://www.w3.org/1999/xlink" contentStyleType="text/css" data-diagram-type="DESCRIPTION" height="825px" preserveAspectRatio="none" style="width:654px;height:825px;background:#FFFFFF;" version="1.1" viewBox="0 0 654 825" width="654px" zoomAndPan="magnify"><defs/><g><!--cluster Syst?me Biblioth?que--><g class="cluster" data-entity="Système Bibliothèque" data-source-line="9" data-uid="ent0006" id="cluster_Système Bibliothèque"><rect fill="none" height="791" rx="2.5" ry="2.5" style="stroke:#181818;stroke-width:1;" width="217.31" x="430.7" y="28.95"/><text fill="#000000" font-family="sans-serif" font-size="14" font-weight="bold" lengthAdjust="spacing" textLength="173.0313" x="452.8394" y="43.9451">Système Bibliothèque</text></g><!--entity UC1--><g class="entity" data-entity="UC1" data-source-line="11" data-uid="ent0007" id="entity_UC1"><ellipse cx="539.3507" cy="569.9541" fill="#F1F1F1" rx="74.7207" ry="17.3441" style="stroke:#181818;stroke-width:0.5;"/><text fill="#000000" font-family="sans-serif" font-size="14" lengthAdjust="spacing" textLength="118.0498" x="480.3258" y="574.6026">Créer un compte</text></g><!--entity UC2--><g class="entity" data-entity="UC2" data-source-line="12" data-uid="ent0008" id="entity_UC2"><ellipse cx="539.3465" cy="429.9493" fill="#F1F1F1" rx="64.4965" ry="15.2993" style="stroke:#181818;stroke-width:0.5;"/><text fill="#000000" font-family="sans-serif" font-size="14" lengthAdjust="spacing" textLength="92.1279" x="493.2825" y="434.5977">Se connecter</text></g><!--entity UC3--><g class="entity" data-entity="UC3" data-source-line="13" data-uid="ent0009" id="entity_UC3"><ellipse cx="539.3545" cy="498.9549" fill="#F1F1F1" rx="81.2245" ry="18.6449" style="stroke:#181818;stroke-width:0.5;"/><text fill="#000000" font-family="sans-serif" font-size="14" lengthAdjust="spacing" textLength="133.5537" x="472.5777" y="503.6033">Consulter les livres</text></g><!--entity UC4--><g class="entity" data-entity="UC4" data-source-line="14" data-uid="ent0010" id="entity_UC4"><ellipse cx="539.3462" cy="642.9512" fill="#F1F1F1" rx="92.6562" ry="20.9312" style="stroke:#181818;stroke-width:0.5;"/><text fill="#000000" font-family="sans-serif" font-size="14" lengthAdjust="spacing" textLength="159.7285" x="459.4819" y="647.5997">Passer une commande</text></g><!--entity UC5--><g class="entity" data-entity="UC5" data-source-line="15" data-uid="ent0011" id="entity_UC5"><ellipse cx="539.3526" cy="717.9485" fill="#F1F1F1" rx="83.7926" ry="19.1585" style="stroke:#181818;stroke-width:0.5;"/><text fill="#000000" font-family="sans-serif" font-size="14" lengthAdjust="spacing" textLength="139.5352" x="469.585" y="722.597">Payer la commande</text></g><!--entity UC6--><g class="entity" data-entity="UC6" data-source-line="16" data-uid="ent0012" id="entity_UC6"><ellipse cx="539.345" cy="787.945" fill="#F1F1F1" rx="65.675" ry="15.535" style="stroke:#181818;stroke-width:0.5;"/><text fill="#000000" font-family="sans-serif" font-size="14" lengthAdjust="spacing" textLength="95.252" x="491.7191" y="792.5934">Écrire un avis</text></g><!--entity UC7--><g class="entity" data-entity="UC7" data-source-line="17" data-uid="ent0013" id="entity_UC7"><ellipse cx="539.3464" cy="79.9473" fill="#F1F1F1" rx="66.0864" ry="15.6173" style="stroke:#181818;stroke-width:0.5;"/><text fill="#000000" font-family="sans-serif" font-size="14" lengthAdjust="spacing" textLength="96.332" x="491.1804" y="84.5957">Gérer les avis</text></g><!--entity UC8--><g class="entity" data-entity="UC8" data-source-line="18" data-uid="ent0014" id="entity_UC8"><ellipse cx="539.346" cy="147.9452" fill="#F1F1F1" rx="73.076" ry="17.0152" style="stroke:#181818;stroke-width:0.5;"/><text fill="#000000" font-family="sans-serif" font-size="14" lengthAdjust="spacing" textLength="114.0303" x="482.3309" y="152.5936">Gérer les clients</text></g><!--entity UC9--><g class="entity" data-entity="UC9" data-source-line="19" data-uid="ent0015" id="entity_UC9"><ellipse cx="539.3547" cy="291.9509" fill="#F1F1F1" rx="69.8547" ry="16.3709" style="stroke:#181818;stroke-width:0.5;"/><text fill="#000000" font-family="sans-serif" font-size="14" lengthAdjust="spacing" textLength="106.0117" x="486.3488" y="296.5994">Gérer les livres</text></g><!--entity UC10--><g class="entity" data-entity="UC10" data-source-line="20" data-uid="ent0016" id="entity_UC10"><ellipse cx="539.3462" cy="361.9532" fill="#F1F1F1" rx="78.8662" ry="18.1732" style="stroke:#181818;stroke-width:0.5;"/><text fill="#000000" font-family="sans-serif" font-size="14" lengthAdjust="spacing" textLength="127.9961" x="475.3481" y="366.6017">Assigner des rôles</text></g><!--entity UC11--><g class="entity" data-entity="UC11" data-source-line="21" data-uid="ent0017" id="entity_UC11"><ellipse cx="539.3547" cy="219.9489" fill="#F1F1F1" rx="90.1447" ry="20.4289" style="stroke:#181818;stroke-width:0.5;"/><text fill="#000000" font-family="sans-serif" font-size="14" lengthAdjust="spacing" textLength="154.0684" x="462.3205" y="224.5974">Gérer les commandes</text></g><!--entity Admin--><g class="entity" data-entity="Admin" data-source-line="4" data-uid="ent0002" id="entity_Admin"><ellipse cx="58.3018" cy="196.3" fill="#F1F1F1" rx="8" ry="8" style="stroke:#181818;stroke-width:0.5;"/><path d="M58.3018,204.3 L58.3018,231.3 M45.3018,212.3 L71.3018,212.3 M58.3018,231.3 L45.3018,246.3 M58.3018,231.3 L71.3018,246.3" fill="none" style="stroke:#181818;stroke-width:0.5;"/><text fill="#000000" font-family="sans-serif" font-size="14" lengthAdjust="spacing" textLength="104.6035" x="6" y="260.7951">Administrateur</text></g><!--entity Assistant--><g class="entity" data-entity="Assistant" data-source-line="5" data-uid="ent0003" id="entity_Assistant"><ellipse cx="278.1469" cy="69.3" fill="#F1F1F1" rx="8" ry="8" style="stroke:#181818;stroke-width:0.5;"/><path d="M278.1469,77.3 L278.1469,104.3 M265.1469,85.3 L291.1469,85.3 M278.1469,104.3 L265.1469,119.3 M278.1469,104.3 L291.1469,119.3" fill="none" style="stroke:#181818;stroke-width:0.5;"/><text fill="#000000" font-family="sans-serif" font-size="14" lengthAdjust="spacing" textLength="113.0938" x="221.6" y="133.7951">Assistant Admin</text></g><!--entity User--><g class="entity" data-entity="User" data-source-line="6" data-uid="ent0004" id="entity_User"><ellipse cx="278.1549" cy="509.3" fill="#F1F1F1" rx="8" ry="8" style="stroke:#181818;stroke-width:0.5;"/><path d="M278.1549,517.3 L278.1549,544.3 M265.1549,525.3 L291.1549,525.3 M278.1549,544.3 L265.1549,559.3 M278.1549,544.3 L291.1549,559.3" fill="none" style="stroke:#181818;stroke-width:0.5;"/><text fill="#000000" font-family="sans-serif" font-size="14" lengthAdjust="spacing" textLength="72.0098" x="242.15" y="573.7951">Utilisateur</text></g><!--entity Client--><g class="entity" data-entity="Client" data-source-line="7" data-uid="ent0005" id="entity_Client"><ellipse cx="278.1551" cy="688.3" fill="#F1F1F1" rx="8" ry="8" style="stroke:#181818;stroke-width:0.5;"/><path d="M278.1551,696.3 L278.1551,723.3 M265.1551,704.3 L291.1551,704.3 M278.1551,723.3 L265.1551,738.3 M278.1551,723.3 L291.1551,738.3" fill="none" style="stroke:#181818;stroke-width:0.5;"/><text fill="#000000" font-family="sans-serif" font-size="14" lengthAdjust="spacing" textLength="40.5303" x="257.89" y="752.7951">Client</text></g><!--link User to UC1--><g class="link" data-entity-1="User" data-entity-2="UC1" data-source-line="24" data-uid="lnk18" id="link_User_UC1"><path d="M314.65,543.2 C355.06,548.03 416.0125,555.3171 466.1525,561.3171" fill="none" id="User-to-UC1" style="stroke:#181818;stroke-width:1;"/><polygon fill="#181818" points="472.11,562.03,463.649,556.989,467.1454,561.4359,462.6985,564.9323,472.11,562.03" style="stroke:#181818;stroke-width:1;"/></g><!--link User to UC2--><g class="link" data-entity-1="User" data-entity-2="UC2" data-source-line="25" data-uid="lnk19" id="link_User_UC2"><path d="M314.44,517.59 C342.9,501.03 384.37,478.37 422.7,462.95 C445.07,453.95 464.995,447.8674 486.495,442.2474" fill="none" id="User-to-UC2" style="stroke:#181818;stroke-width:1;"/><polygon fill="#181818" points="492.3,440.73,482.581,439.1361,487.4625,441.9945,484.6042,446.8761,492.3,440.73" style="stroke:#181818;stroke-width:1;"/></g><!--link User to UC3--><g class="link" data-entity-1="User" data-entity-2="UC3" data-source-line="26" data-uid="lnk20" id="link_User_UC3"><path d="M314.65,533.47 C354.72,527.29 414.9003,518.0059 464.8803,510.2859" fill="none" id="User-to-UC3" style="stroke:#181818;stroke-width:1;"/><polygon fill="#181818" points="470.81,509.37,461.3049,506.7907,465.8686,510.1333,462.5261,514.697,470.81,509.37" style="stroke:#181818;stroke-width:1;"/></g><!--link User to UC4--><g class="link" data-entity-1="User" data-entity-2="UC4" data-source-line="27" data-uid="lnk21" id="link_User_UC4"><path d="M314.65,556.64 C343.41,570.64 385.17,590.21 422.7,604.95 C441.98,612.52 457.7297,618.0182 476.8897,624.1982" fill="none" id="User-to-UC4" style="stroke:#181818;stroke-width:1;"/><polygon fill="#181818" points="482.6,626.04,475.2624,619.4704,477.8414,624.5051,472.8066,627.0841,482.6,626.04" style="stroke:#181818;stroke-width:1;"/></g><!--link UC4 to Client--><g class="link" data-entity-1="UC4" data-entity-2="Client" data-source-line="28" data-uid="lnk22" id="link_UC4_Client"><path d="M479.59,659.22 C445.91,668.62 402.88,680.76 364.7,691.95 C342.05,698.58 321.8737,704.7422 304.5537,710.0822" fill="none" id="UC4-to-Client" style="stroke:#181818;stroke-width:1;"/><polygon fill="#181818" points="298.82,711.85,308.599,713.0208,303.5981,710.3769,306.242,705.3759,298.82,711.85" style="stroke:#181818;stroke-width:1;"/><text fill="#000000" font-family="sans-serif" font-size="13" lengthAdjust="spacing" textLength="48.8896" x="365.7" y="675.0169">devient</text></g><!--link Client to UC5--><g class="link" data-entity-1="Client" data-entity-2="UC5" data-source-line="30" data-uid="lnk23" id="link_Client_UC5"><path d="M298.63,717.95 C331.54,717.95 393.96,717.95 449.31,717.95" fill="none" id="Client-to-UC5" style="stroke:#181818;stroke-width:1;"/><polygon fill="#181818" points="455.31,717.95,446.31,713.95,450.31,717.95,446.31,721.95,455.31,717.95" style="stroke:#181818;stroke-width:1;"/></g><!--link Client to UC6--><g class="link" data-entity-1="Client" data-entity-2="UC6" data-source-line="31" data-uid="lnk24" id="link_Client_UC6"><path d="M298.63,723.21 C340.08,734.4 432.0473,759.2466 489.1073,774.6466" fill="none" id="Client-to-UC6" style="stroke:#181818;stroke-width:1;"/><polygon fill="#181818" points="494.9,776.21,487.2532,770.0031,490.0727,774.9072,485.1686,777.7267,494.9,776.21" style="stroke:#181818;stroke-width:1;"/></g><!--link Admin to UC7--><g class="link" data-entity-1="Admin" data-entity-2="UC7" data-source-line="33" data-uid="lnk25" id="link_Admin_UC7"><path d="M78.4,187.68 C103.76,142.01 153.44,68.6 221.6,42.95 C319.8,6 440.5655,41.9141 499.6055,64.1641" fill="none" id="Admin-to-UC7" style="stroke:#181818;stroke-width:1;"/><polygon fill="#181818" points="505.22,66.28,498.2088,59.3631,500.5412,64.5167,495.3876,66.8492,505.22,66.28" style="stroke:#181818;stroke-width:1;"/></g><!--link Admin to UC8--><g class="link" data-entity-1="Admin" data-entity-2="UC8" data-source-line="34" data-uid="lnk26" id="link_Admin_UC8"><path d="M110.9,216.98 C120.76,215.29 131,213.55 140.6,211.95 C260.13,192.04 394.1235,170.7066 472.0835,158.3866" fill="none" id="Admin-to-UC8" style="stroke:#181818;stroke-width:1;"/><polygon fill="#181818" points="478.01,157.45,468.4959,154.9039,473.0713,158.2305,469.7447,162.8058,478.01,157.45" style="stroke:#181818;stroke-width:1;"/></g><!--link Admin to UC9--><g class="link" data-entity-1="Admin" data-entity-2="UC9" data-source-line="35" data-uid="lnk27" id="link_Admin_UC9"><path d="M111.02,233.08 C200.42,245.39 377.4062,269.7708 472.3062,282.8508" fill="none" id="Admin-to-UC9" style="stroke:#181818;stroke-width:1;"/><polygon fill="#181818" points="478.25,283.67,469.8804,278.4786,473.2968,282.9873,468.7881,286.4037,478.25,283.67" style="stroke:#181818;stroke-width:1;"/></g><!--link Admin to UC10--><g class="link" data-entity-1="Admin" data-entity-2="UC10" data-source-line="36" data-uid="lnk28" id="link_Admin_UC10"><path d="M110.78,243.5 C120.65,246.74 130.92,250.02 140.6,252.95 C263.27,290.1 403.0513,327.0869 479.5313,346.8769" fill="none" id="Admin-to-UC10" style="stroke:#181818;stroke-width:1;"/><polygon fill="#181818" points="485.34,348.38,477.629,342.253,480.4994,347.1275,475.6249,349.9979,485.34,348.38" style="stroke:#181818;stroke-width:1;"/></g><!--link Admin to UC11--><g class="link" data-entity-1="Admin" data-entity-2="UC11" data-source-line="37" data-uid="lnk29" id="link_Admin_UC11"><path d="M111.02,225.3 C191.95,224.29 343.5305,222.3847 443.0705,221.1447" fill="none" id="Admin-to-UC11" style="stroke:#181818;stroke-width:1;"/><polygon fill="#181818" points="449.07,221.07,440.0209,217.1824,444.0704,221.1323,440.1205,225.1818,449.07,221.07" style="stroke:#181818;stroke-width:1;"/></g><!--link Admin to Assistant--><g class="link" data-entity-1="Admin" data-entity-2="Assistant" data-source-line="39" data-uid="lnk30" id="link_Admin_Assistant"><path d="M106.28,187.52 C117.24,179.3 129.09,170.98 140.6,163.95 C166.15,148.36 190.56,136.2255 215.83,124.8355" fill="none" id="Admin-to-Assistant" style="stroke:#181818;stroke-width:1;"/><polygon fill="#181818" points="221.3,122.37,211.4513,122.4216,216.7416,124.4246,214.7386,129.715,221.3,122.37" style="stroke:#181818;stroke-width:1;"/><text fill="#000000" font-family="sans-serif" font-size="13" lengthAdjust="spacing" textLength="49.6133" x="141.6" y="135.0169">assigne</text></g><!--link Assistant to UC7--><g class="link" data-entity-1="Assistant" data-entity-2="UC7" data-source-line="40" data-uid="lnk31" id="link_Assistant_UC7"><path d="M334.78,91.92 C344.73,90.81 355.01,89.77 364.7,88.95 C400.65,85.92 434.8759,84.026 467.5559,82.576" fill="none" id="Assistant-to-UC7" style="stroke:#181818;stroke-width:1;"/><polygon fill="#181818" points="473.55,82.31,464.3815,78.7129,468.5549,82.5316,464.7362,86.705,473.55,82.31" style="stroke:#181818;stroke-width:1;"/></g><!--link Assistant to UC8--><g class="link" data-entity-1="Assistant" data-entity-2="UC8" data-source-line="41" data-uid="lnk32" id="link_Assistant_UC8"><path d="M335.07,109.52 C378.38,117.71 432.2346,127.8846 475.7346,136.1146" fill="none" id="Assistant-to-UC8" style="stroke:#181818;stroke-width:1;"/><polygon fill="#181818" points="481.63,137.23,473.5305,131.6266,476.7172,136.3005,472.0433,139.4872,481.63,137.23" style="stroke:#181818;stroke-width:1;"/></g><!--link Assistant to UC11--><g class="link" data-entity-1="Assistant" data-entity-2="UC11" data-source-line="42" data-uid="lnk33" id="link_Assistant_UC11"><path d="M334.9,135.44 C360.88,151.42 392.63,169.54 422.7,182.95 C440.99,191.11 455.9002,196.5296 474.6302,202.3496" fill="none" id="Assistant-to-UC11" style="stroke:#181818;stroke-width:1;"/><polygon fill="#181818" points="480.36,204.13,472.9523,197.6395,475.5852,202.6463,470.5784,205.2792,480.36,204.13" style="stroke:#181818;stroke-width:1;"/></g><!--SRC=[PP9DReCm48NtFiM8LRk8LFAVB2grMNHRASe1N9WIAyQazX0fgdg0tYJPzmPShFu10cI1vFU-yVDuZCHF0Yf0YsnFa0gD2Ob2CNCGwiWrp-78amFFS4jdYU0mLvb4ndX2XORe9Ss54eOq9onr1Do0jrfkZALSKR13GUCrHJiIKfXRmiwWRjX62bJaxR1ahEq2ektPK7N94Lx5XnG5xQlBLuaHV3C6yB3HrHKrb0gI8ZyIFlhmJUpO5gsfb8r2NVjZlwTGffJM18a6f3XfD3MVEFxEZV6PRd-USvKsiTE0psuh7yAPWzLleks8NKFy99hOkKDlrLNNPtRGOe0IFu66BWUqr-pAGJVfJ5cSMgohFzdY-6aONVVR5iJiXp7t4Z0QFVkfTSIuAoPTCMNsy-lmNB2sXv_2mzLEA9prvPmn_uVKSj5JovvQzPIzIK_6tQ3RxxUsr_B3O3UlFMhWBE-SEFu7]--></g></svg>