<svg xmlns="http://www.w3.org/2000/svg" xmlns:xlink="http://www.w3.org/1999/xlink" contentStyleType="text/css" data-diagram-type="DESCRIPTION" height="1032px" preserveAspectRatio="none" style="width:416px;height:1032px;background:#FFFFFF;" version="1.1" viewBox="0 0 416 1032" width="416px" zoomAndPan="magnify"><title>Diagramme de cas d'utilisation Yk-library project</title><defs/><g><text fill="#000000" font-family="sans-serif" font-size="14" font-weight="bold" lengthAdjust="spacing" textLength="388.1855" x="10" y="22.9951">Diagramme de cas d'utilisation Yk-library project</text><!--cluster Syst?me Biblioth?que--><g id="cluster_Syst&#232;me Biblioth&#232;que"><rect fill="transparent" height="982" rx="2.5" ry="2.5" style="stroke:#181818;stroke-width:1;" width="242" x="164.5928" y="44.2969"/><text fill="#000000" font-family="sans-serif" font-size="14" font-weight="bold" lengthAdjust="spacing" textLength="173.0313" x="199.0771" y="59.292">Syst&#232;me Biblioth&#232;que</text></g><g id="elem_UC1"><ellipse cx="285.3971" cy="98.1577" fill="#F1F1F1" rx="79.8044" ry="18.3609" style="stroke:#181818;stroke-width:0.5;"/><text fill="#000000" font-family="sans-serif" font-size="14" lengthAdjust="spacing" textLength="118.0498" x="224.6318" y="101.56">Cr&#233;er un compte</text></g><g id="elem_UC2"><ellipse cx="285.835" cy="548.1453" fill="#F1F1F1" rx="69.7422" ry="16.3484" style="stroke:#181818;stroke-width:0.5;"/><text fill="#000000" font-family="sans-serif" font-size="14" lengthAdjust="spacing" textLength="92.1279" x="236.771" y="551.8929">Se connecter</text></g><g id="elem_UC3"><ellipse cx="285.4978" cy="477.4779" fill="#F1F1F1" rx="86.405" ry="19.681" style="stroke:#181818;stroke-width:0.5;"/><text fill="#000000" font-family="sans-serif" font-size="14" lengthAdjust="spacing" textLength="133.5537" x="218.7209" y="480.3246">Consulter les livres</text></g><g id="elem_UC4"><ellipse cx="285.6327" cy="174.3049" fill="#F1F1F1" rx="98.04" ry="22.008" style="stroke:#181818;stroke-width:0.5;"/><text fill="#000000" font-family="sans-serif" font-size="14" lengthAdjust="spacing" textLength="159.7285" x="205.7685" y="177.1515">Passer une commande</text></g><g id="elem_UC5"><ellipse cx="285.4679" cy="255.1719" fill="#F1F1F1" rx="104.8751" ry="23.375" style="stroke:#181818;stroke-width:0.5;"/><text fill="#000000" font-family="sans-serif" font-size="14" lengthAdjust="spacing" textLength="174.7471" x="198.0944" y="258.0186">Appliquer une promotion</text></g><g id="elem_UC6"><ellipse cx="285.6198" cy="334.5023" fill="#F1F1F1" rx="89.027" ry="20.2054" style="stroke:#181818;stroke-width:0.5;"/><text fill="#000000" font-family="sans-serif" font-size="14" lengthAdjust="spacing" textLength="139.5352" x="215.8522" y="337.349">Payer la commande</text></g><g id="elem_UC7"><ellipse cx="285.4915" cy="406.3766" fill="#F1F1F1" rx="70.8988" ry="16.5798" style="stroke:#181818;stroke-width:0.5;"/><text fill="#000000" font-family="sans-serif" font-size="14" lengthAdjust="spacing" textLength="95.252" x="234.8656" y="410.1242">&#201;crire un avis</text></g><g id="elem_UC8"><ellipse cx="285.575" cy="698.0933" fill="#F1F1F1" rx="91.9822" ry="20.7964" style="stroke:#181818;stroke-width:0.5;"/><text fill="#000000" font-family="sans-serif" font-size="14" lengthAdjust="spacing" textLength="146.2139" x="212.468" y="700.94">G&#233;rer les utilisateurs</text></g><g id="elem_UC9"><ellipse cx="285.6974" cy="771.4178" fill="#F1F1F1" rx="73.6047" ry="17.1209" style="stroke:#181818;stroke-width:0.5;"/><text fill="#000000" font-family="sans-serif" font-size="14" lengthAdjust="spacing" textLength="102.4023" x="231.4963" y="775.1654">G&#233;rer les r&#244;les</text></g><g id="elem_UC10"><ellipse cx="285.807" cy="841.3397" fill="#F1F1F1" rx="75.7142" ry="17.5428" style="stroke:#181818;stroke-width:0.5;"/><text fill="#000000" font-family="sans-serif" font-size="14" lengthAdjust="spacing" textLength="107.8438" x="228.8851" y="845.0873">Ajouter un livre</text></g><g id="elem_UC11"><ellipse cx="285.3872" cy="621.3558" fill="#F1F1F1" rx="93.2944" ry="21.0589" style="stroke:#181818;stroke-width:0.5;"/><text fill="#000000" font-family="sans-serif" font-size="14" lengthAdjust="spacing" textLength="149.1602" x="210.8071" y="624.2024">Mettre &#224; jour le stock</text></g><g id="elem_UC12"><ellipse cx="285.7382" cy="988.126" fill="#F1F1F1" rx="97.1454" ry="21.8291" style="stroke:#181818;stroke-width:0.5;"/><text fill="#000000" font-family="sans-serif" font-size="14" lengthAdjust="spacing" textLength="157.7461" x="206.8651" y="990.9726">Commander des livres</text></g><g id="elem_UC13"><ellipse cx="285.6982" cy="912.418" fill="#F1F1F1" rx="81.1054" ry="18.6211" style="stroke:#181818;stroke-width:0.5;"/><text fill="#000000" font-family="sans-serif" font-size="14" lengthAdjust="spacing" textLength="121.1875" x="223.8473" y="915.6756">Fournir des livres</text></g><!--entity Client--><g id="elem_Client"><ellipse cx="67.8579" cy="304.7969" fill="#F1F1F1" rx="8" ry="8" style="stroke:#181818;stroke-width:0.5;"/><path d="M67.8579,312.7969 L67.8579,339.7969 M54.8579,320.7969 L80.8579,320.7969 M67.8579,339.7969 L54.8579,354.7969 M67.8579,339.7969 L80.8579,354.7969 " fill="transparent" style="stroke:#181818;stroke-width:0.5;"/><text fill="#000000" font-family="sans-serif" font-size="14" lengthAdjust="spacing" textLength="40.5303" x="47.5928" y="369.292">Client</text></g><!--entity User--><g id="elem_User"><ellipse cx="68.0977" cy="483.7969" fill="#F1F1F1" rx="8" ry="8" style="stroke:#181818;stroke-width:0.5;"/><path d="M68.0977,491.7969 L68.0977,518.7969 M55.0977,499.7969 L81.0977,499.7969 M68.0977,518.7969 L55.0977,533.7969 M68.0977,518.7969 L81.0977,533.7969 " fill="transparent" style="stroke:#181818;stroke-width:0.5;"/><text fill="#000000" font-family="sans-serif" font-size="14" lengthAdjust="spacing" textLength="72.0098" x="32.0928" y="548.292">Utilisateur</text></g><!--entity Admin--><g id="elem_Admin"><ellipse cx="67.8945" cy="705.7969" fill="#F1F1F1" rx="8" ry="8" style="stroke:#181818;stroke-width:0.5;"/><path d="M67.8945,713.7969 L67.8945,740.7969 M54.8945,721.7969 L80.8945,721.7969 M67.8945,740.7969 L54.8945,755.7969 M67.8945,740.7969 L80.8945,755.7969 " fill="transparent" style="stroke:#181818;stroke-width:0.5;"/><text fill="#000000" font-family="sans-serif" font-size="14" lengthAdjust="spacing" textLength="104.6035" x="15.5928" y="770.292">Administrateur</text></g><!--entity Supplier--><g id="elem_Supplier"><ellipse cx="68.0127" cy="920.7969" fill="#F1F1F1" rx="8" ry="8" style="stroke:#181818;stroke-width:0.5;"/><path d="M68.0127,928.7969 L68.0127,955.7969 M55.0127,936.7969 L81.0127,936.7969 M68.0127,955.7969 L55.0127,970.7969 M68.0127,955.7969 L81.0127,970.7969 " fill="transparent" style="stroke:#181818;stroke-width:0.5;"/><text fill="#000000" font-family="sans-serif" font-size="14" lengthAdjust="spacing" textLength="81.8398" x="27.0928" y="985.292">Fournisseur</text></g><!--link Client to UC1--><g id="link_Client_UC1"><path d="M75.6328,296.0669 C85.3528,250.9169 107.9928,176.5969 156.5928,134.2969 C172.5228,120.4269 187.6158,113.3866 207.8858,108.1166 " fill="transparent" id="Client-to-UC1" style="stroke:#181818;stroke-width:1;"/><polygon fill="#181818" points="213.6928,106.6069,203.9759,105.0002,208.8536,107.865,205.9888,112.7428,213.6928,106.6069" style="stroke:#181818;stroke-width:1;"/></g><!--link Client to UC2--><g id="link_Client_UC2"><path d="M85.5528,372.3469 C107.4428,422.2169 144.7228,504.5269 156.5928,514.2969 C174.6028,529.1369 192.5959,536.2901 214.8159,541.0501 " fill="transparent" id="Client-to-UC2" style="stroke:#181818;stroke-width:1;"/><polygon fill="#181818" points="220.6828,542.3069,212.7203,536.5104,215.7937,541.2595,211.0446,544.3329,220.6828,542.3069" style="stroke:#181818;stroke-width:1;"/></g><!--link Client to UC3--><g id="link_Client_UC3"><path d="M88.8428,367.5669 C104.4428,391.1169 128.2728,421.6969 156.5928,440.2969 C174.3828,451.9769 190.1239,458.4691 210.4139,463.9991 " fill="transparent" id="Client-to-UC3" style="stroke:#181818;stroke-width:1;"/><polygon fill="#181818" points="216.2028,465.5769,208.5713,459.351,211.3787,464.2621,206.4677,467.0695,216.2028,465.5769" style="stroke:#181818;stroke-width:1;"/></g><!--link Client to UC4--><g id="link_Client_UC4"><path d="M88.3128,296.2269 C103.5028,269.7269 127.0428,235.4769 156.5928,214.2969 C172.5828,202.8369 186.2401,196.3899 205.0301,190.4699 " fill="transparent" id="Client-to-UC4" style="stroke:#181818;stroke-width:1;"/><polygon fill="#181818" points="210.7528,188.6669,200.9667,187.5562,205.9839,190.1694,203.3707,195.1865,210.7528,188.6669" style="stroke:#181818;stroke-width:1;"/></g><!--link Client to UC5--><g id="link_Client_UC5"><path d="M88.6728,325.1269 C106.2528,317.0469 132.8728,305.2169 156.5928,296.2969 C177.5628,288.4069 195.0815,282.4743 215.9415,275.8843 " fill="transparent" id="Client-to-UC5" style="stroke:#181818;stroke-width:1;"/><polygon fill="#181818" points="221.6628,274.0769,211.8759,272.9738,216.895,275.5831,214.2858,280.6022,221.6628,274.0769" style="stroke:#181818;stroke-width:1;"/></g><!--link Client to UC6--><g id="link_Client_UC6"><path d="M88.5928,334.2969 C113.0528,334.2969 150.6028,334.2969 190.4528,334.2969 " fill="transparent" id="Client-to-UC6" style="stroke:#181818;stroke-width:1;"/><polygon fill="#181818" points="196.4528,334.2969,187.4528,330.2969,191.4528,334.2969,187.4528,338.2969,196.4528,334.2969" style="stroke:#181818;stroke-width:1;"/></g><!--link Client to UC7--><g id="link_Client_UC7"><path d="M88.6128,343.4369 C106.1528,351.4369 132.7528,363.0369 156.5928,371.2969 C182.2828,380.1969 205.672,386.8319 229.692,393.0119 " fill="transparent" id="Client-to-UC7" style="stroke:#181818;stroke-width:1;"/><polygon fill="#181818" points="235.5028,394.5069,227.7833,388.3905,230.6605,393.261,225.79,396.1382,235.5028,394.5069" style="stroke:#181818;stroke-width:1;"/></g><!--link User to UC2--><g id="link_User_UC2"><path d="M104.1928,518.9969 C137.5928,524.4169 182.4905,531.7145 221.6905,538.0845 " fill="transparent" id="User-to-UC2" style="stroke:#181818;stroke-width:1;"/><polygon fill="#181818" points="227.6128,539.0469,219.3709,533.6551,222.6775,538.2449,218.0877,541.5515,227.6128,539.0469" style="stroke:#181818;stroke-width:1;"/></g><!--link User to UC3--><g id="link_User_UC3"><path d="M104.1928,507.4369 C134.2528,502.4169 172.5048,496.0256 209.6148,489.8256 " fill="transparent" id="User-to-UC3" style="stroke:#181818;stroke-width:1;"/><polygon fill="#181818" points="215.5328,488.8369,205.9967,486.3746,210.6011,489.6608,207.315,494.2653,215.5328,488.8369" style="stroke:#181818;stroke-width:1;"/></g><!--link Admin to UC8--><g id="link_Admin_UC8"><path d="M120.7128,726.4369 C147.8528,721.7769 175.6791,716.9909 205.4791,711.8809 " fill="transparent" id="Admin-to-UC8" style="stroke:#181818;stroke-width:1;"/><polygon fill="#181818" points="211.3928,710.8669,201.8462,708.4455,206.4647,711.7119,203.1983,716.3304,211.3928,710.8669" style="stroke:#181818;stroke-width:1;"/></g><!--link Admin to UC9--><g id="link_Admin_UC9"><path d="M120.7128,743.9169 C152.2128,749.1869 186.6848,754.9378 219.4748,760.4178 " fill="transparent" id="Admin-to-UC9" style="stroke:#181818;stroke-width:1;"/><polygon fill="#181818" points="225.3928,761.4069,217.1752,755.9781,220.4612,760.5827,215.8565,763.8686,225.3928,761.4069" style="stroke:#181818;stroke-width:1;"/></g><!--link Admin to UC10--><g id="link_Admin_UC10"><path d="M109.8828,773.5169 C123.8628,785.0369 140.1528,796.8569 156.5928,805.2969 C178.3628,816.4769 198.2215,823.1135 220.8515,828.7635 " fill="transparent" id="Admin-to-UC10" style="stroke:#181818;stroke-width:1;"/><polygon fill="#181818" points="226.6728,830.2169,218.9097,824.1559,221.8217,829.0057,216.9719,831.9177,226.6728,830.2169" style="stroke:#181818;stroke-width:1;"/></g><!--link Admin to UC11--><g id="link_Admin_UC11"><path d="M106.0228,696.9869 C120.7128,683.5169 138.4228,669.2669 156.5928,659.2969 C175.0828,649.1469 190.8358,643.0728 210.8958,637.3128 " fill="transparent" id="Admin-to-UC11" style="stroke:#181818;stroke-width:1;"/><polygon fill="#181818" points="216.6628,635.6569,206.9084,634.2961,211.857,637.0368,209.1163,641.9854,216.6628,635.6569" style="stroke:#181818;stroke-width:1;"/></g><!--link Supplier to UC12--><g id="link_Supplier_UC12"><path d="M109.1228,957.3569 C136.9928,962.2669 169.1342,967.9337 202.6642,973.8537 " fill="transparent" id="Supplier-to-UC12" style="stroke:#181818;stroke-width:1;"/><polygon fill="#181818" points="208.5728,974.8969,200.4053,969.393,203.6489,974.0275,199.0144,977.2711,208.5728,974.8969" style="stroke:#181818;stroke-width:1;"/></g><!--link Supplier to UC13--><g id="link_Supplier_UC13"><path d="M109.1228,943.2369 C140.5228,937.6969 178.9239,930.9287 215.1639,924.5387 " fill="transparent" id="Supplier-to-UC13" style="stroke:#181818;stroke-width:1;"/><polygon fill="#181818" points="221.0728,923.4969,211.5149,921.1205,216.1487,924.3651,212.9041,928.9989,221.0728,923.4969" style="stroke:#181818;stroke-width:1;"/></g><!--SRC=[RLBBRjim4BppAnQ-f3qOgAqyBmLI1-sfG54ZXnuPYNKOKwIoN0OmYdv0_wB7vDu_q8zrIOgEwHOGBC_ESdOqND9a5DnekK7Pzmew1Qtqq9q4qaPxITfP-BQT6ts74dSme7jGBGcZlXEG0zIRUu9E8nUvLVYjjeDaBHXakvKRjQOT3uYqj1kZX90jEOJPocXbQGOyBFyjnEqqM0LCxArNMBZhhjTMUy9NEfKA_z45PDuNSXs6WSLHYBq1cArtdiPd_jOF-iveH_VZysDGC_WX0FXviyBnHI442wth1r9laulL8d9hZiTPos8Af_eodN7M1yD5CCg3qK-e_CGtaVyYsLJKZEVxNjgko9v6-ZhQP1EvWpFkNKnpQZdB2hkeBe_FdqTo_DKYNq7qB9zqcNmX8lTfVC79LtYDjlHS7hNW-CVihLybRmykKCuZVLU9urqaFoiYdZl-1kwA2k39jTlIin0vdEmOURkEmbcazFAr_Ozkn4yXJk2hCcaJowvuaTymdxzFLrF1PGsR6fxMyAo6vpMygASVxAONSJ7t4mz0Kv_92vf-fuRB2brLY6EjuA8MErXmKPQxj2x_gJH_0G00]--></g></svg>